<svg width="228" height="128" viewBox="0 0 228 128" fill="none" xmlns="http://www.w3.org/2000/svg">
<path fill-rule="evenodd" clip-rule="evenodd" d="M94.8635 68.1221C94.8635 71.4834 92.3139 73.7319 88.2065 73.7319C86.0581 73.7319 84.0044 73.0928 82.8711 71.9799L84.1225 69.5414C84.9722 70.4415 86.3177 70.9615 87.8288 70.9615C90.048 70.9615 91.4169 69.8252 91.4169 68.1449C91.4169 66.4645 90.0947 65.3992 88.0884 65.3992C87.1914 65.3992 86.4118 65.5886 85.7037 65.9673L84.8067 64.287L89.6228 58.7475H83.674V55.9777H93.9665V58.0603L89.4573 62.8657C92.7151 62.9366 94.8635 65.0426 94.8635 68.1201V68.1221ZM96.0591 64.6306C96.0591 59.2577 99.7661 55.6836 105.314 55.6836C108.17 55.6836 110.484 56.6305 112.207 58.5002L110.106 60.6309C109.114 59.3527 107.438 58.4533 105.36 58.4533C101.843 58.4533 99.5058 60.9387 99.5058 64.6553C99.5058 68.372 101.89 70.9042 105.408 70.9042C107.769 70.9042 109.398 69.8395 110.508 68.1351L112.75 70.1473C111.074 72.4433 108.525 73.6739 105.337 73.6739C99.7894 73.6739 96.0598 70.053 96.0598 64.6319L96.0591 64.6306ZM123.351 66.9904C123.351 64.671 121.958 63.1325 119.88 63.1325C117.803 63.1325 116.386 64.671 116.386 66.9904C116.386 69.3098 117.779 70.8482 119.88 70.8482C121.982 70.8482 123.351 69.3104 123.351 66.9904ZM113.058 66.9904C113.058 63.0375 115.796 60.3868 119.88 60.3868C123.964 60.3868 126.68 63.0375 126.68 66.9904C126.68 70.9432 123.941 73.618 119.88 73.618C115.82 73.618 113.058 70.9673 113.058 66.9904ZM148.072 65.3575V73.3817H144.862V65.8782C144.862 64.2219 143.823 63.1325 142.241 63.1325C140.66 63.1325 139.644 64.2213 139.644 65.8782V73.3811H136.434V65.8782C136.434 64.2219 135.395 63.1325 133.814 63.1325C132.232 63.1325 131.217 64.2213 131.217 65.8782V73.3811H128.006V60.6237H131.099L131.147 62.1381C132.044 60.9784 133.389 60.3868 134.947 60.3868C136.623 60.3868 137.968 61.0968 138.795 62.304C139.715 61.05 141.203 60.3868 142.903 60.3868C145.996 60.3868 148.073 62.3756 148.073 65.3575H148.072ZM170.347 65.3575V73.3817H167.136V65.8782C167.136 64.2219 166.098 63.1325 164.516 63.1325C162.934 63.1325 161.919 64.2213 161.919 65.8782V73.3811H158.709V65.8782C158.709 64.2219 157.67 63.1325 156.088 63.1325C154.506 63.1325 153.491 64.2213 153.491 65.8782V73.3811H150.281V60.6237H153.374L153.421 62.1381C154.318 60.9784 155.664 60.3868 157.222 60.3868C158.897 60.3868 160.243 61.0968 161.069 62.304C161.99 61.05 163.477 60.3868 165.177 60.3868C168.27 60.3868 170.347 62.3756 170.347 65.3575H170.347ZM179.914 68.0557C179.088 67.8897 178.238 67.7954 177.506 67.7954C175.996 67.7954 175.027 68.5054 175.027 69.5948C175.027 70.6842 175.712 71.3226 177.011 71.3226C178.498 71.3226 179.891 70.1389 179.914 68.0563V68.0557ZM183.124 65.3575V73.3817H180.032L179.961 71.5589C179.111 72.8845 177.647 73.618 176.089 73.618C173.445 73.618 171.674 72.032 171.674 69.6651C171.674 67.2982 173.846 65.5938 177.104 65.5938C177.977 65.5938 178.946 65.6881 179.913 65.8775V65.6413C179.913 63.9369 178.78 62.9197 176.845 62.9197C175.64 62.9197 174.673 63.2744 173.87 63.9369L172.477 62.0431C173.846 60.9302 175.452 60.3862 177.671 60.3862C180.929 60.3862 183.124 62.3509 183.124 65.3569L183.124 65.3575ZM184.571 72.1036L185.775 70.1623C186.979 70.8723 188.183 71.1092 189.434 71.1092C190.614 71.1092 191.417 70.612 191.417 69.831C191.417 69.0501 190.52 68.6245 189.245 68.2926L188.183 68.0082C186.035 67.4401 184.571 66.6116 184.571 64.6C184.571 62.0672 186.554 60.3868 189.576 60.3868C191.489 60.3868 193.118 60.789 194.368 61.6409L193.024 63.7475C192.008 63.1794 190.923 62.919 189.789 62.919C188.656 62.919 187.83 63.3453 187.83 64.0787C187.83 64.8122 188.633 65.1916 189.742 65.4753L190.804 65.7831C192.977 66.3513 194.7 67.345 194.7 69.5942C194.7 72.0079 192.575 73.618 189.388 73.618C187.452 73.618 185.729 73.1214 184.573 72.1036" fill="white"/>
<path d="M32.501 42V86H76.501V42H32.501ZM47.4569 59.1315L46.005 64.1081L46.0037 64.1106L44.3289 69.1279C44.3198 69.1545 44.2952 69.1726 44.2672 69.1726H39.3176C39.3137 69.1726 39.3098 69.1726 39.3059 69.1713C39.2709 69.1648 39.2475 69.1312 39.254 69.0962L40.1778 64.1106C40.1778 64.1106 40.1778 64.1094 40.1778 64.1087L41.0483 58.7084C41.0535 58.6773 41.0807 58.654 41.1126 58.654H47.1835C47.2075 58.654 47.2296 58.6669 47.2406 58.6883L47.4518 59.083C47.4595 59.0979 47.4615 59.1154 47.4569 59.1315ZM58.3098 59.1315L56.8481 64.1081V64.1106L55.161 69.1279C55.1519 69.1545 55.1272 69.1719 55.0993 69.1719H50.1698C50.1659 69.1719 50.1627 69.1719 50.1588 69.1713C50.1237 69.1655 50.0997 69.1318 50.1055 69.0962L50.9806 64.11L51.8569 58.7084C51.8621 58.6773 51.8888 58.654 51.9206 58.654H58.0344C58.0584 58.654 58.0805 58.6669 58.0915 58.6883L58.304 59.083C58.3118 59.0979 58.3137 59.1154 58.3092 59.1315H58.3098ZM69.4563 59.1315L68.0044 64.1081V64.1106L66.3289 69.1279C66.3198 69.1545 66.2952 69.1726 66.2672 69.1726H61.3176C61.3137 69.1726 61.3098 69.1726 61.3059 69.1713C61.2709 69.1648 61.2475 69.1312 61.254 69.0962L62.1778 64.1106V64.1087L63.0476 58.7084C63.0528 58.6773 63.0801 58.654 63.1119 58.654H69.1828C69.2068 58.654 69.2289 58.6669 69.2406 58.6883L69.4517 59.083C69.4595 59.0979 69.4615 59.1154 69.4569 59.1315H69.4563Z" fill="white"/>
</svg>
