<svg width="228" height="128" viewBox="0 0 228 128" fill="none" xmlns="http://www.w3.org/2000/svg">
<g clip-path="url(#clip0_1317_3397)">
<path d="M113.858 63.7311C113.896 63.7524 114.032 63.8643 114.188 63.9051C117.801 64.8584 120.189 68.5368 120.079 72.5561C119.92 78.4145 115.811 81.5248 110.927 81.9722C107.102 82.3219 103.229 82.171 99.3797 82.1959C98.2705 82.203 97.6977 81.5266 97.6977 80.4011C97.6942 70.0938 97.6942 59.7865 97.6977 49.4774C97.6977 48.208 98.1504 47.6257 99.3831 47.6346C103.116 47.663 106.865 47.5583 110.575 47.892C116.981 48.4672 120.248 55.9501 116.475 61.2085C115.78 62.176 114.744 62.8914 113.858 63.7276V63.7311ZM102.162 78.4252C104.523 78.4252 106.78 78.4341 109.035 78.4181C109.494 78.4145 109.956 78.3293 110.412 78.2548C113.02 77.8216 115.083 75.8279 115.264 73.5769C115.55 70.0157 114.361 67.7823 111.458 66.8059C108.458 65.7976 105.347 66.1952 102.267 66.3035C102.242 66.3035 102.22 66.3355 102.162 66.3763V78.4252V78.4252ZM102.117 62.5222C104.032 62.5222 105.846 62.5399 107.659 62.5186C111.028 62.4778 113.1 60.4433 113.28 57.0294C113.448 53.8197 111.652 51.6787 108.486 51.4515C106.642 51.3183 104.788 51.3503 102.94 51.2686C102.282 51.2402 102.099 51.4976 102.105 52.1385C102.129 55.1956 102.115 58.2544 102.115 61.3114C102.115 61.6842 102.115 62.0588 102.115 62.5239L102.117 62.5222Z" fill="white"/>
<path d="M195.491 59.813C195.519 59.1881 195.547 58.8455 195.549 58.5047C195.552 54.5298 195.549 50.5549 195.552 46.5801C195.552 45.3675 195.611 45.2379 196.78 45.1243C197.574 45.048 198.399 45.1012 199.186 45.2433C199.456 45.293 199.675 45.7705 199.863 46.0865C199.94 46.2161 199.877 46.4327 199.877 46.6085C199.877 58.0324 199.877 69.4564 199.877 80.8821C199.877 82.068 199.674 82.2846 198.486 82.3698C198.429 82.3734 198.369 82.3734 198.312 82.3752C196.212 82.4497 196.015 82.2598 196.015 80.1525C196.015 79.6856 196.015 79.2187 196.015 78.5246C195.317 79.1388 194.77 79.6235 194.222 80.1046C191.476 82.5065 188.34 83.3019 184.846 82.313C182.182 81.5603 180.324 79.7335 179.403 77.1505C177.63 72.1815 177.557 67.1379 179.467 62.1706C181.987 55.6145 190.209 54.4428 194.595 58.9804C194.81 59.2041 195.052 59.4047 195.495 59.813H195.491ZM195.55 69.3588C195.55 68.8297 195.55 68.2989 195.55 67.7699C195.55 65.3602 194.65 63.3689 192.848 61.796C192.826 61.7765 192.803 61.7588 192.782 61.7392C191.239 60.4308 189.484 59.7385 187.482 60.1983C185.218 60.7202 184.029 62.4422 183.345 64.5371C182.297 67.7521 182.392 71.0222 183.209 74.2621C184.297 78.5867 188.089 80.2608 191.689 77.9032C193.043 77.0156 194.114 75.6681 195.268 74.484C195.476 74.2727 195.53 73.8396 195.537 73.5076C195.564 72.1247 195.549 70.7417 195.55 69.357V69.3588Z" fill="white"/>
<path d="M142.749 78.592C141.428 79.6323 140.332 80.6496 139.096 81.4378C135.73 83.5859 131.045 83 128.494 80.1933C127.138 78.7003 126.485 76.8398 126.434 74.887C126.286 69.1777 126.295 63.4648 126.23 57.7537C126.222 57.0223 126.631 56.7347 127.244 56.7009C128.024 56.6583 128.809 56.6566 129.591 56.6992C130.383 56.7418 130.641 57.2353 130.639 58.0164C130.625 62.9358 130.604 67.8551 130.665 72.7744C130.691 74.8177 131.151 76.7794 132.911 78.0754C134.757 79.4335 137.203 79.1761 139.295 77.3866C140.264 76.5575 141.145 75.6095 141.981 74.6384C142.242 74.3349 142.309 73.7774 142.31 73.3372C142.333 68.3291 142.323 63.3228 142.326 58.3147C142.326 56.827 142.462 56.7009 143.907 56.6832C147.179 56.6459 146.641 56.7382 146.646 59.4225C146.662 66.6106 146.635 73.797 146.672 80.9851C146.677 81.9082 146.326 82.2793 145.498 82.345C145.411 82.3521 145.326 82.3645 145.239 82.3716C142.989 82.5473 142.753 82.3272 142.753 80.0673C142.753 79.6092 142.753 79.1512 142.753 78.5956L142.749 78.592Z" fill="white"/>
<path d="M167.101 63.5962C167.101 57.8567 167.101 52.1172 167.101 46.3777C167.101 45.2291 167.234 45.0728 168.386 45.0196C169.078 44.9876 169.774 44.9947 170.465 45.0285C171.073 45.0586 171.426 45.3853 171.4 46.0475C171.392 46.2534 171.404 46.4593 171.404 46.6653C171.404 57.9685 171.404 69.27 171.404 80.5732C171.404 82.1124 171.198 82.3237 169.666 82.3734C167.209 82.4533 167.101 82.3521 167.101 79.9306V63.5962Z" fill="white"/>
<path d="M154.751 69.5362C154.751 65.6786 154.751 61.8226 154.751 57.9649C154.751 56.9583 154.965 56.7045 155.96 56.6903C159.614 56.6406 159.038 56.582 159.047 59.6124C159.066 66.6496 159.054 73.6851 159.052 80.7223C159.052 82.0627 158.845 82.2793 157.516 82.368C154.934 82.5402 154.749 82.368 154.749 79.7796C154.749 76.364 154.749 72.9483 154.749 69.5345L154.751 69.5362Z" fill="white"/>
<path d="M159.52 49.3619C159.52 51.4035 158.925 51.9858 156.841 51.984C154.835 51.984 154.229 51.3786 154.229 49.3779C154.229 47.2884 154.819 46.7185 156.975 46.7309C159.001 46.7416 159.52 47.2777 159.518 49.3619H159.52Z" fill="white"/>
<path d="M46.4181 47.7571H40.7801L28.9 82.5616H33.2095L36.4219 73.3549H50.5813L53.8268 82.5616H58.7439L46.4181 47.7571ZM37.5694 69.6126L43.3379 52.5699L49.3694 69.6126H37.5694Z" fill="white"/>
<path d="M87.3551 54.1392C87.3551 54.1392 88.7323 55.2754 88.9604 53.5374C88.9604 53.5374 89.3539 50.965 88.1577 50.1963C88.1577 50.1963 78.8337 43.0454 67.3297 50.8638C67.3297 50.8638 58.1362 57.8655 62.3151 72.2507C62.3151 72.2507 66.1004 86.4494 83.3573 82.2065C83.3573 82.2065 89.4306 80.9211 89.0231 77.7629L89.0423 65.3324C89.0423 65.3324 89.1084 63.5784 87.6824 63.5784H76.0791C76.0791 63.5784 74.4564 66.0851 76.2759 67.3384H84.3393V77.4132C84.3393 77.4132 76.3264 81.7733 70.1313 76.2095C70.1313 76.2095 63.5426 69.8931 66.9362 59.0159C66.9362 59.0159 72.2294 45.348 87.3551 54.1374V54.1392Z" fill="white"/>
</g>
<defs>
<clipPath id="clip0_1317_3397">
<rect width="171" height="38" fill="white" transform="translate(28.9 45)"/>
</clipPath>
</defs>
</svg>
