<svg width="228" height="128" viewBox="0 0 228 128" fill="none" xmlns="http://www.w3.org/2000/svg">
<g clip-path="url(#clip0_1317_3314)">
<path d="M59.1126 96.5743H58.5198V102.872H62.4088V102.341H59.1126V96.5743Z" fill="white"/>
<path d="M67.7963 96.5743L65.3811 102.875H65.9767L66.7945 100.73H69.3854L70.195 102.875H70.8153L68.4166 96.5743H67.799H67.7963ZM69.1878 100.213H66.9894L67.9061 97.8263C67.9829 97.6249 68.0543 97.4262 68.1009 97.2792C68.1476 97.4207 68.2135 97.6167 68.2876 97.8181L69.1878 100.213V100.213Z" fill="white"/>
<path d="M77.5397 101.762C77.4903 101.871 77.4408 101.993 77.4052 102.091C77.3667 101.996 77.3173 101.873 77.2679 101.762L74.9543 96.5743H74.3093V102.875H74.8857L74.8774 97.78C74.9214 97.8916 74.979 98.0249 75.0366 98.1556L77.1719 102.877H77.611L79.7545 98.1556C79.8066 98.0413 79.8506 97.927 79.889 97.8263V102.877H80.4736V96.5771H79.8506L77.5369 101.764L77.5397 101.762Z" fill="white"/>
<path d="M85.2874 99.9001H88.4711V99.3776H85.2874V97.105H88.7949V96.5743H84.6946V102.872H88.8196V102.341H85.2874V99.9001Z" fill="white"/>
<path d="M96.7678 97.3037C96.2518 96.8275 95.5245 96.5743 94.6655 96.5743H92.6345V102.875H94.6655C95.519 102.875 96.2463 102.611 96.7651 102.113C97.3524 101.549 97.6515 100.73 97.6515 99.6715C97.6515 98.6128 97.3551 97.8453 96.7678 97.3037V97.3037ZM93.2273 97.105H94.6325C96.7294 97.105 97.0423 98.7271 97.0423 99.696C97.0423 101.476 96.2546 102.344 94.6325 102.344H93.2273V97.105Z" fill="white"/>
<path d="M103.086 96.5743L100.671 102.875H101.266L102.084 100.73H104.675L105.485 102.875H106.105L103.706 96.5743H103.089H103.086ZM104.477 100.213H102.279L103.196 97.8263C103.272 97.6249 103.344 97.4262 103.39 97.2792C103.437 97.4207 103.503 97.6167 103.577 97.8181L104.477 100.213V100.213Z" fill="white"/>
<path d="M119.764 98.3461C119.764 97.6793 119.476 97.1649 118.93 96.8574C118.595 96.6723 118.156 96.5743 117.662 96.5743H115.39V102.875H115.982V100.248H117.81L119.213 102.875H119.891L118.425 100.142C119.254 99.911 119.764 99.2306 119.764 98.3461V98.3461ZM119.172 98.3542C119.172 98.7679 119.029 99.7314 117.692 99.7314H115.98V97.105H117.692C118.631 97.105 119.172 97.5595 119.172 98.3542Z" fill="white"/>
<path d="M124.243 99.9001H127.427V99.3776H124.243V97.105H127.751V96.5743H123.651V102.872H127.776V102.341H124.243V99.9001Z" fill="white"/>
<path d="M134.283 99.5001L133.116 99.2987C132.277 99.1599 131.966 98.8605 131.966 98.1937C131.966 97.4426 132.548 96.9935 133.525 96.9935C134.502 96.9935 134.985 97.4181 135.051 98.289L135.057 98.3597H135.63V98.2808C135.592 97.1241 134.846 96.4873 133.525 96.4873C132.205 96.4873 131.374 97.1731 131.374 98.1937C131.374 99.149 131.903 99.6661 133.092 99.8675L134.192 100.061C134.942 100.191 135.246 100.502 135.246 101.133C135.246 101.451 135.123 102.494 133.525 102.494C132.054 102.494 131.769 101.506 131.714 101.081L131.706 101.013H131.14L131.146 101.095C131.214 101.971 131.879 102.997 133.525 102.997C134.931 102.997 135.839 102.249 135.839 101.089C135.839 100.2 135.315 99.6634 134.283 99.4946V99.5001Z" fill="white"/>
<path d="M140.244 99.9001H143.428V99.3776H140.244V97.105H143.752V96.5743H139.651V102.872H143.776V102.341H140.244V99.9001Z" fill="white"/>
<path d="M149.488 96.5743L147.07 102.875H147.665L148.483 100.73H151.074L151.884 102.875H152.504L150.105 96.5743H149.488ZM150.879 100.213H148.681L149.598 97.8263C149.674 97.6276 149.743 97.4262 149.792 97.2792C149.839 97.4207 149.905 97.6167 149.979 97.8181L150.879 100.213V100.213Z" fill="white"/>
<path d="M160.378 98.3461C160.378 97.6793 160.09 97.1649 159.544 96.8574C159.209 96.6723 158.77 96.5743 158.276 96.5743H156.003V102.875H156.596V100.248H158.424L159.826 102.875H160.504L159.039 100.142C159.867 99.911 160.378 99.2306 160.378 98.3461V98.3461ZM159.785 98.3542C159.785 98.7679 159.642 99.7314 158.306 99.7314H156.593V97.105H158.306C159.244 97.105 159.785 97.5595 159.785 98.3542Z" fill="white"/>
<path d="M166.652 96.9826C168.137 96.9826 168.409 97.9514 168.455 98.3678L168.464 98.4359H169.04L169.032 98.3515C168.897 96.969 167.714 96.4736 166.655 96.4736C164.986 96.4736 163.864 97.7881 163.864 99.7477C163.864 100.817 164.133 101.647 164.66 102.216C165.137 102.728 165.815 103 166.622 103C167.992 103 168.936 102.262 169.032 101.122L169.04 101.04H168.466L168.458 101.108C168.359 101.977 167.703 102.494 166.704 102.494C165.996 102.494 165.439 102.243 165.049 101.745C164.676 101.269 164.481 100.58 164.481 99.7504C164.481 98.9203 164.671 98.2535 165.027 97.7664C165.406 97.252 165.969 96.9826 166.658 96.9826H166.652Z" fill="white"/>
<path d="M177.01 96.5743V99.3776H173.502V96.5743H172.91V102.872H173.502V99.9001H177.01V102.872H177.6V96.5743H177.01Z" fill="white"/>
<path d="M52.0153 96.5744L49.6001 102.872H50.1957L51.0135 100.727H53.6044L54.414 102.872H55.0343L52.6356 96.5717H52.018L52.0153 96.5744ZM53.4068 100.213H51.2084L52.1251 97.8263C52.2019 97.6249 52.2733 97.4262 52.3199 97.2793C52.3666 97.4208 52.4325 97.6167 52.5066 97.8181L53.4068 100.213V100.213Z" fill="white"/>
<path d="M140.519 68.9614C142.182 65.0587 143.027 60.9165 143.027 56.6436C143.027 52.3708 142.184 48.2285 140.519 44.3258C138.91 40.5565 136.61 37.1736 133.679 34.2669C130.748 31.3603 127.336 29.0796 123.535 27.4848C119.602 25.8355 115.422 25 111.113 25C106.805 25 102.627 25.8355 98.6917 27.4875C94.8905 29.0823 91.479 31.363 88.5479 34.2696C85.6167 37.1763 83.3168 40.5592 81.7085 44.3285C80.0453 48.2313 79.2 52.3735 79.2 56.6463C79.2 60.9192 80.0425 65.0614 81.7085 68.9641C83.3168 72.7335 85.6167 76.1164 88.5479 79.023C91.479 81.9297 94.8905 84.2103 98.6917 85.8052C102.627 87.4544 106.805 88.2927 111.113 88.2927C115.422 88.2927 119.6 87.4571 123.535 85.8052C127.336 84.2103 130.748 81.9297 133.679 79.023C136.61 76.1164 138.91 72.7335 140.519 68.9641V68.9614ZM123.236 85.0948C119.397 86.706 115.318 87.5225 111.116 87.5225C106.914 87.5225 102.833 86.706 98.9963 85.0948C95.2885 83.5408 91.9593 81.3119 89.0995 78.476C86.2397 75.6401 83.9947 72.3389 82.4248 68.662C80.8 64.8546 79.9767 60.8103 79.9767 56.6436C79.9767 52.4769 80.8 48.4299 82.4248 44.6252C83.9919 40.9484 86.2397 37.6471 89.0995 34.8112C91.9593 31.9754 95.2885 29.7491 98.9963 28.1924C102.836 26.5812 106.914 25.7648 111.116 25.7648C115.318 25.7648 119.399 26.5812 123.236 28.1924C126.944 29.7464 130.273 31.9754 133.133 34.8112C135.993 37.6471 138.238 40.9484 139.808 44.6252C141.432 48.4327 142.256 52.4769 142.256 56.6436C142.256 60.8103 141.432 64.8573 139.808 68.662C138.241 72.3389 135.993 75.6401 133.133 78.476C130.273 81.3119 126.944 83.5381 123.236 85.0948Z" fill="white"/>
<path d="M124.145 70.8584H98.0852V71.7293H124.145V70.8584Z" fill="white"/>
<path d="M123.653 62.71L111.369 41.0573H110.175L98.0825 63.5836L99.109 63.5782L110.743 41.9309H110.801L122.654 62.71H104.782L104.337 63.5836H124.147L123.667 62.71H123.653Z" fill="white"/>
</g>
<defs>
<clipPath id="clip0_1317_3314">
<rect width="128" height="78" fill="white" transform="translate(49.6001 25)"/>
</clipPath>
</defs>
</svg>
