<svg width="228" height="128" viewBox="0 0 228 128" fill="none" xmlns="http://www.w3.org/2000/svg">
<g clip-path="url(#clip0_1317_3388)">
<path d="M25.2002 78.8693H30.6398L40.6219 54.3769L50.6039 78.8693H56.0489L43.2439 48H38.2034L25.2002 78.8693Z" fill="white"/>
<path d="M66.738 78.8693H71.8804V57.0702L81.0562 71.0509L90.6339 57.0702V78.8693H95.9797V48H90.3312L81.3589 62.663L72.2821 48H66.738V78.8693Z" fill="white"/>
<path d="M127.134 62.7869C131.671 60.9217 131.47 56.3659 131.47 56.3659C131.671 48.3907 122.294 48.2284 122.294 48.2284H108.38V53.1527L121.287 53.0482C126.63 53.2545 126.127 57.1913 126.127 57.1913C126.63 61.2298 121.185 61.2298 121.185 61.2298H108.38V78.641L124.212 78.63C130.766 78.9409 132.782 72.8309 132.782 72.8309C134.697 64.6493 127.137 62.7841 127.137 62.7841L127.134 62.7869ZM127.739 69.7772C127.739 72.0276 125.947 73.868 123.757 73.868H113.523V65.6864H123.757C125.947 65.6864 127.739 67.5269 127.739 69.7772V69.7772Z" fill="white"/>
<path d="M167.065 48H144.982V53.0812H167.065V48Z" fill="white"/>
<path d="M144.982 60.7731V65.6864V73.868V78.6438H149.747H167.065V73.868H149.747V65.6864H167.065V60.7731H149.747H144.982Z" fill="white"/>
<path d="M203.2 77.2875L196.47 67.5681C198.288 67.0592 199.761 66.1376 200.862 64.8088C202.957 62.2806 202.882 59.2408 202.817 58.4182C202.828 55.3233 201.941 52.8281 200.184 51.0014C197.565 48.2806 194.073 48.2036 193.682 48.2036H179.162V52.8804H193.682C193.7 52.8804 195.647 52.9409 196.946 54.2916C197.841 55.2215 198.283 56.6355 198.261 58.4952L198.251 58.597L198.275 58.7758C198.275 58.7923 198.43 60.5557 197.37 61.8102C196.577 62.7456 195.219 63.2628 193.333 63.348H179.511V78.6438H184.064V68.0248H191.201L199.493 80L203.203 77.2903L203.2 77.2875Z" fill="white"/>
</g>
<defs>
<clipPath id="clip0_1317_3388">
<rect width="178" height="32" fill="white" transform="translate(25.2002 48)"/>
</clipPath>
</defs>
</svg>
