<svg width="228" height="128" viewBox="0 0 228 128" fill="none" xmlns="http://www.w3.org/2000/svg">
<g clip-path="url(#clip0_1317_3629)">
<path d="M37.0188 50.5V55.9675C36.3649 56.0953 35.7925 56.1829 35.2315 56.3194C31.5865 57.1997 29.0791 60.5948 29.2647 64.3835C29.449 68.1591 32.2263 71.2713 35.8966 71.8142C40.384 72.4777 44.3665 69.2693 44.8024 64.6592C44.8221 64.4466 45.0457 64.0833 45.1807 64.0804C46.8147 64.0402 48.4502 64.0546 50.149 64.0546C50.2924 65.3701 50.0252 66.5765 49.6863 67.7585C48.176 73.0278 43.7941 76.7316 38.3955 77.3449C38.2155 77.365 38.0411 77.4469 37.864 77.5014H36.1765C35.9768 77.4454 35.7785 77.3593 35.576 77.3391C30.1155 76.7719 25.4679 72.5811 24.236 67.0949C24.07 66.3553 23.9449 65.6056 23.8 64.8617V63.1383C23.8549 62.9329 23.9294 62.7304 23.959 62.5207C24.7507 56.8766 27.791 53.1066 33.049 51.2339C34.053 50.8763 35.1316 50.7384 36.175 50.5H37.0188Z" fill="white"/>
<path d="M50.2375 50.5C50.2263 53.3465 50.194 56.193 50.2179 59.0395C50.2235 59.713 50.0674 59.9486 49.3685 59.9356C46.8865 59.8926 44.4016 59.9198 41.9182 59.917C41.6665 59.917 41.4161 59.894 41.0969 59.8768V50.5H50.2375V50.5Z" fill="white"/>
<path d="M203.8 67.5905C203.1 69.986 201.303 70.8247 199.079 71.0674C196.703 71.3274 194.512 70.8707 192.604 69.3225C192.366 69.13 192.147 68.9117 191.927 68.6977C191.846 68.6188 191.787 68.5154 191.685 68.3789C192.142 67.971 192.578 67.5818 193.047 67.1654C193.265 67.3607 193.454 67.533 193.646 67.7039C195.455 69.3225 197.551 69.6399 199.826 69.0984C200.096 69.0338 200.359 68.9146 200.605 68.7825C201.431 68.3358 201.802 67.6005 201.695 66.6426C201.597 65.7579 201.037 65.2682 200.247 65.1016C198.988 64.8345 197.71 64.6693 196.45 64.4137C195.766 64.2743 195.07 64.1092 194.433 63.8277C191.645 62.594 191.929 58.8858 193.928 57.6163C194.681 57.138 195.579 56.789 196.454 56.6425C198.587 56.2835 200.663 56.5162 202.495 57.8475C202.833 58.0931 203.141 58.3817 203.502 58.6848C203.055 59.1673 202.66 59.5939 202.204 60.085C201.158 58.8772 199.867 58.3573 198.423 58.3214C197.593 58.2999 196.734 58.3846 195.932 58.5986C194.93 58.8657 194.458 59.6542 194.502 60.6351C194.541 61.5413 195.032 62.1574 196.078 62.38C197.473 62.6788 198.89 62.877 200.294 63.1283C201.978 63.4299 203.257 64.2528 203.8 66.0078V67.5876V67.5905Z" fill="white"/>
<path d="M113 64.3432H102.903C102.474 66.2189 103.42 68.1534 105.081 68.9002C107.257 69.8782 109.415 69.1673 110.975 66.9054C111.394 67.184 111.843 67.4339 112.221 67.7685C112.329 67.8633 112.314 68.2525 112.215 68.4191C111.319 69.9242 109.974 70.7773 108.288 71.0214C103.795 71.6735 100.66 68.9016 100.574 64.2599C100.545 62.6529 100.75 61.1076 101.511 59.68C102.789 57.2845 105.267 56.1054 107.994 56.5793C110.455 57.0059 112.37 59.005 112.79 61.6576C112.924 62.4978 112.928 63.3595 113.001 64.3432H113ZM110.681 62.7031C110.684 61.0185 110.231 59.6441 108.829 58.7738C107.508 57.9537 105.637 58.1002 104.398 59.0869C103.255 59.996 102.72 61.1865 102.817 62.7031H110.681Z" fill="white"/>
<path d="M186.883 66.9096C187.059 67.0202 187.239 67.1279 187.413 67.2457C188.535 68.0054 188.562 68.0959 187.616 69.14C185.816 71.1248 183.546 71.4925 181.102 70.8964C178.601 70.2875 177.223 68.4751 176.697 66.0077C176.212 63.73 176.365 61.4766 177.565 59.41C178.863 57.1724 181.422 56.0694 183.983 56.6008C186.555 57.1351 188.365 59.1371 188.733 61.883C188.812 62.4733 188.801 63.0765 188.868 63.6696C188.932 64.2297 188.69 64.3532 188.186 64.3504C185.329 64.3317 182.471 64.3418 179.614 64.3432C179.337 64.3432 179.061 64.3432 178.803 64.3432C178.333 65.9962 179.251 68.0212 180.776 68.7996C182.961 69.9155 185.2 69.229 186.883 66.9096V66.9096ZM186.579 62.6988C186.578 60.951 186.1 59.5378 184.591 58.699C183.194 57.9221 181.325 58.1605 180.117 59.229C179.087 60.141 178.621 61.2942 178.71 62.6988H186.579Z" fill="white"/>
<path d="M130.211 56.8263C131.353 56.8263 132.429 56.835 133.506 56.8235C134.521 56.812 134.792 56.5377 134.814 55.4979C134.833 54.5414 134.861 53.582 134.821 52.627C134.794 52.0152 135.016 51.8141 135.587 51.8658C135.977 51.9017 136.372 51.873 136.853 51.873V56.8048H143.078V58.6603H136.902V68.906C137.179 68.9203 137.428 68.9447 137.677 68.9447C139.294 68.9476 140.911 68.9591 142.527 68.9376C142.983 68.9318 143.148 69.0783 143.14 69.5508C143.113 71.0171 143.247 70.7931 141.966 70.8031C140.583 70.8146 139.201 70.8204 137.819 70.8003C135.812 70.773 134.787 69.7418 134.767 67.6881C134.742 65.0082 134.759 62.3283 134.759 59.647C134.759 59.3626 134.759 59.0782 134.759 58.7048H130.215V56.8249L130.211 56.8263Z" fill="white"/>
<path d="M157.606 70.7587H155.592V68.5312C155.386 68.7811 155.273 68.8758 155.211 68.9979C154.377 70.6122 152.985 71.1996 151.298 71.1306C149.537 71.0603 148.091 70.3249 147.355 68.6173C147.023 67.849 146.813 66.9657 146.793 66.1284C146.723 63.1872 146.758 60.243 146.758 57.3003C146.758 57.1639 146.802 57.026 146.83 56.8608H148.81C148.827 57.128 148.855 57.3793 148.855 57.6306C148.858 59.9989 148.855 62.3686 148.858 64.7368C148.858 65.1432 148.869 65.5511 148.903 65.9547C149.111 68.4881 150.633 69.6442 153.092 69.143C154.805 68.794 155.566 67.8432 155.567 66.0466C155.567 63.2705 155.567 60.4958 155.567 57.7197C155.567 57.4597 155.567 57.1983 155.567 56.8824H157.606V70.7587Z" fill="white"/>
<path d="M116.569 56.8608H118.677V58.949C118.802 58.9059 118.865 58.9045 118.878 58.8772C119.997 56.5434 121.97 56.2734 123.841 56.6123C125.836 56.9743 127.285 58.5612 127.375 60.7887C127.508 64.0804 127.408 67.3822 127.408 70.7931C126.818 70.7931 126.24 70.8333 125.674 70.7629C125.544 70.7457 125.368 70.3493 125.365 70.1253C125.343 67.5416 125.357 64.9565 125.345 62.3728C125.344 61.8974 125.317 61.4135 125.233 60.9467C124.949 59.377 124 58.465 122.446 58.4291C121.695 58.4119 120.9 58.5612 120.194 58.8269C119.185 59.2061 118.677 60.029 118.684 61.1751C118.701 63.9986 118.69 66.8221 118.688 69.6456C118.688 69.9974 118.688 70.3507 118.688 70.7945C118.046 70.7945 117.49 70.8031 116.936 70.7916C116.44 70.7816 116.572 70.3795 116.57 70.1009C116.562 67.5172 116.565 64.9321 116.565 62.3484C116.565 60.793 116.565 59.2377 116.565 57.6823C116.565 57.4267 116.565 57.171 116.565 56.8608H116.569Z" fill="white"/>
<path d="M161.586 70.7327V68.9619H165.564C165.564 67.2012 165.564 65.5108 165.564 63.8204C165.564 62.1301 165.564 60.4713 165.564 58.7105H161.593V56.8809H167.647V60.1654C167.705 60.1855 167.764 60.2056 167.821 60.2243C168.294 58.8944 169.018 57.8015 170.324 57.227C171.604 56.664 172.939 56.8507 174.32 56.8378V58.9691C173.375 58.9691 172.446 58.9504 171.52 58.9734C169.755 59.0179 168.342 60.039 167.866 61.5972C167.783 61.8701 167.698 62.1559 167.696 62.4374C167.682 64.5629 167.689 66.6885 167.689 68.9217H172.967V70.7313H161.589L161.586 70.7327Z" fill="white"/>
<path d="M72.0836 59.7159C71.545 60.0118 71.0388 60.2904 70.4819 60.5977C69.9883 59.535 69.2936 58.791 68.1911 58.488C65.5516 57.7627 63.258 59.4316 63.1554 62.2149C63.1132 63.3379 63.1104 64.4653 63.168 65.587C63.258 67.3406 64.2114 68.6001 65.7218 69.0855C67.4529 69.6399 69.1854 69.1587 70.2386 67.8188C70.4566 67.5416 70.6408 67.2357 70.8799 66.8853C71.3482 67.2099 71.808 67.5258 72.3115 67.8734C71.9768 68.7868 71.3904 69.4804 70.6591 70.0463C67.8747 72.1977 63.3972 71.1837 61.766 68.0428C60.1474 64.9249 60.7549 60.2186 62.974 57.9868C65.0313 55.9173 70.5199 55.6128 72.0836 59.7174V59.7159Z" fill="white"/>
<path d="M97.8376 56.8264C97.3693 58.1548 96.9348 59.3856 96.5017 60.615C95.3865 63.7875 94.2629 66.9571 93.1646 70.1354C93.0043 70.5978 92.8187 70.819 92.2871 70.8218C90.2467 70.829 90.241 70.8534 89.5435 68.8801C88.2174 65.126 86.8984 61.369 85.5793 57.6105C85.502 57.3908 85.4471 57.161 85.3501 56.8278C85.9956 56.8278 86.5749 56.7804 87.1388 56.8551C87.3259 56.8795 87.5467 57.194 87.6254 57.4209C88.7743 60.7845 89.9007 64.1551 91.0342 67.523C91.1888 67.984 91.3562 68.4421 91.6754 68.906C91.7865 68.6058 91.9032 68.3071 92.0059 68.0041C93.1717 64.5458 94.3571 61.0961 95.4779 57.622C95.6888 56.9671 95.9729 56.7345 96.6114 56.8177C96.9742 56.8651 97.3482 56.8264 97.839 56.8264H97.8376Z" fill="white"/>
<path d="M76.5317 54.6706C76.0831 54.5011 75.6711 54.346 75.207 54.1708C75.5755 52.8811 76.415 52.1171 77.6005 51.8787C78.3823 51.7207 79.2528 51.7078 80.0262 51.8858C82.0189 52.344 82.8641 54.7165 81.6308 56.4414C81.0345 57.2758 80.2077 57.9479 79.4384 58.6387C78.7466 59.2577 77.99 59.7991 77.2602 60.3751L77.3192 60.546H82.4605V61.817H75.3547C75.1733 60.9265 75.2591 60.2286 76.093 59.657C77.0802 58.9805 77.9942 58.1791 78.8788 57.3634C79.3892 56.8909 79.8758 56.3351 80.1992 55.7204C80.6802 54.8041 80.3933 53.7687 79.6972 53.3665C78.8802 52.894 77.5709 53.1382 77.0183 53.8793C76.8495 54.1047 76.7202 54.3589 76.5303 54.672L76.5317 54.6706Z" fill="white"/>
</g>
<defs>
<clipPath id="clip0_1317_3629">
<rect width="180" height="27" fill="white" transform="translate(23.8 50.5)"/>
</clipPath>
</defs>
</svg>
