<svg width="228" height="128" viewBox="0 0 228 128" fill="none" xmlns="http://www.w3.org/2000/svg">
<g clip-path="url(#clip0_1547_5194)">
<path d="M111.174 58.2262H113.408L118.537 71.4115H118.583L123.876 58.2262H125.969L119.453 74.2672H117.547L111.171 58.2262H111.174Z" fill="white"/>
<path d="M136.236 71.9367C135.578 72.8016 134.855 73.4054 134.072 73.7496C133.287 74.0937 132.378 74.2658 131.343 74.2658C130.481 74.2658 129.704 74.1101 129.015 73.797C128.324 73.4855 127.74 73.0642 127.261 72.5361C126.783 72.0079 126.414 71.3834 126.155 70.6639C125.896 69.9444 125.767 69.1759 125.767 68.3585C125.767 67.4937 125.908 66.6985 126.19 65.9701C126.472 65.2417 126.865 64.6172 127.366 64.0979C127.868 63.5787 128.464 63.1737 129.154 62.8859C129.845 62.5981 130.596 62.4542 131.413 62.4542C132.182 62.4542 132.887 62.5863 133.529 62.8503C134.172 63.1144 134.726 63.4986 135.188 64.003C135.65 64.5074 136.008 65.123 136.258 65.8514C136.508 66.5798 136.634 67.4076 136.634 68.3363V68.9371H127.743C127.773 69.4178 127.888 69.8776 128.084 70.3182C128.28 70.7588 128.535 71.1431 128.849 71.4709C129.163 71.7988 129.531 72.0584 129.955 72.2512C130.378 72.4426 130.84 72.539 131.343 72.539C132.143 72.539 132.817 72.3951 133.367 72.1073C133.916 71.8195 134.409 71.3953 134.849 70.8345L136.238 71.9382L136.236 71.9367ZM134.66 67.3512C134.628 66.3914 134.323 65.623 133.743 65.0459C133.163 64.4703 132.362 64.181 131.343 64.181C130.324 64.181 129.5 64.4688 128.874 65.0459C128.246 65.6215 127.869 66.3899 127.744 67.3512H134.66Z" fill="white"/>
<path d="M138.997 65.6957C138.997 65.1839 138.981 64.7032 138.95 64.2552C138.918 63.8072 138.904 63.3992 138.904 63.0313H140.645C140.645 63.3354 140.652 63.6396 140.668 63.9437C140.684 64.2478 140.692 64.5593 140.692 64.8798H140.738C140.863 64.6083 141.04 64.3442 141.267 64.0876C141.494 63.8324 141.764 63.604 142.078 63.4037C142.392 63.2034 142.744 63.0432 143.137 62.923C143.529 62.8029 143.952 62.7435 144.407 62.7435C145.128 62.7435 145.752 62.8563 146.278 63.0803C146.803 63.3043 147.239 63.6173 147.583 64.0164C147.928 64.4169 148.184 64.9005 148.348 65.4687C148.512 66.0369 148.595 66.657 148.595 67.329V74.2673H146.76V67.5204C146.76 66.5769 146.557 65.8322 146.148 65.2877C145.74 64.7433 145.105 64.4718 144.243 64.4718C143.647 64.4718 143.134 64.5756 142.702 64.7833C142.27 64.991 141.917 65.2877 141.644 65.672C141.369 66.0562 141.165 66.5116 141.032 67.0397C140.898 67.5679 140.831 68.1524 140.831 68.7917V74.2658H138.997V65.6957Z" fill="white"/>
<path d="M157.711 64.3264H154.046V69.9444C154.046 70.3123 154.053 70.652 154.069 70.965C154.085 71.2766 154.148 71.5495 154.257 71.781C154.366 72.0139 154.532 72.1978 154.751 72.3328C154.971 72.4693 155.285 72.5375 155.692 72.5375C155.958 72.5375 156.232 72.5064 156.514 72.4411C156.796 72.3773 157.064 72.2809 157.314 72.1533L157.385 73.8579C157.071 74.0017 156.722 74.1056 156.339 74.1694C155.955 74.2332 155.59 74.2658 155.244 74.2658C154.585 74.2658 154.059 74.1783 153.668 74.0017C153.276 73.8252 152.97 73.5775 152.751 73.257C152.531 72.9366 152.386 72.5405 152.316 72.0688C152.245 71.597 152.21 71.0718 152.21 70.4962V64.3264H150.719V62.742H152.21V59.0956H154.045V62.742H157.709V64.3264H157.711Z" fill="white"/>
<path d="M169.344 71.3136C169.344 71.8254 169.36 72.306 169.39 72.7541C169.421 73.2021 169.437 73.61 169.437 73.9779H167.696C167.696 73.6738 167.687 73.3697 167.672 73.0656C167.656 72.7615 167.649 72.4499 167.649 72.1295H167.602C167.476 72.4025 167.3 72.6665 167.073 72.9217C166.845 73.1783 166.575 73.4053 166.262 73.6056C165.948 73.8059 165.595 73.9661 165.204 74.0862C164.812 74.2064 164.389 74.2657 163.934 74.2657C163.213 74.2657 162.589 74.153 162.063 73.929C161.536 73.705 161.102 73.3934 160.757 72.9929C160.413 72.5924 160.157 72.1087 159.993 71.5406C159.828 70.9724 159.746 70.3523 159.746 69.6803V62.7419H161.58V69.4889C161.58 70.4339 161.784 71.1771 162.192 71.7215C162.599 72.266 163.234 72.5375 164.098 72.5375C164.694 72.5375 165.207 72.4336 165.639 72.2259C166.07 72.0182 166.422 71.7215 166.697 71.3373C166.972 70.9531 167.175 70.4977 167.309 69.9695C167.443 69.4414 167.509 68.8569 167.509 68.2175V62.7434H169.344V71.3136Z" fill="white"/>
<path d="M172.898 65.6957C172.898 65.1839 172.882 64.7032 172.852 64.2552C172.82 63.8072 172.805 63.3992 172.805 63.0313H174.547C174.547 63.3354 174.554 63.6396 174.57 63.9437C174.586 64.2478 174.593 64.5593 174.593 64.8798H174.64C174.765 64.6083 174.942 64.3442 175.169 64.0876C175.396 63.8324 175.666 63.604 175.98 63.4037C176.294 63.2034 176.646 63.0432 177.038 62.923C177.431 62.8029 177.854 62.7435 178.309 62.7435C178.434 62.7435 178.559 62.7524 178.685 62.7673C178.81 62.7836 178.935 62.8147 179.062 62.8637L178.944 64.7611C178.63 64.6647 178.301 64.6172 177.955 64.6172C176.826 64.6172 176.006 64.9895 175.497 65.7343C174.987 66.479 174.733 67.4981 174.733 68.7947V74.2688H172.898V65.6987V65.6957Z" fill="white"/>
<path d="M190.128 71.9367C189.47 72.8016 188.747 73.4054 187.964 73.7496C187.179 74.0937 186.27 74.2658 185.235 74.2658C184.373 74.2658 183.595 74.1101 182.906 73.797C182.216 73.4855 181.632 73.0642 181.153 72.5361C180.675 72.0079 180.306 71.3834 180.047 70.6639C179.788 69.9444 179.659 69.1759 179.659 68.3585C179.659 67.4937 179.8 66.6985 180.082 65.9701C180.364 65.2417 180.756 64.6172 181.258 64.0979C181.759 63.5787 182.355 63.1737 183.046 62.8859C183.736 62.5981 184.488 62.4542 185.305 62.4542C186.074 62.4542 186.779 62.5863 187.421 62.8503C188.064 63.1144 188.618 63.4986 189.08 64.003C189.542 64.5074 189.9 65.123 190.15 65.8514C190.4 66.5798 190.526 67.4076 190.526 68.3363V68.9371H181.634C181.665 69.4178 181.78 69.8776 181.976 70.3182C182.172 70.7588 182.427 71.1431 182.741 71.4709C183.055 71.7988 183.422 72.0584 183.847 72.2512C184.27 72.4426 184.732 72.539 185.235 72.539C186.035 72.539 186.709 72.3951 187.259 72.1073C187.808 71.8195 188.301 71.3953 188.741 70.8345L190.129 71.9382L190.128 71.9367ZM188.552 67.3512C188.52 66.3914 188.215 65.623 187.635 65.0459C187.055 64.4703 186.254 64.181 185.235 64.181C184.216 64.181 183.392 64.4688 182.765 65.0459C182.137 65.6215 181.761 66.3899 181.636 67.3512H188.552Z" fill="white"/>
<path d="M193.378 71.0243C193.739 71.4886 194.134 71.8565 194.566 72.128C194.998 72.401 195.543 72.536 196.201 72.536C196.483 72.536 196.77 72.5048 197.06 72.4396C197.351 72.3758 197.613 72.2719 197.848 72.128C198.084 71.9841 198.271 71.8046 198.412 71.588C198.553 71.3714 198.625 71.1118 198.625 70.8077C198.625 70.5036 198.558 70.2558 198.424 70.063C198.29 69.8716 198.114 69.707 197.895 69.5705C197.675 69.434 197.424 69.3272 197.142 69.2471C196.86 69.167 196.569 69.0958 196.271 69.0305C195.754 68.9192 195.259 68.7902 194.788 68.6463C194.317 68.5024 193.906 68.3139 193.553 68.0825C193.2 67.8511 192.918 67.5514 192.705 67.182C192.493 66.8141 192.388 66.3424 192.388 65.7653C192.388 65.2209 192.506 64.7417 192.742 64.3248C192.977 63.9094 193.291 63.5653 193.682 63.2923C194.075 63.0208 194.514 62.8117 194.999 62.6678C195.485 62.5239 195.988 62.4512 196.505 62.4512C197.289 62.4512 198.014 62.6114 198.681 62.9318C199.347 63.2523 199.869 63.7715 200.245 64.4925L198.716 65.525C198.481 65.1244 198.171 64.801 197.787 64.5533C197.403 64.3055 196.937 64.1809 196.387 64.1809C196.136 64.1809 195.882 64.2136 195.623 64.2774C195.364 64.3411 195.133 64.4376 194.929 64.5652C194.726 64.6927 194.557 64.8574 194.424 65.0577C194.29 65.2579 194.223 65.4864 194.223 65.7416C194.223 65.9819 194.297 66.1851 194.447 66.3543C194.595 66.5219 194.8 66.6702 195.059 66.7978C195.318 66.9254 195.616 67.0381 195.953 67.1346C196.29 67.231 196.639 67.3111 196.999 67.3749C197.485 67.4713 197.949 67.5945 198.388 67.7473C198.827 67.9001 199.21 68.1033 199.54 68.3599C199.87 68.6166 200.129 68.9355 200.317 69.3198C200.504 69.704 200.599 70.1757 200.599 70.7365C200.599 71.3774 200.474 71.9218 200.222 72.3683C199.971 72.8164 199.638 73.1813 199.222 73.4602C198.806 73.7406 198.335 73.9438 197.811 74.0729C197.284 74.2005 196.748 74.2643 196.198 74.2643C195.258 74.2643 194.445 74.1159 193.764 73.8207C193.082 73.524 192.466 72.9766 191.917 72.1755L193.375 71.0228L193.378 71.0243Z" fill="white"/>
<path d="M79.5705 66.8142C79.5705 64.0267 77.3566 61.7659 74.6238 61.7659C71.8909 61.7659 69.6771 64.0267 69.6771 66.8142C69.6771 69.6017 71.8909 71.8625 74.6238 71.8625C77.3566 71.8625 79.5705 69.6017 79.5705 66.8142ZM103.327 66.8142C103.324 71.2231 100.25 75.0061 96.0038 75.8249C91.7592 76.6438 87.5437 74.2658 85.9636 70.1624L89.3869 66.6688V66.8142C89.3898 69.2175 91.0557 71.284 93.3669 71.7513C95.6768 72.2171 97.988 70.9531 98.8878 68.7324C99.7876 66.5116 99.0259 63.951 97.0664 62.6159C95.1084 61.2808 92.4991 61.5433 90.8333 63.2419L81.0154 73.26C78.4556 75.914 74.5773 76.7239 71.2005 75.3087C67.8251 73.8949 65.6229 70.5363 65.6287 66.8127V53.936C65.697 52.8471 66.5823 52 67.6522 52C68.722 52 69.6058 52.8471 69.6756 53.936V59.0867C72.1657 57.4118 75.307 57.1077 78.0631 58.2722C80.8177 59.4368 82.8281 61.9187 83.4299 64.899L87.9725 60.2631C90.5513 57.6299 94.4354 56.8481 97.8005 58.2841C101.167 59.7201 103.349 63.0906 103.324 66.8142H103.327ZM64.2855 66.8142C64.2928 71.2276 61.2198 75.0209 56.9694 75.8398C52.7204 76.6602 48.502 74.2732 46.9306 70.1624L50.3539 66.6688V66.8142C50.3568 69.2175 52.0241 71.284 54.334 71.7513C56.6438 72.2171 58.9551 70.9531 59.8549 68.7324C60.7547 66.5116 59.993 63.951 58.0335 62.6159C56.0754 61.2808 53.4661 61.5433 51.8003 63.2419L41.949 73.303C38.437 76.8871 32.7431 76.8856 29.2312 73.303C25.7192 69.7189 25.7192 63.908 29.2312 60.3239C32.7431 56.7398 38.4356 56.7398 41.949 60.3239C42.4956 60.8402 42.7223 61.622 42.5363 62.3593C42.3502 63.0965 41.7833 63.6692 41.0608 63.8516C40.3369 64.0341 39.5738 63.7982 39.0723 63.2345C37.1389 61.2689 34.0092 61.2718 32.0803 63.2434C30.1513 65.2135 30.1513 68.4075 32.0803 70.3775C34.0092 72.3491 37.1375 72.3521 39.0723 70.3864L48.941 60.2883C51.5154 57.6551 55.3922 56.8703 58.7559 58.3004C62.1196 59.7305 64.3044 63.0936 64.2841 66.8127L64.2855 66.8142Z" fill="white"/>
</g>
<defs>
<clipPath id="clip0_1547_5194">
<rect width="174" height="24" fill="white" transform="translate(26.6001 52)"/>
</clipPath>
</defs>
</svg>
