<svg width="228" height="128" viewBox="0 0 228 128" fill="none" xmlns="http://www.w3.org/2000/svg">
<g clip-path="url(#clip0_1317_3363)">
<path d="M143.169 51H142.679V77H143.169V51Z" fill="white"/>
<path d="M153.632 64.5479C153.581 61.7477 155.809 59.436 158.606 59.3855C158.681 59.3855 158.756 59.3855 158.831 59.3855C160.303 59.3078 161.737 59.87 162.767 60.9276L161.369 62.5323C160.7 61.8391 159.785 61.4352 158.823 61.4093C157.191 61.442 155.893 62.793 155.926 64.4264C155.926 64.4578 155.927 64.4892 155.929 64.5206C155.835 66.1568 157.085 67.5596 158.719 67.6537C158.753 67.6551 158.789 67.6565 158.823 67.6578C159.821 67.6524 160.77 67.2293 161.44 66.4897L162.883 67.9335C160.96 70.1155 157.634 70.3229 155.456 68.3988C154.358 67.4299 153.713 66.0462 153.677 64.582L153.632 64.5465V64.5479Z" fill="white"/>
<path d="M168.867 59.4592H170.897L175.17 69.5137H172.873L171.983 67.2771H167.763L166.873 69.5137H164.629L168.867 59.4592V59.4592ZM171.173 65.3325L169.847 62.097L168.521 65.3325H171.173Z" fill="white"/>
<path d="M177.833 59.5302H181.91C184.288 59.5302 185.73 60.9384 185.73 62.9799C185.73 65.297 183.95 66.491 181.696 66.491H180.032V69.4864H177.833V59.5302ZM181.768 64.5656C182.618 64.6693 183.391 64.0634 183.493 63.2132C183.5 63.1587 183.504 63.1041 183.504 63.0509C183.504 62.0711 182.828 61.5361 181.723 61.5361H180.032V64.5929L181.768 64.5656V64.5656Z" fill="white"/>
<path d="M189.16 59.5302H191.377V69.5123H189.178L189.16 59.5302V59.5302Z" fill="white"/>
<path d="M197.886 61.5525H194.85V59.5288H203.112V61.5525H200.076V69.5123H197.886V61.5525Z" fill="white"/>
<path d="M208.357 59.4592H210.378L214.652 69.5137H212.363L211.473 67.2771H207.225L206.335 69.5137H204.101L208.357 59.4592V59.4592ZM210.663 65.3325L209.337 62.097L208.011 65.3325H210.663Z" fill="white"/>
<path d="M217.332 59.5302H219.523V67.5514H224.5V69.5478H217.377L217.332 59.5288V59.5302Z" fill="white"/>
<path d="M14.1849 51.6237L3.5 57.8095V70.1892L14.1849 76.375L24.8699 70.1892V57.8095L14.1849 51.6237ZM23.9797 69.6461L14.1849 75.2888L4.39018 69.6461V58.3539L14.1849 52.7113L23.9797 58.3539V69.6475V69.6461Z" fill="white"/>
<path d="M18.4054 56.9716H9.99161L9.021 61.2592H19.421L18.4054 56.9716Z" fill="white"/>
<path d="M11.4872 67.168V64.3159L8.99389 62.7302L6.17065 64.8331L10.0177 71.5265H11.5499L13.3657 69.833V68.9774L11.4872 67.168Z" fill="white"/>
<path d="M16.9455 61.91H11.4954L12.4128 64.3077L12.1279 66.9987H14.2123L16.3048 66.9905L16.0458 64.3077L16.9455 61.91Z" fill="white"/>
<path d="M19.4387 62.7125L16.9713 64.3159V67.168L15.0928 68.9775V69.8331L16.9004 71.5006H18.4231L22.2429 64.8331L19.4387 62.7125Z" fill="white"/>
<path d="M36.9165 69.7171C34.2324 69.7512 32.0267 67.6019 31.9926 64.9136C31.9926 64.8686 31.9926 64.8235 31.9926 64.7785C31.949 62.0616 34.1124 59.8236 36.8266 59.7786C36.862 59.7786 36.8988 59.7786 36.9343 59.7786C38.3847 59.7172 39.7848 60.3203 40.7363 61.4188L39.3826 62.8803C38.7801 62.1353 37.8749 61.6999 36.9165 61.6945C35.3393 61.7545 34.1097 63.0837 34.1697 64.6625C34.1697 64.6884 34.1724 64.7157 34.1737 64.7417C34.0701 66.3383 35.2793 67.7165 36.8743 67.8202C36.9234 67.823 36.9738 67.8257 37.0229 67.8257C37.9771 67.7984 38.8755 67.3631 39.4889 66.6317L40.8072 67.9335C39.8611 69.1057 38.4202 69.7662 36.9165 69.7157V69.7171Z" fill="white"/>
<path d="M44.9487 69.7171H42.7676V59.7977H44.9487V62.1243C45.4231 60.6779 46.8041 59.7254 48.3227 59.7977V62.1066H48.1987C46.2847 62.1066 44.9487 63.3539 44.9487 65.877V69.7184V69.7171Z" fill="white"/>
<path d="M59.7466 59.7799L54.9207 72.4012H52.7123L53.7634 69.7266L49.6328 59.7799H51.9557L54.779 67.1243L57.485 59.7799H59.7466Z" fill="white"/>
<path d="M66.7193 69.717C65.431 69.728 64.2232 69.0961 63.4966 68.0331V72.3917H61.28V59.7799H63.4612V61.5621C64.1578 60.4513 65.3751 59.7785 66.6838 59.7799C68.9372 59.7799 71.1361 61.5621 71.1361 64.7444C71.1361 67.9267 68.955 69.7184 66.7193 69.7184V69.717ZM66.2203 61.6958C64.6417 61.7354 63.3957 63.0495 63.4353 64.6284C63.4353 64.6734 63.438 64.7171 63.4421 64.7621C63.333 66.3437 64.5259 67.7138 66.1058 67.8229C66.144 67.8257 66.1822 67.827 66.2203 67.8284C67.7581 67.7725 68.9604 66.4788 68.9032 64.9382C68.9004 64.8795 68.8963 64.8208 68.8909 64.7621C69.034 63.2187 67.8998 61.85 66.358 61.7067C66.3008 61.7013 66.2422 61.6972 66.1849 61.6958H66.2203V61.6958Z" fill="white"/>
<path d="M75.9075 61.8568V66.5279C75.8189 67.0969 76.2074 67.6305 76.7758 67.7192C76.874 67.7342 76.9749 67.7356 77.073 67.7219H77.9632V69.7184H76.4405C74.8469 69.7184 73.7699 69.0047 73.7699 66.9195V61.8568H72.5144V59.9764H73.7249V57.3645H75.9061V59.9764H77.9278V61.8568H75.9061H75.9075Z" fill="white"/>
<path d="M84.8394 69.7171C82.1157 69.7867 79.8527 67.6319 79.7832 64.9054C79.7832 64.8604 79.7818 64.8154 79.7818 64.7703C79.7028 61.9606 81.9153 59.6189 84.7222 59.5398C87.529 59.4606 89.8683 61.6754 89.9474 64.4851C90.0265 67.2949 87.8139 69.6366 85.0071 69.7157C84.9512 69.7171 84.8953 69.7184 84.8394 69.7171V69.7171ZM84.8394 61.6959C83.2608 61.6877 81.9739 62.9622 81.9657 64.5425C81.9657 64.6093 81.9671 64.6776 81.9712 64.7444C81.8921 66.3669 83.1422 67.7466 84.763 67.8257C84.7999 67.8271 84.8367 67.8284 84.8735 67.8284C86.4575 67.8407 87.7512 66.5675 87.7635 64.9819C87.7635 64.915 87.7635 64.8468 87.758 64.7799C87.8317 63.1519 86.5734 61.7723 84.9471 61.6986C84.9103 61.6972 84.8735 61.6959 84.8367 61.6959H84.8394Z" fill="white"/>
<path d="M110.803 69.717C108.085 69.7866 105.825 67.636 105.757 64.9149C105.757 64.8672 105.755 64.8194 105.755 64.7703C105.682 61.966 107.893 59.6311 110.696 59.5575C113.497 59.4838 115.829 61.6972 115.903 64.5028C115.977 67.3071 113.765 69.642 110.963 69.7156C110.91 69.717 110.858 69.717 110.805 69.717H110.803ZM110.803 61.6958C109.225 61.6876 107.938 62.9622 107.93 64.5424C107.93 64.6093 107.931 64.6775 107.935 64.7444C107.856 66.3669 109.106 67.7465 110.727 67.8257C110.764 67.827 110.8 67.8284 110.837 67.8284C112.421 67.8407 113.715 66.5675 113.727 64.9818C113.727 64.9149 113.727 64.8467 113.722 64.7798C113.795 63.1518 112.537 61.7722 110.911 61.6985C110.874 61.6972 110.837 61.6958 110.8 61.6958H110.803Z" fill="white"/>
<path d="M128.878 59.7799C130.943 59.7799 132.208 61.0995 132.208 63.4248V69.717H130.027V64.0934C130.027 62.5787 129.324 61.7668 128.096 61.7668C126.867 61.7668 126.066 62.5951 126.066 64.1289V69.717H123.885V64.0743C123.885 62.5951 123.163 61.7654 121.953 61.7654C120.742 61.7654 119.914 62.6565 119.914 64.1453V69.7156H117.732V59.7799H119.914V61.4202C120.531 60.4062 121.63 59.7853 122.816 59.7799C124.009 59.7253 125.121 60.383 125.647 61.4556C126.382 60.3967 127.591 59.7703 128.879 59.7799H128.878Z" fill="white"/>
<path d="M93.9306 67.7206V68.8259C93.9334 68.8737 93.9088 68.9187 93.8679 68.9419L92.915 69.4946C92.8755 69.5123 92.8305 69.5123 92.791 69.4946L91.8381 68.9419C91.7999 68.916 91.7768 68.8723 91.7754 68.8259V67.7206C91.7754 67.6769 91.7999 67.636 91.8381 67.6142L92.791 67.0615C92.8278 67.0342 92.8782 67.0342 92.915 67.0615L93.8679 67.6142C93.9088 67.6333 93.9347 67.6756 93.9306 67.7206Z" fill="white"/>
<path d="M100.554 69.7171C97.8689 69.6994 95.7082 67.5051 95.7259 64.8181C95.7259 64.7731 95.7259 64.7267 95.7287 64.6817C95.7382 61.9647 97.9453 59.7691 100.659 59.7772C100.696 59.7772 100.732 59.7772 100.768 59.7786C102.222 59.7459 103.609 60.3763 104.543 61.4898L103.225 62.9159C102.618 62.1558 101.704 61.7082 100.732 61.6945C99.1435 61.7327 97.8866 63.0523 97.9248 64.6407C97.9248 64.6598 97.9248 64.6789 97.9262 64.698C97.8021 66.3028 99.0018 67.7043 100.605 67.8285C100.644 67.8312 100.683 67.8339 100.722 67.8353C101.676 67.8244 102.582 67.4095 103.215 66.6945L104.506 68.0141C103.529 69.1726 102.065 69.8031 100.553 69.7171H100.554Z" fill="white"/>
</g>
<defs>
<clipPath id="clip0_1317_3363">
<rect width="221" height="26" fill="white" transform="translate(3.5 51)"/>
</clipPath>
</defs>
</svg>
