<svg width="228" height="128" viewBox="0 0 228 128" fill="none" xmlns="http://www.w3.org/2000/svg">
<path d="M60.0222 49H54.6272V79H60.0222V49Z" fill="white"/>
<path fill-rule="evenodd" clip-rule="evenodd" d="M29 49C40.1738 49 49.2323 55.7153 49.2323 64C49.2323 72.2847 40.3541 78.8659 29.3345 78.9981L29 79V73.7828C37.1938 73.7828 43.8364 69.4028 43.8364 64C43.8364 58.5972 37.1938 54.2172 29 54.2172V49Z" fill="white"/>
<path d="M80.304 58.8438L85.2094 70.8062L90.141 58.8438H95.8811L87.3112 78.4947H83.1067L74.563 58.8438H80.3031H80.304ZM105.793 69.8678C105.631 69.2078 105.298 68.6772 104.795 68.2778C104.292 67.8784 103.681 67.6787 102.963 67.6787C102.209 67.6787 101.593 67.87 101.117 68.2525C100.641 68.635 100.34 69.1731 100.215 69.8687H105.794L105.793 69.8678ZM100.079 72.6044C100.079 74.6369 101.067 75.6541 103.043 75.6541C104.103 75.6541 104.903 75.2369 105.442 74.4034H110.158C109.206 77.4616 106.825 78.9906 103.016 78.9906C101.848 78.9906 100.78 78.8209 99.8093 78.4825C98.8389 78.1441 98.0081 77.6612 97.3159 77.0359C96.6237 76.4106 96.0895 75.6634 95.7124 74.7944C95.3353 73.9253 95.1463 72.9522 95.1463 71.875C95.1463 70.7978 95.3256 69.76 95.6853 68.8647C96.0449 67.9703 96.5568 67.21 97.2218 66.5837C97.8869 65.9584 98.6905 65.4766 99.6338 65.1372C100.577 64.7987 101.642 64.6291 102.827 64.6291C104.013 64.6291 105.046 64.7987 105.981 65.1372C106.915 65.4756 107.705 65.9669 108.352 66.61C108.999 67.2531 109.493 68.0387 109.834 68.9687C110.176 69.8987 110.346 70.945 110.346 72.1094V72.6044H100.078H100.079ZM112.874 65.1241H117.752V66.8181C118.417 66.0362 119.091 65.5103 119.773 65.2413C120.456 64.9722 121.255 64.8372 122.171 64.8372C123.142 64.8372 123.973 64.9891 124.665 65.2928C125.357 65.5966 125.945 66.0269 126.43 66.5828C126.826 67.0347 127.095 67.5381 127.239 68.0941C127.382 68.65 127.454 69.2847 127.454 69.9962V78.4928H122.576V71.7428C122.576 71.0828 122.526 70.5484 122.427 70.1397C122.329 69.7309 122.153 69.4056 121.902 69.1619C121.687 68.9537 121.443 68.8056 121.174 68.7184C120.904 68.6312 120.616 68.5881 120.311 68.5881C119.484 68.5881 118.851 68.8272 118.411 69.3053C117.971 69.7834 117.751 70.465 117.751 71.3509V78.4919H112.873V65.125L112.874 65.1241ZM135.963 69.0597V78.4947H131.085V69.0597H129.468V65.1241H131.085V61.1106H135.963V65.1241H138.738V69.0597H135.963V69.0597ZM145.2 65.1241V72.6559C145.2 74.3069 146.027 75.1319 147.68 75.1319C149.332 75.1319 150.159 74.3069 150.159 72.6559V65.1241H155.038V73.5681C155.038 75.3747 154.422 76.7303 153.192 77.6341C151.961 78.5378 150.123 78.9897 147.68 78.9897C145.237 78.9897 143.399 78.5378 142.169 77.6341C140.938 76.7303 140.323 75.3756 140.323 73.5681V65.1241H145.202H145.2ZM158.102 65.1241H162.98V67.3131C163.501 66.5134 164.139 65.9012 164.894 65.4756C165.648 65.05 166.529 64.8372 167.535 64.8372H167.953C168.106 64.8372 168.28 64.855 168.478 64.8897V69.3981C167.831 69.085 167.13 68.9294 166.376 68.9294C165.244 68.9294 164.396 69.2547 163.83 69.9072C163.263 70.5587 162.98 71.5103 162.98 72.7609V78.4947H158.102V65.125V65.1241ZM180.679 69.8678C180.518 69.2078 180.185 68.6772 179.682 68.2778C179.179 67.8784 178.568 67.6787 177.85 67.6787C177.095 67.6787 176.48 67.87 176.004 68.2525C175.528 68.635 175.226 69.1731 175.101 69.8687H180.68L180.679 69.8678ZM174.966 72.6044C174.966 74.6369 175.953 75.6541 177.93 75.6541C178.99 75.6541 179.79 75.2369 180.329 74.4034H185.045C184.093 77.4616 181.712 78.9906 177.903 78.9906C176.735 78.9906 175.666 78.8209 174.696 78.4825C173.726 78.1441 172.895 77.6612 172.204 77.0359C171.511 76.4106 170.977 75.6634 170.6 74.7944C170.223 73.9253 170.034 72.9522 170.034 71.875C170.034 70.7978 170.213 69.76 170.573 68.8647C170.933 67.9703 171.445 67.21 172.11 66.5837C172.775 65.9584 173.578 65.4766 174.522 65.1372C175.465 64.7987 176.529 64.6291 177.715 64.6291C178.901 64.6291 179.934 64.7987 180.868 65.1372C181.803 65.4756 182.593 65.9669 183.24 66.61C183.886 67.2531 184.381 68.0387 184.722 68.9687C185.063 69.8987 185.234 70.945 185.234 72.1094V72.6044H174.966ZM196.923 68.5647C196.025 68.1128 195.145 67.8869 194.283 67.8869C193.834 67.8869 193.469 67.9741 193.191 68.1475C192.913 68.3209 192.773 68.5562 192.773 68.8516C192.773 69.0081 192.796 69.1337 192.84 69.2294C192.885 69.325 192.984 69.4159 193.137 69.5031C193.29 69.5903 193.514 69.6681 193.811 69.7375C194.107 69.8069 194.498 69.8941 194.983 69.9981C196.33 70.2587 197.336 70.7237 198.002 71.3922C198.667 72.0616 198.999 72.9166 198.999 73.9591C198.999 74.7409 198.837 75.445 198.514 76.0703C198.191 76.6956 197.742 77.2216 197.167 77.6472C196.592 78.0728 195.9 78.4028 195.091 78.6372C194.283 78.8716 193.394 78.9887 192.423 78.9887C190.555 78.9887 188.713 78.4759 186.898 77.4512L188.677 74.1156C190.043 75.0194 191.337 75.4712 192.558 75.4712C193.007 75.4712 193.375 75.3756 193.663 75.1844C193.951 74.9931 194.095 74.7503 194.095 74.455C194.095 74.2816 194.072 74.1381 194.028 74.0247C193.983 73.9112 193.888 73.8072 193.745 73.7116C193.601 73.6159 193.39 73.5287 193.112 73.4509C192.833 73.3731 192.469 73.2906 192.02 73.2034C190.511 72.9081 189.455 72.4694 188.854 71.8872C188.252 71.305 187.951 70.5016 187.951 69.4759C187.951 68.7287 188.095 68.0556 188.383 67.4566C188.671 66.8575 189.084 66.3494 189.623 65.9322C190.162 65.515 190.813 65.1934 191.577 64.9675C192.341 64.7416 193.189 64.6291 194.124 64.6291C195.651 64.6291 197.133 64.9159 198.571 65.4887L196.926 68.5637L196.923 68.5647Z" fill="white"/>
</svg>
