<svg width="228" height="128" viewBox="0 0 228 128" fill="none" xmlns="http://www.w3.org/2000/svg">
<g clip-path="url(#clip0_1287_3647)">
<path d="M82.3972 42.8662C81.6517 46.4613 80.9449 49.8662 80.1958 53.493C74.1334 50.9683 68.1975 48.5 62.0296 45.9296V71.6514H59.6489V45.7078C53.4106 48.3556 47.4502 50.8838 41.2048 53.5352C40.4629 49.9542 39.7455 46.4789 39 42.8662H82.3972ZM78.6908 50.6409C79.1198 48.5564 79.489 46.7571 79.8618 44.9578H65.5953L65.5742 45.169C69.8679 46.9578 74.1615 48.75 78.6943 50.6373L78.6908 50.6409ZM42.7099 50.669L56.1324 44.9437H41.5108C41.9222 46.9085 42.302 48.7113 42.7134 50.6655L42.7099 50.669Z" fill="white"/>
<path d="M49.8484 60.2817H55.2533V62.5845H51.9302V79.7042H69.2419V62.7324C68.2854 62.6796 67.3254 62.6267 66.2916 62.5704V60.3204H71.7175V82.1549H49.8484V60.2817Z" fill="white"/>
<path d="M91.7756 43.6091L89.5461 43.0282C89.933 42.7148 90.0912 42.4753 90.2459 42.4753C93.453 42.5211 96.6811 42.3873 99.8601 42.7218C102.744 43.0246 104.516 44.9331 105.216 47.7746C106.816 54.2817 103.092 59.0986 96.4139 59.1444C94.6591 59.1549 92.9079 59.1584 91.1532 59.1373C90.689 59.1338 90.2248 59.0282 89.7642 58.9718L89.736 58.4683C90.3725 58.3098 91.0125 58.1549 91.7756 57.9648V43.6091ZM94.209 57.6232C97.7009 58.5141 100.008 57.9507 101.548 55.8627C103.37 53.3944 103.598 49.0106 101.995 46.412C100.187 43.4859 97.3563 43.2606 94.209 43.5493V57.6232Z" fill="white"/>
<path d="M173.306 49.3592H168.407V57.9718C169.012 58.1479 169.61 58.3204 170.211 58.493L170.141 58.9331H164.606L164.532 58.6373C165.074 58.4084 165.615 58.1796 166.143 57.9577V49.3662L164.332 49.2183C164.251 49.0845 164.173 48.9542 164.093 48.8204C164.683 48.4401 165.274 48.0599 166.132 47.507C167.901 42.3979 168.871 41.4754 175.18 42.2324V57.8873L177.114 58.6056C177.093 58.7254 177.072 58.8415 177.051 58.9613H171.962C173.759 58.2606 173.302 56.7711 173.309 55.4789C173.32 53.5035 173.309 51.5282 173.309 49.3556L173.306 49.3592ZM167.809 47.9894H173.169V43.8134C171.776 43.9401 170.208 43.6408 169.35 44.2852C168.502 44.9225 168.372 46.507 167.809 47.9894Z" fill="white"/>
<path d="M128.703 59.2993C126.825 57.3239 126.839 57.2535 129.325 55.1127C127.092 53.1725 126.677 51.5845 127.94 49.7922C129.473 47.6162 132.328 47.1584 135.032 48.6021C135.918 48.2007 136.755 47.8239 137.831 47.338V49.3274C136.488 49.2817 135.89 49.7359 135.968 51.2605C136.066 53.1655 134.357 54.5458 131.917 55.2535C130.964 55.5282 130.116 56.169 129.223 56.6408L129.385 57.2958C129.954 57.4296 130.521 57.6514 131.094 57.676C132.377 57.7359 133.689 57.5493 134.944 57.7535C135.778 57.8873 136.98 58.3591 137.202 58.9753C137.501 59.7958 137.35 61.1901 136.798 61.8345C134.86 64.1056 132.402 65.4577 129.234 64.7394C127.961 64.4507 126.99 63.831 126.589 62.4859C126.188 61.1514 127.127 60.6021 127.954 59.9577C128.182 59.7782 128.39 59.5739 128.699 59.2993H128.703ZM132.363 59.4296C131.896 59.4296 131.424 59.4683 130.96 59.4225C129.445 59.2746 128.674 60.3451 128.632 61.4577C128.608 62.0915 129.701 63.2429 130.398 63.331C131.628 63.4824 133.067 63.25 134.167 62.6866C134.818 62.3556 134.983 61.081 135.366 60.2324C134.656 59.9648 133.956 59.6725 133.235 59.4472C132.968 59.3627 132.655 59.4331 132.363 59.4331V59.4296ZM133.935 51.8204C133.921 50.1303 132.852 48.7605 131.505 48.7148C130.229 48.669 129.339 49.6444 129.318 51.1091C129.293 52.8591 130.482 54.2958 131.945 54.1655C133.32 54.0422 134.02 53.2359 133.932 51.8204H133.935Z" fill="white"/>
<path d="M116.929 85.7007C117.425 85.5176 117.921 85.331 118.487 85.1197V71.2605L116.785 70.9612L116.711 70.5C117.808 70.1725 118.905 69.8486 120.15 69.4788C120.337 70.1725 120.477 70.6936 120.643 71.3239C121.205 70.9331 121.684 70.6162 122.141 70.2746C124.113 68.8063 126.571 69.2676 127.648 71.507C128.79 73.8873 128.928 76.426 127.335 78.6479C125.77 80.831 123.466 81.5 120.678 80.8979V85.2112C121.448 85.3345 122.211 85.4612 122.974 85.5845L122.949 85.9929H116.985L116.926 85.6936L116.929 85.7007ZM120.534 75.3028C120.534 76.1514 120.579 76.5669 120.527 76.9683C120.302 78.6725 121.058 79.6302 122.728 79.9084C124.395 80.1866 125.696 79.4014 125.889 77.8908C126.121 76.0633 126.002 74.0986 125.573 72.3063C125.246 70.9401 123.973 70.7394 122.566 71.3133C120.421 72.1936 120.316 73.8626 120.537 75.3028H120.534Z" fill="white"/>
<path d="M104.723 76.4014C104.442 79.5 101.766 81.3873 97.8873 81.2289C94.4271 81.0845 91.4697 78.8521 90.4253 75.5951C89.2332 71.8838 90.2776 67.838 93.1471 65.8204C95.8302 63.9331 98.7665 63.0528 102.054 64.2958C104.671 65.2817 104.822 65.4648 104.428 68.8873C103.858 68.4577 103.289 68.2465 103.092 67.8521C101.622 64.9014 98.0069 63.9542 95.1585 65.8345C92.9537 67.2887 91.8847 70.7183 92.602 74.0352C93.2667 77.1056 95.4856 79.4225 98.1757 79.8556C100.377 80.2113 101.85 79.4401 102.923 77.5176C103.25 76.9331 103.827 76.4859 104.287 75.9753L104.72 76.4084L104.723 76.4014Z" fill="white"/>
<path d="M152.555 49.6057C151.88 49.4719 151.366 49.3733 150.853 49.2712C150.839 49.1233 150.821 48.9754 150.807 48.8275C151.908 48.4965 153.008 48.1655 154.211 47.8028C154.412 48.5423 154.556 49.081 154.742 49.7676C155.558 49.2324 156.282 48.7571 157.007 48.2852C159.275 46.8134 161.416 47.7958 161.55 50.493C161.677 52.9824 161.578 55.4859 161.578 57.9226C162.306 58.1796 162.872 58.3803 163.438 58.581L163.4 58.9402H158.617C160.579 56.3909 159.366 53.4366 159.475 50.6444C159.489 50.2535 158.6 49.5528 158.051 49.4648C156.476 49.2148 154.658 50.9543 154.651 52.5282C154.647 53.6338 154.654 54.743 154.651 55.8486C154.644 57.0141 154.341 58.3028 155.931 58.9578H151.032L150.955 58.6374C151.482 58.3979 152.01 58.1585 152.565 57.9085V49.6057H152.555Z" fill="white"/>
<path d="M183.56 57.8521C184.429 55.2887 185.234 53.0599 185.909 50.7923C186.046 50.331 185.68 49.7254 185.519 49.0775H188.996C188.363 50.0775 187.6 50.9824 187.157 52.0247C185.491 55.9296 183.852 59.8486 182.354 63.8204C181.689 65.5845 180.641 65.9507 178.932 65.3979V63.3979C181.239 63.8169 181.549 61.8099 182.445 60.5071C182.575 60.3169 182.463 59.8909 182.357 59.6127C181.422 57.169 180.501 54.7183 179.498 52.2993C179.003 51.1021 179.048 49.4296 176.759 49.5845L177.167 49.0599H182.171L182.234 49.4014C181.805 49.5951 181.376 49.7852 180.792 50.0493C181.679 52.5493 182.565 55.0458 183.563 57.8521H183.56Z" fill="white"/>
<path d="M108.528 72.7747H107.034C106.619 71.6479 106.925 70.9859 108.04 70.6092C108.862 70.331 109.618 69.8557 110.431 69.5423C112.59 68.7078 114.352 69.7465 114.524 72.0212C114.636 73.5247 114.524 75.0458 114.577 76.5564C114.622 77.912 113.958 79.6303 116.666 79.7782L116.247 80.2993C115.407 80.5 114.566 80.7007 113.634 80.9261C113.318 80.3662 113.044 79.8838 112.681 79.243C112.066 79.6761 111.415 80.0423 110.877 80.5282C109.872 81.4366 108.697 81.419 107.878 80.6197C107.181 79.9402 106.738 78.824 106.573 77.8381C106.38 76.6761 107.167 75.9331 108.342 75.6197C109.239 75.3803 110.093 74.9578 110.997 74.7571C112.21 74.4859 112.808 73.9261 112.6 72.5951C112.453 71.662 112.302 70.8169 111.155 70.7712C109.97 70.7219 108.943 70.9895 108.736 72.419C108.722 72.5247 108.627 72.6162 108.528 72.7817V72.7747ZM112.442 75.2923C111.401 75.7183 110.272 75.9648 109.45 76.6021C108.933 77.0035 108.873 77.9965 108.606 78.7219C109.302 78.9331 110.086 79.4578 110.677 79.2958C112.52 78.7817 112.783 78.0423 112.442 75.2923Z" fill="white"/>
<path d="M149.654 53.3345C149.689 56.7888 147.055 59.4965 143.651 59.4965C140.771 59.4965 138.524 57.0106 138.499 53.7958C138.475 50.3592 141.112 47.6409 144.506 47.6092C147.326 47.5845 149.619 50.1374 149.654 53.3345ZM147.572 53.324C147.516 53.0423 147.435 52.2817 147.21 51.5669C146.661 49.8275 145.142 48.6796 143.584 48.8275C141.724 49.0036 141.095 50.3733 140.768 51.9331C140.627 52.6092 140.588 53.3275 140.641 54.0141C140.831 56.4754 142.508 58.3627 144.421 58.3486C146.236 58.3345 147.537 56.4472 147.568 53.324H147.572Z" fill="white"/>
<path d="M116.184 50.5669C116.637 50.0458 117.003 49.3944 117.562 49.0388C118.389 48.5106 119.327 48.1338 120.259 47.7993C122.376 47.0352 124.022 48.1057 124.149 50.3275C124.24 51.8979 124.226 53.4719 124.268 55.0458C124.303 56.3662 123.846 57.9331 126.114 58.169L125.949 58.6057L123.336 59.2395C123.016 58.7148 122.724 58.243 122.341 57.6197C121.708 58.0458 121.044 58.3944 120.502 58.8803C119.546 59.7395 118.424 59.7324 117.643 58.9965C116.919 58.3169 116.345 57.2395 116.194 56.2606C116.033 55.2078 116.676 54.2747 117.9 53.9543C118.856 53.7043 119.774 53.2923 120.734 53.0528C121.824 52.7817 122.682 52.3099 122.267 51.0564C122.028 50.3345 121.525 49.3521 120.938 49.1796C119.992 48.9014 118.891 49.0564 118.448 50.4366C118.311 50.8662 117.376 51.0423 116.806 51.3345C116.599 51.0775 116.395 50.8204 116.187 50.5669H116.184ZM122.162 53.6127C121.107 54.0388 120.147 54.4296 119.183 54.8134C118.058 55.2606 117.798 56.2712 118.364 57.0528C118.698 57.5141 119.908 57.7007 120.572 57.5035C122.38 56.9683 122.535 55.4719 122.162 53.6127Z" fill="white"/>
<path d="M151.662 80.9437C151.345 80.3169 151.117 79.8662 150.804 79.2395C150.15 79.6937 149.534 80.0212 149.046 80.4789C148.064 81.3944 146.9 81.4472 146.046 80.6585C145.322 79.9895 144.745 78.8909 144.622 77.9191C144.478 76.7747 145.209 75.8698 146.517 75.5846C147.424 75.3874 148.279 74.9543 149.183 74.736C150.294 74.4648 151.096 73.9367 150.688 72.7148C150.449 72 149.932 71.0317 149.341 70.8592C148.395 70.5881 147.291 70.7289 146.872 72.1338C146.746 72.5564 145.81 72.736 145.198 73.0493C144.643 71.7043 144.98 71.1691 145.951 70.6761C150.867 68.1796 153.054 68.8029 152.699 74.8064C152.66 75.4437 152.685 76.0881 152.699 76.7289C152.724 78.0599 152.298 79.6162 154.369 80.2712C153.518 80.486 152.667 80.6972 151.669 80.9508L151.662 80.9437ZM150.561 75.2923C149.485 75.7324 148.339 75.9754 147.509 76.6233C146.992 77.0282 146.953 78.0423 146.696 78.7817C147.414 78.9613 148.212 79.4331 148.831 79.2606C150.705 78.743 151.032 77.2747 150.561 75.2888V75.2923Z" fill="white"/>
<path d="M138.218 71.0846C137.385 70.9965 136.724 70.9261 136.066 70.8592L135.918 70.3486C136.618 70.0529 137.315 69.7536 137.993 69.4648C138.461 68.5846 138.967 67.6268 139.477 66.6691L140.061 66.8099C140.135 67.7923 140.209 68.7712 140.289 69.8557L143.736 70.0317C143.767 70.2501 143.795 70.4684 143.827 70.6867C142.716 70.831 141.601 70.9754 140.233 71.1515C140.233 73.4613 140.159 75.8768 140.307 78.2817C140.332 78.6761 141.292 79.1479 141.9 79.331C142.35 79.4648 142.927 79.1867 143.447 79.0951C143.525 79.2853 143.606 79.4789 143.683 79.6691C142.67 80.1761 141.703 80.8979 140.631 81.1339C139.143 81.4578 138.246 80.5353 138.229 78.9437C138.197 76.3416 138.222 73.7395 138.222 71.0881L138.218 71.0846Z" fill="white"/>
<path d="M158.874 79.5704L160.805 80.1937C160.791 80.3134 160.78 80.4331 160.766 80.5493H155.407L155.33 80.2113C155.832 80.0282 156.332 79.8486 156.94 79.6268V65.5422L155.344 65.2148L155.228 64.6338C156.346 64.3098 157.461 63.9859 158.871 63.5775V79.5704H158.874Z" fill="white"/>
<path d="M115.326 47.8415V49.6831C114.665 49.8204 113.982 49.8169 113.448 50.0951C112.024 50.8345 110.754 51.7113 110.912 53.662C111.025 55.0458 110.934 56.4436 110.934 57.8697L113.321 58.4753L113.24 58.9613H107.421L107.294 58.6021L108.961 57.9824V49.5775L107.266 49.3415L107.188 48.8204C108.317 48.4965 109.45 48.176 110.744 47.8063C110.803 48.7852 110.849 49.5035 110.902 50.3169C112.544 49.6479 112.857 47.0317 115.329 47.8415H115.326Z" fill="white"/>
<path d="M131.607 79.5564V71.3029L129.863 70.9226C129.842 70.7677 129.821 70.6163 129.8 70.4613C130.995 70.1303 132.191 69.8029 133.587 69.4191V79.5705C134.227 79.7853 134.789 79.9754 135.352 80.162L135.324 80.5317H130.151L130.035 80.2747L131.607 79.5599V79.5564Z" fill="white"/>
<path d="M131.491 68.507C131.6 67.426 130.774 66.2007 132.585 66.0387C133.576 65.9507 133.974 66.3309 133.928 67.2852C133.847 68.9295 132.718 68.588 131.491 68.5105V68.507Z" fill="white"/>
</g>
<defs>
<clipPath id="clip0_1287_3647">
<rect width="150" height="44" fill="white" transform="translate(39 42)"/>
</clipPath>
</defs>
</svg>
