<svg width="16" height="17" viewBox="0 0 16 17" fill="none" xmlns="http://www.w3.org/2000/svg">
    <style>
        @media (prefers-color-scheme: light) {
            path {
                fill: black;
            }
		}
		@media ( prefers-color-scheme: dark ) {
			path {
                fill: white;
			}
		}
	</style>
<path d="M6.94438 9.73633H3V10.5262H6.94438V9.73633V9.73633Z" />
<path d="M6.94363 8.76145V5.27757C6.94363 5.09992 6.97812 4.924 7.04711 4.76016C7.1161 4.59631 7.21613 4.44626 7.34203 4.32208C7.59729 4.06855 7.94223 3.92541 8.30269 3.92541H8.64763C8.82527 3.92541 9.00292 3.9599 9.16676 4.02889C9.33233 4.09615 9.48066 4.19618 9.60828 4.32208C9.73419 4.44799 9.83422 4.59631 9.90321 4.76016C9.97219 4.924 10.0067 5.09992 10.0067 5.27757V8.76145H13.9511V4.99127C13.9511 3.66843 13.4233 2.39905 12.4834 1.46254C11.5434 0.526032 10.2671 0 8.93738 0H8.01639C6.68665 0 5.41038 0.526032 4.47042 1.46254C3.53046 2.39905 3.00098 3.66843 3.00098 4.99127V8.76145H6.94363V8.76145Z" />
<path d="M13.7848 12.2916C13.8538 12.0329 13.9021 11.7691 13.9279 11.5017H9.75762C9.63172 11.6776 9.46615 11.8225 9.27299 11.9208C9.07982 12.0209 8.86596 12.0709 8.64864 12.0709H8.30198C8.08467 12.0709 7.87081 12.0191 7.67764 11.9191C7.48448 11.8191 7.31891 11.6759 7.193 11.5H3.02441C3.05028 11.7656 3.09858 12.0295 3.16756 12.2899H13.7848V12.2916Z" fill=""/>
<path d="M13.9541 9.73633H10.0098V10.5262H13.9541V9.73633Z" />
<path d="M5.05078 15.0352C5.90968 15.6647 6.94967 16.0027 8.01553 16.001H8.93652C10.0024 16.001 11.0424 15.6647 11.9013 15.0352H5.05078Z" />
<path d="M13.4109 13.2695H3.54395C3.6871 13.5472 3.85439 13.8111 4.04583 14.0594H12.9073C13.1005 13.8128 13.2678 13.5489 13.4109 13.2695Z" />
</svg>
