<svg width="228" height="128" viewBox="0 0 228 128" fill="none" xmlns="http://www.w3.org/2000/svg">
<g clip-path="url(#clip0_1317_3489)">
<path d="M81.8202 58.6316C79.5385 58.6316 77.6539 59.3655 76.2174 60.8149C74.7829 62.2624 74.0562 64.1084 74.0562 66.3009C74.0562 68.4935 74.7979 70.2098 76.2589 71.7203C77.7217 73.2326 79.5648 73.9981 81.7393 73.9981C83.3471 73.9981 84.7892 73.5644 86.0224 72.71C87.2555 71.8556 88.2232 70.6027 88.8972 68.9884L88.9499 68.8605H86.6286L86.6022 68.9142C86.1221 69.9114 85.4425 70.6898 84.584 71.2328C83.7236 71.774 82.7484 72.0483 81.6828 72.0483C80.1917 72.0483 78.9172 71.5739 77.8987 70.6397C76.9009 69.726 76.3229 68.4972 76.1836 66.9848H89.366V66.7587C89.366 64.353 88.6524 62.3773 87.2461 60.8853C85.8379 59.3915 84.0117 58.6334 81.8184 58.6334L81.8202 58.6316ZM78.021 61.8454C78.9774 60.991 80.1654 60.5573 81.5473 60.5573C84.5106 60.5573 86.3744 62.1345 87.0879 65.2445H76.2457C76.4885 63.823 77.0854 62.6794 78.021 61.8454Z" fill="white"/>
<path d="M105.075 70.4285L99.0203 54.3744H96.9155L104.252 73.5385L104.275 73.5978H105.901L113.263 54.3744H111.156L105.075 70.4285Z" fill="white"/>
<path d="M62.6341 61.1559C61.3276 59.5342 59.5315 58.7131 57.2893 58.7131C55.047 58.7131 53.1945 59.4563 51.741 60.9224C50.2876 62.3884 49.5515 64.2251 49.5515 66.3825C49.5515 68.5398 50.2745 70.295 51.6996 71.761C53.1248 73.2289 54.951 73.9721 57.1255 73.9721C58.2946 73.9721 59.3978 73.7312 60.4032 73.253C61.3163 72.8212 62.0656 72.2355 62.6341 71.5108V73.5959H64.6448V59.0338H62.6341V61.1559V61.1559ZM60.9887 62.2846C62.0806 63.3948 62.6341 64.72 62.6341 66.2231C62.6341 67.8689 62.075 69.2701 60.9736 70.3895C59.8723 71.5071 58.5958 72.0743 57.1801 72.0743C55.7643 72.0743 54.4069 71.5331 53.3168 70.4674C52.2249 69.4017 51.6714 68.0543 51.6714 66.464C51.6714 64.783 52.2249 63.3726 53.3168 62.2717C54.4088 61.1707 55.7266 60.6129 57.2347 60.6129C58.6335 60.6129 59.8967 61.1763 60.9887 62.2846V62.2846Z" fill="white"/>
<path d="M70.7635 54.3744H68.6982V59.0338H65.925V61.067H68.6982V73.5978H70.7635V61.067H73.5385V59.0338H70.7635V54.3744Z" fill="white"/>
<path d="M35.9248 66.1546H45.6638C45.2251 67.8764 44.3158 69.2887 42.964 70.3544C41.5822 71.4423 40.0064 71.9946 38.2762 71.9946C36.0829 71.9946 34.2021 71.2199 32.6866 69.6927C31.171 68.1655 30.401 66.2139 30.401 63.8934C30.401 61.7676 31.1616 59.9031 32.6602 58.3481C34.1569 56.7949 36.0377 56.0072 38.2498 56.0072C40.7105 56.0072 42.8454 57.1211 44.5944 59.3192L44.6227 59.3545H47.1643L47.0889 59.2173C46.1777 57.5511 44.9597 56.25 43.4648 55.353C41.97 54.4559 40.253 54 38.3572 54C35.5332 54 33.1422 54.936 31.2463 56.7838C29.2262 58.7391 28.2002 61.1207 28.2002 63.8656C28.2002 66.6105 29.1604 69.1385 31.0562 71.0661C32.952 72.9955 35.3261 73.9722 38.1143 73.9722C40.9025 73.9722 43.1617 73.0677 45.0463 71.2829C46.9327 69.4981 47.9719 67.1758 48.1357 64.3809L48.1414 64.2826H35.9248V66.1546V66.1546Z" fill="white"/>
<path d="M182.155 58.6316C179.873 58.6316 177.989 59.3655 176.552 60.8149C175.117 62.2624 174.391 64.1084 174.391 66.3009C174.391 68.4935 175.133 70.2098 176.592 71.7203C178.054 73.2326 179.898 73.9981 182.072 73.9981C183.68 73.9981 185.122 73.5644 186.355 72.71C187.588 71.8556 188.556 70.6027 189.23 68.9884L189.283 68.8605H186.961L186.935 68.9142C186.455 69.9114 185.775 70.6898 184.917 71.2328C184.056 71.774 183.081 72.0483 182.016 72.0483C180.524 72.0483 179.25 71.5739 178.231 70.6397C177.234 69.726 176.656 68.4972 176.516 66.9848H189.699V66.7587C189.699 64.353 188.985 62.3773 187.579 60.8853C186.171 59.3915 184.344 58.6334 182.151 58.6334L182.155 58.6316ZM176.58 65.2445C176.823 63.823 177.42 62.6794 178.356 61.8454C179.312 60.991 180.5 60.5573 181.882 60.5573C184.845 60.5573 186.709 62.1345 187.423 65.2445H176.58V65.2445Z" fill="white"/>
<path d="M170.309 60.5073V59.0339H168.353V73.5979H170.445V64.8294C170.445 63.5895 170.68 62.6573 171.145 62.0605C171.606 61.4692 172.45 61.1152 173.649 61.0114L173.736 61.004V58.817H173.64C172.307 58.8356 171.186 59.4027 170.307 60.5055L170.309 60.5073Z" fill="white"/>
<path d="M197.48 65.5485C197.275 65.4558 196.83 65.3112 196.12 65.1018C195.433 64.8998 194.916 64.6922 194.579 64.4828C193.876 64.0676 193.536 63.4819 193.536 62.6887C193.536 62.1271 193.733 61.6452 194.121 61.2542C194.509 60.8631 195.004 60.6666 195.591 60.6666C196.235 60.6666 196.753 60.8427 197.131 61.1911C197.51 61.5377 197.719 62.053 197.755 62.722L197.758 62.8092H199.959L199.955 62.7128C199.901 61.4451 199.492 60.4424 198.743 59.7307C197.994 59.0208 196.97 58.6613 195.699 58.6613C194.499 58.6613 193.468 59.0671 192.628 59.866C191.788 60.6666 191.361 61.6526 191.361 62.798C191.361 64.0157 191.683 64.9128 192.317 65.4651C192.941 66.0063 193.957 66.5252 195.339 67.009C196.265 67.3407 196.939 67.7132 197.344 68.1117C197.749 68.5102 197.943 69.057 197.943 69.7594C197.943 70.4248 197.706 70.9789 197.239 71.4052C196.77 71.8333 196.179 72.0502 195.48 72.0502C194.782 72.0502 194.125 71.7685 193.62 71.2106C193.112 70.6509 192.856 69.9188 192.856 69.0366V68.8901H190.734V68.9847C190.774 70.5193 191.226 71.7462 192.082 72.634C192.941 73.5236 194.074 73.974 195.456 73.974C196.838 73.974 197.96 73.5551 198.852 72.7304C199.746 71.9038 200.2 70.8492 200.2 69.5963C200.2 67.6725 199.283 66.3102 197.48 65.5485V65.5485Z" fill="white"/>
<path d="M149.122 54.3744H147.056V59.0338H144.281V61.067H147.056V73.5978H149.122V61.067H151.895V59.0338H149.122V54.3744Z" fill="white"/>
<path d="M163.539 66.427C163.539 67.0238 163.528 67.4853 163.513 67.7985C163.496 68.1488 163.441 68.5547 163.351 69.0032C163.262 69.4443 163.121 69.8261 162.927 70.1394C162.169 71.4052 160.934 72.0484 159.254 72.0484C157.735 72.0484 156.667 71.6239 156.082 70.7899C155.489 69.9448 155.188 68.5881 155.188 66.7588V59.0338H153.151V66.6235C153.151 69.1311 153.606 71.0012 154.502 72.1818C155.406 73.3698 156.986 73.9722 159.202 73.9722C160.996 73.9722 162.455 73.3754 163.541 72.1985V73.5959H165.606V59.0338H163.541V66.427H163.539Z" fill="white"/>
<path d="M142.035 61.0577C141.024 59.5194 139.37 58.7391 137.114 58.7391C135.264 58.7391 133.75 59.3378 132.613 60.5202V59.0338H130.602V73.5978H132.613V66.3084C132.615 65.7023 132.624 65.2427 132.639 64.9425C132.656 64.6088 132.711 64.2122 132.801 63.7637C132.889 63.3207 133.033 62.9297 133.225 62.5998C133.964 61.3339 135.2 60.6926 136.896 60.6926C138.328 60.6926 139.375 61.0726 140.006 61.8232C140.642 62.5794 140.964 63.7971 140.964 65.4466V73.5978H143.001V65.9822C143.001 64.7868 142.937 63.8082 142.809 63.0742C142.681 62.3329 142.42 61.6545 142.034 61.0577H142.035Z" fill="white"/>
<path d="M121.094 58.6316C118.813 58.6316 116.928 59.3655 115.492 60.8149C114.057 62.2624 113.33 64.1084 113.33 66.3009C113.33 68.4935 114.072 70.2098 115.533 71.7203C116.996 73.2326 118.839 73.9981 121.013 73.9981C122.621 73.9981 124.063 73.5644 125.297 72.71C126.53 71.8556 127.497 70.6027 128.171 68.9884L128.224 68.8605H125.903L125.876 68.9142C125.396 69.9114 124.717 70.6898 123.856 71.2328C122.996 71.774 122.021 72.0483 120.955 72.0483C119.464 72.0483 118.189 71.5739 117.171 70.6397C116.173 69.726 115.595 68.4972 115.456 66.9848H128.638V66.7587C128.638 64.353 127.925 62.3773 126.518 60.8853C125.11 59.3915 123.284 58.6334 121.091 58.6334L121.094 58.6316ZM115.52 65.2445C115.763 63.823 116.36 62.6794 117.295 61.8454C118.252 60.991 119.44 60.5573 120.821 60.5573C123.785 60.5573 125.649 62.1345 126.362 65.2445H115.52V65.2445Z" fill="white"/>
</g>
<defs>
<clipPath id="clip0_1317_3489">
<rect width="172" height="20" fill="white" transform="translate(28.2002 54)"/>
</clipPath>
</defs>
</svg>
