<svg width="228" height="128" viewBox="0 0 228 128" fill="none" xmlns="http://www.w3.org/2000/svg">
<g clip-path="url(#clip0_1317_3335)">
<path d="M184.8 82.6745C183.813 82.6704 182.828 82.6621 181.841 82.6704C181.614 82.6704 181.458 82.6102 181.298 82.4443C175.373 76.2938 169.443 70.1495 163.521 63.9949C163.277 63.7418 163.042 63.6256 162.686 63.6401C161.995 63.6692 161.301 63.6484 160.608 63.6484C160.506 63.6484 160.406 63.6567 160.275 63.663V63.9658C160.275 68.2847 160.27 72.6035 160.279 76.9223C160.279 77.8101 160.293 78.7 160.487 79.5734C160.543 79.8306 160.622 80.0857 160.72 80.3284C160.935 80.8574 161.324 81.21 161.87 81.3926C162.332 81.5481 162.811 81.6042 163.294 81.6519C163.415 81.6643 163.533 81.6809 163.66 81.6975V82.6413H154.481V81.6954C154.777 81.6622 155.071 81.6436 155.358 81.5938C155.702 81.5336 156.049 81.4693 156.381 81.3635C156.876 81.2059 157.218 80.8615 157.428 80.3865C157.611 79.9758 157.709 79.5422 157.747 79.0983C157.803 78.4304 157.855 77.7604 157.855 77.0903C157.861 68.4713 157.861 59.8524 157.855 51.2334C157.855 50.3932 157.822 49.5511 157.64 48.7255C157.609 48.5782 157.57 48.4309 157.524 48.2878C157.278 47.5016 156.77 46.9581 155.977 46.7195C155.562 46.5951 155.127 46.5287 154.702 46.4354C154.629 46.4188 154.556 46.4084 154.473 46.3918V45.4563C154.556 45.45 154.638 45.4355 154.719 45.4355C158.6 45.4355 162.482 45.4231 166.363 45.4397C168.362 45.448 170.338 45.6803 172.258 46.2673C173.666 46.6967 174.988 47.3004 176.154 48.2089C177.643 49.3664 178.678 50.8351 179.028 52.6979C179.632 55.9048 178.68 58.5953 176.165 60.7049C174.845 61.8126 173.302 62.5075 171.656 62.9888C170.378 63.3622 169.072 63.5862 167.744 63.6879C167.386 63.7148 167.027 63.7376 166.615 63.7667C166.694 63.8621 166.744 63.9326 166.805 63.9928C168.125 65.3515 169.445 66.7081 170.765 68.0648C174.607 72.0144 178.449 75.966 182.291 79.9156C183.051 80.6956 183.809 81.4776 184.569 82.2576C184.648 82.3385 184.723 82.4215 184.8 82.5044V82.6745V82.6745ZM160.306 47.0722C160.247 47.4622 160.264 61.8189 160.322 62.0284C160.395 62.0325 160.47 62.0387 160.545 62.0387C162.263 62.0387 163.981 62.0387 165.697 62.0387C166.98 62.0387 168.256 61.9392 169.516 61.6965C170.732 61.4621 171.906 61.099 172.995 60.4954C174.426 59.703 175.517 58.5994 176.109 57.054C176.56 55.8716 176.654 54.6478 176.494 53.4011C176.323 52.0776 175.79 50.9201 174.865 49.9473C173.985 49.02 172.904 48.4102 171.715 47.9725C170.078 47.3709 168.373 47.1137 166.64 47.0784C164.583 47.0369 162.523 47.0618 160.464 47.0597C160.418 47.0597 160.37 47.068 160.31 47.0722H160.306Z" fill="white"/>
<path d="M122.572 53.6853H121.576C121.531 53.5774 121.479 53.4695 121.435 53.3575C120.939 52.1067 120.277 50.9595 119.365 49.9597C118.145 48.6238 116.635 47.7547 114.909 47.2381C113.776 46.9 112.616 46.732 111.438 46.6594C110.344 46.593 109.255 46.6117 108.168 46.7258C103.416 47.2174 99.3809 49.1051 96.3053 52.8244C94.6103 54.8739 93.5338 57.2304 92.9486 59.815C92.4905 61.8417 92.3843 63.8911 92.5551 65.9572C92.7675 68.5294 93.4172 70.9813 94.6832 73.2465C96.7426 76.9327 99.8349 79.3597 103.858 80.6271C106.08 81.3262 108.362 81.5585 110.686 81.4486C112.495 81.3635 114.267 81.0773 115.994 80.5255C116.781 80.2745 117.547 79.9737 118.293 79.6169C118.378 79.5754 118.459 79.5298 118.555 79.48V79.1647C118.555 75.7337 118.557 72.3027 118.553 68.8717C118.553 68.2681 118.524 67.6644 118.409 67.067C118.234 66.146 117.712 65.5403 116.81 65.2561C116.137 65.0424 115.442 64.9491 114.746 64.8661C114.465 64.8329 114.184 64.8039 113.893 64.7707V63.8144H124.302C124.327 64.1214 124.311 64.4284 124.313 64.7624C124.123 64.7976 123.938 64.8246 123.757 64.8682C123.361 64.9636 122.959 65.0403 122.574 65.171C121.891 65.4034 121.454 65.8846 121.237 66.5733C121.054 67.1583 121.018 67.7598 120.983 68.3635C120.975 68.5149 120.975 68.6663 120.975 68.8178C120.975 72.3338 120.975 75.8499 120.975 79.3659V79.7103C120.896 79.7621 120.827 79.8098 120.754 79.8534C118.463 81.2432 116.017 82.2306 113.372 82.7139C111.411 83.0749 109.434 83.1558 107.448 83.0355C105.632 82.9235 103.852 82.6123 102.119 82.0584C99.56 81.2411 97.2715 79.9592 95.3141 78.1151C93.0257 75.9577 91.4952 73.344 90.6143 70.3424C90.1146 68.6373 89.8605 66.8948 89.8022 65.1212C89.7252 62.7876 89.9813 60.4975 90.6976 58.2717C92.2552 53.4363 95.3246 49.856 99.8141 47.4746C101.823 46.4084 103.968 45.7363 106.211 45.3546C108.233 45.0123 110.265 44.9563 112.31 45.0663C114.68 45.1949 116.999 45.5869 119.259 46.3213C120.325 46.6677 121.358 47.0929 122.37 47.5721C122.543 47.6551 122.595 47.7547 122.595 47.9413C122.588 49.7647 122.591 51.5902 122.591 53.4135C122.591 53.4965 122.58 53.5795 122.574 53.6853H122.572Z" fill="white"/>
<path d="M149.894 47.6136V53.5628H148.88C148.842 53.4612 148.799 53.3471 148.759 53.233C148.44 52.3203 148.041 51.4449 147.516 50.6297C146.217 48.6093 144.395 47.3335 142.033 46.8543C140.122 46.4685 138.22 46.5307 136.353 47.1178C134.832 47.5949 133.533 48.4163 132.542 49.6755C131.719 50.721 131.253 51.9117 131.097 53.2268C130.976 54.2515 131.022 55.2638 131.305 56.2595C131.678 57.5767 132.444 58.6347 133.477 59.5163C134.495 60.3854 135.655 61.0243 136.867 61.5782C138.781 62.4536 140.696 63.3207 142.612 64.1898C143.83 64.7437 145.019 65.3494 146.131 66.0982C147.112 66.7579 148.007 67.5109 148.736 68.4464C149.669 69.6433 150.2 71 150.3 72.5122C150.539 76.0988 149.088 78.8784 146.177 80.93C144.657 82.0024 142.943 82.633 141.107 82.8965C137.333 83.4379 133.743 82.7782 130.31 81.181C129.346 80.7329 128.436 80.1873 127.561 79.5816C127.432 79.4924 127.372 79.3991 127.374 79.2352C127.38 77.2687 127.378 75.3043 127.378 73.3378C127.378 73.2818 127.384 73.2258 127.39 73.1303C127.717 73.1075 128.044 73.12 128.396 73.122C128.433 73.2195 128.469 73.315 128.504 73.4104C129.044 74.8936 129.729 76.2979 130.695 77.557C132.348 79.7123 134.526 80.9818 137.223 81.3573C139.407 81.6622 141.521 81.4154 143.522 80.4529C145.028 79.7289 146.273 78.7 147.079 77.2189C148.049 75.4308 148.249 73.5473 147.626 71.6015C147.329 70.6701 146.748 69.9151 146.035 69.2534C145.246 68.519 144.353 67.9258 143.397 67.4362C142.302 66.8761 141.184 66.3555 140.07 65.8327C138.593 65.142 137.102 64.4823 135.632 63.7812C134.206 63.1008 132.873 62.271 131.701 61.2027C130.48 60.0909 129.545 58.7882 129.064 57.1992C127.996 53.6707 129.052 49.8373 132.192 47.4103C133.598 46.3233 135.197 45.6616 136.931 45.3069C138.61 44.9646 140.303 44.9418 142 45.1264C144.357 45.3857 146.616 45.9893 148.759 47.012C149.151 47.1987 149.527 47.4165 149.9 47.6136H149.894Z" fill="white"/>
<path d="M62.0094 57.6638H63.5732V44H62.0094V57.6638Z" fill="white"/>
<path d="M65.5952 58.2455L66.885 59.0739L74.3172 47.5898L73.0274 46.7614L65.5952 58.2455Z" fill="white"/>
<path d="M65.1795 53.18L66.6587 53.6176L69.2107 45.0569L67.7316 44.6193L65.1795 53.18Z" fill="white"/>
<path d="M68.2399 60.6676L68.8911 62.084L81.3615 56.3938L80.7102 54.9775L68.2399 60.6676Z" fill="white"/>
<path d="M69.202 64.1594L68.9832 65.6726L82.5592 67.6215L82.7781 66.1083L69.202 64.1594Z" fill="white"/>
<path d="M73.6474 61.6705L73.8643 63.1924L82.7397 61.9372L82.5228 60.4154L73.6474 61.6705Z" fill="white"/>
<path d="M68.1563 67.6529L67.1379 68.8352L77.5476 77.7327L78.566 76.5504L68.1563 67.6529Z" fill="white"/>
<path d="M65.345 69.9794L63.874 70.4152L67.7834 83.5123L69.2544 83.0765L65.345 69.9794Z" fill="white"/>
<path d="M69.4455 72.9192L68.1489 73.7526L73.009 81.2564L74.3055 80.4231L69.4455 72.9192Z" fill="white"/>
<path d="M61.7289 70.3937L60.2258 69.9637L56.4405 83.097L57.9436 83.5269L61.7289 70.3937Z" fill="white"/>
<path d="M58.5271 68.8615L57.5168 67.7107L47.1918 76.7055L48.2021 77.8564L58.5271 68.8615Z" fill="white"/>
<path d="M57.4541 73.74L56.1536 72.9127L51.3291 80.4393L52.6296 81.2665L57.4541 73.74Z" fill="white"/>
<path d="M58.5068 68.7562L57.4805 67.5808L47.1318 76.5487L48.1582 77.7241L58.5068 68.7562Z" fill="white"/>
<path d="M56.5956 65.6781L56.3765 64.1649L42.8008 66.1161L43.0199 67.6293L56.5956 65.6781Z" fill="white"/>
<path d="M53.0322 69.3149L52.3928 67.916L44.2343 71.6165L44.8736 73.0154L53.0322 69.3149Z" fill="white"/>
<path d="M56.6894 62.1037L57.3347 60.6847L44.8406 55.0466L44.1953 56.4657L56.6894 62.1037Z" fill="white"/>
<path d="M58.7025 59.0903L59.9922 58.2617L52.5579 46.7789L51.2682 47.6075L58.7025 59.0903Z" fill="white"/>
<path d="M53.9009 57.3797L54.9114 56.218L48.1366 50.3699L47.1262 51.5316L53.9009 57.3797Z" fill="white"/>
<path d="M70.7108 56.1624L71.7192 57.3258L78.5042 51.4895L77.4958 50.3261L70.7108 56.1624Z" fill="white"/>
<path d="M73.2466 67.9076L72.605 69.3055L80.7577 73.0187L81.3993 71.6208L73.2466 67.9076Z" fill="white"/>
<path d="M63.565 75.0649L62.022 75.0697L62.0501 83.9998L63.5931 83.995L63.565 75.0649Z" fill="white"/>
<path d="M58.918 53.6162L60.3979 53.1812L57.8609 44.6161L56.381 45.0511L58.918 53.6162Z" fill="white"/>
<path d="M43.036 60.4465L42.8191 61.9684L51.6945 63.2236L51.9114 61.7017L43.036 60.4465Z" fill="white"/>
</g>
<defs>
<clipPath id="clip0_1317_3335">
<rect width="142" height="40" fill="white" transform="translate(42.8 44)"/>
</clipPath>
</defs>
</svg>
