<svg width="228" height="128" viewBox="0 0 228 128" fill="none" xmlns="http://www.w3.org/2000/svg">
<g clip-path="url(#clip0_1317_3427)">
<path d="M111.328 82.7505H109.639V95.3248H111.328V82.7505Z" fill="white"/>
<path d="M127.782 84.4257H134.528V82.7505H126.093V97H127.782V90.2951H129.467V91.9703H131.152V90.2951H134.528V88.6198H127.782V84.4257Z" fill="white"/>
<path d="M136.213 84.4257H134.528V88.6198H136.213V84.4257Z" fill="white"/>
<path d="M136.213 95.3248H134.528V97.0001H136.213V95.3248Z" fill="white"/>
<path d="M119.759 82.7505H118.074V95.3248H119.759V82.7505Z" fill="white"/>
<path d="M134.528 93.6495H132.843V95.3248H134.528V93.6495Z" fill="white"/>
<path d="M62.5482 90.4202H70.0553V88.8116H62.5482V84.2441H70.6014V82.6334H60.6257V97H70.6623V95.3914H62.5482V90.4202Z" fill="white"/>
<path d="M81.9718 87.7802H80.2869V89.4554H81.9718V87.7802Z" fill="white"/>
<path d="M78.6018 86.105V82.7505H76.9128V97H78.6018V87.7802H80.2868V86.105H78.6018Z" fill="white"/>
<path d="M48.2526 95.0887H48.212L44.0849 82.6334H42L47.0995 97H49.2859L54.426 82.6334H52.4223L48.2526 95.0887Z" fill="white"/>
<path d="M92.5667 84.2441H97.3819V97H99.3044V84.2441H104.122V82.6334H92.5667V84.2441Z" fill="white"/>
<path d="M83.6607 89.4554H81.9717V91.1347H83.6607V89.4554Z" fill="white"/>
<path d="M118.074 95.3248H111.331V97.0001H118.074V95.3248Z" fill="white"/>
<path d="M85.3458 91.1347H83.6609V92.8099H85.3458V97H87.0308V82.7505H85.3458V91.1347Z" fill="white"/>
<path d="M132.841 91.9702H131.152V93.6495H132.841V91.9702Z" fill="white"/>
<path d="M168.006 95.3248H160.417V97.0001H168.006V95.3248Z" fill="white"/>
<path d="M145.208 90.4202H152.715V88.8116H145.208V84.2441H153.261V82.6334H143.283V97H153.322V95.3914H145.208V90.4202Z" fill="white"/>
<path d="M169.691 90.295H168.006V95.3248H169.691V90.295Z" fill="white"/>
<path d="M168.006 88.6199H161.262V90.2951H168.006V88.6199Z" fill="white"/>
<path d="M161.262 84.4257H159.573V88.6198H161.262V84.4257Z" fill="white"/>
<path d="M168.85 82.7505H161.262V84.4257H168.85V82.7505Z" fill="white"/>
<path d="M49.7547 54.5803H45.8875V58.4253H49.7547V54.5803Z" fill="white"/>
<path d="M49.7547 46.8905H45.8875V50.7355H49.7547V46.8905Z" fill="white"/>
<path d="M49.7548 62.2702H45.8875V58.4253H42.0203V76.8791H49.7548V62.2702Z" fill="white"/>
<path d="M45.8875 43.0475H42.0203V46.8924H45.8875V43.0475Z" fill="white"/>
<path d="M45.8875 50.7354H42.0203V54.5803H45.8875V50.7354Z" fill="white"/>
<path d="M90.4859 54.5803H86.6187V58.4253H90.4859V54.5803Z" fill="white"/>
<path d="M86.6187 50.7354H82.7515V54.5803H86.6187V50.7354Z" fill="white"/>
<path d="M82.7515 62.3974H86.6187V66.1152H90.486V62.2702H86.6187V58.4253H82.7515V62.3974Z" fill="white"/>
<path d="M128.641 63.6791H124.773V67.3949H128.641V63.6791Z" fill="white"/>
<path d="M71.1517 43.0475H67.2844V46.8924H71.1517V43.0475Z" fill="white"/>
<path d="M71.1516 49.4538V50.7355H75.0189V46.8905H71.1516V49.4538Z" fill="white"/>
<path d="M82.7515 46.8905H78.8862V50.7355H82.7515V49.4538V46.8905Z" fill="white"/>
<path d="M86.6187 49.4538V50.7355H90.4859V49.4538V46.8905H86.6187V49.4538Z" fill="white"/>
<path d="M78.8861 43.0475H75.0188V46.8924H78.8861V43.0475Z" fill="white"/>
<path d="M86.6187 43.0475H82.7515V46.8924H86.6187V43.0475Z" fill="white"/>
<path d="M67.2842 49.4538V46.8905H63.417V49.4538V50.7355V69.1912V75.2907V76.8791H90.4858V75.2907V69.9602H86.6185V69.1912V66.2424H82.7512V69.1912H71.1515V50.7355H67.2842V49.4538Z" fill="white"/>
<path d="M156.869 43.0475H153.001V46.8924H156.869V43.0475Z" fill="white"/>
<path d="M164.603 43.0475H160.736V46.8924H164.603V43.0475Z" fill="white"/>
<path d="M160.736 46.8905H156.869V50.7355H160.736V46.8905Z" fill="white"/>
<path d="M153.003 46.8905H149.136V50.7355H153.003V46.8905Z" fill="white"/>
<path d="M168.471 46.8905H164.603V50.7355H168.471V46.8905Z" fill="white"/>
<path d="M117.039 43.0475H113.172V46.8924H117.039V43.0475Z" fill="white"/>
<path d="M124.774 43.0475H120.906V46.8924H124.774V43.0475Z" fill="white"/>
<path d="M128.641 46.8905H124.773V50.7355H128.641V46.8905Z" fill="white"/>
<path d="M120.906 46.8905H117.039V50.7355H120.906V46.8905Z" fill="white"/>
<path d="M120.906 55.9912H124.774V59.8342H128.641V55.8621H117.039V59.707H120.906V55.9912Z" fill="white"/>
<path d="M117.039 59.7069H113.172V55.862H109.305V50.7354H113.172V46.8904H109.305V43.0475H105.439V46.8904H109.177V50.7354H105.309V46.8904H101.572V50.7354V55.862V63.5519H117.039V59.7069Z" fill="white"/>
<path d="M124.774 59.8341H120.906V63.5499H124.774V59.8341Z" fill="white"/>
<path d="M128.641 71.2398H124.774V68.6785V67.3969H120.906V68.6785H101.572V76.3664H128.641V71.2398Z" fill="white"/>
<path d="M156.869 59.8342V55.9912H160.736V59.707H164.603V55.8621H154.291V63.552H160.736V59.8342H156.869Z" fill="white"/>
<path d="M168.471 59.707H164.603V63.552H168.471V59.707Z" fill="white"/>
<path d="M168.47 76.3664V68.6785V67.3968H164.603V63.5519H160.736V68.6785H149.136V50.7354H145.269V46.8904H149.136V43.0475H141.402V50.7354V68.6785V76.3664H149.136H168.47Z" fill="white"/>
<path d="M111.111 31H107.244V34.845H111.111V31Z" fill="white"/>
<path d="M101.442 35.3577H97.5747V39.2026H101.442V35.3577Z" fill="white"/>
<path d="M56.9737 31.5127H53.1064V35.3576H56.9737V31.5127Z" fill="white"/>
<path d="M126.578 33.4341H122.711V37.279H126.578V33.4341Z" fill="white"/>
<path d="M177.494 53.9406H173.627V57.7855H177.494V53.9406Z" fill="white"/>
<path d="M186 65.7297H182.133V69.5747H186V65.7297Z" fill="white"/>
<path d="M176.333 72.2651H172.466V76.1101H176.333V72.2651Z" fill="white"/>
</g>
<defs>
<clipPath id="clip0_1317_3427">
<rect width="144" height="66" fill="white" transform="translate(42 31)"/>
</clipPath>
</defs>
</svg>
