<svg width="228" height="128" viewBox="0 0 228 128" fill="none" xmlns="http://www.w3.org/2000/svg">
<g clip-path="url(#clip0_1287_3651)">
<path d="M54.9 78.5447C55.7416 78.6136 56.5595 78.4921 57.3392 78.1781C58.7383 77.6137 59.2848 76.4831 59.3649 75.0621C59.3758 74.8661 59.3758 74.6701 59.3758 74.4741C59.3758 67.89 59.3758 61.3059 59.3758 54.7219V54.1629H65.3928V54.7382C65.3928 61.4765 65.36 68.2149 65.4055 74.9532C65.431 78.6155 63.429 81.0219 60.2921 82.1597C58.5506 82.7913 56.7362 82.9764 54.8982 83.0018V78.5465L54.9 78.5447Z" fill="white"/>
<path d="M62.8443 45C63.5821 45.2033 64.2598 45.4936 64.8081 46.0653C66.0486 47.3592 66.0377 49.3791 64.7534 50.6839C63.4692 51.987 61.3779 51.9997 60.0517 50.7112C58.742 49.439 58.6964 47.4191 59.9224 46.0998C60.4725 45.5081 61.163 45.2087 61.9153 45H62.8443V45Z" fill="white"/>
<path d="M97.6507 74.0404H91.6338V54.1774H97.6434V56.925C98.2938 56.3861 98.8585 55.8398 99.4979 55.4024C102.289 53.4969 105.298 53.2592 108.422 54.4279C109.827 54.9542 110.776 56.0249 111.412 57.3679C111.47 57.4931 111.525 57.6183 111.594 57.7707C112.127 57.2245 112.612 56.671 113.157 56.181C115.793 53.8127 118.859 53.1866 122.23 54.1466C124.775 54.8707 126.081 56.7472 126.555 59.2407C126.715 60.0882 126.794 60.9648 126.799 61.8268C126.825 65.7486 126.81 69.6722 126.81 73.5958C126.81 73.7319 126.81 73.8698 126.81 74.0331H120.755V73.5595C120.755 70.2819 120.769 67.0026 120.742 63.7251C120.737 63.0046 120.655 62.266 120.476 61.5691C119.911 59.3768 118.254 58.6455 116.279 58.9104C114.534 59.1445 113.455 60.2516 112.794 61.8068C112.361 62.8286 112.22 63.9102 112.219 65.01C112.213 67.8392 112.217 70.6703 112.217 73.4996V74.0295H106.189C106.189 73.8571 106.189 73.6956 106.189 73.5322C106.189 70.2819 106.209 67.0316 106.174 63.7813C106.167 63.0064 106.061 62.2115 105.861 61.462C105.302 59.3732 103.635 58.6146 101.675 58.9177C99.5161 59.2516 98.4359 60.747 97.9313 62.7106C97.7418 63.4474 97.6708 64.2314 97.6635 64.9954C97.6325 67.8247 97.6507 70.6558 97.6507 73.4851V74.0349V74.0404Z" fill="white"/>
<path d="M135.445 71.8916V82.5663H129.444V54.1701H135.428V56.2027C135.55 56.1265 135.623 56.0975 135.676 56.0466C137.514 54.2881 139.751 53.6529 142.243 53.7128C144.134 53.7582 145.923 54.1611 147.559 55.1338C149.75 56.4386 151.208 58.3043 151.843 60.7742C152.434 63.0735 152.463 65.3892 151.749 67.6577C150.572 71.398 147.899 73.5104 144.103 74.24C142.039 74.6356 139.964 74.5703 138.026 73.6538C137.25 73.2872 136.569 72.7228 135.847 72.2419C135.725 72.1602 135.625 72.0495 135.445 71.8898V71.8916ZM145.95 63.8866C145.921 63.6035 145.901 63.1098 145.81 62.6325C145.726 62.1952 145.602 61.7578 145.431 61.3477C144.653 59.4911 143.282 58.3514 141.249 58.1427C139.383 57.9522 137.756 58.5365 136.66 60.0864C135.153 62.2133 135.059 64.5671 136.015 66.9245C137.394 70.3236 141.806 71.1258 144.351 68.4816C145.528 67.2603 145.916 65.7358 145.95 63.8866Z" fill="white"/>
<path d="M68.0197 54.1647H74.0275C74.0275 54.368 74.0275 54.5458 74.0275 54.7237C74.0275 57.8615 74.0221 60.9992 74.0312 64.137C74.0348 65.1914 74.1423 66.2331 74.5849 67.2131C75.1661 68.498 76.1862 69.1785 77.5707 69.2947C80.192 69.5124 82.0793 68.1205 82.6859 65.4999C82.8553 64.7704 82.9427 64.0064 82.9518 63.2568C82.9828 60.3985 82.9646 57.5421 82.9646 54.6837C82.9646 54.5186 82.9646 54.3553 82.9646 54.1647H88.9888C88.9961 54.3299 89.0089 54.4787 89.0089 54.6275C89.0089 60.9448 89.007 67.2639 89.0161 73.5812C89.0161 73.9369 88.9415 74.0658 88.5534 74.0603C86.8356 74.0385 85.1178 74.0512 83.4 74.0494C83.2761 74.0494 83.1504 74.0385 82.9773 74.0295V71.1603C82.6094 71.5087 82.3361 71.7973 82.0319 72.0495C79.1081 74.4777 75.8164 75.1056 72.2459 73.8208C69.9962 73.0114 68.7866 71.2111 68.2802 68.948C68.098 68.135 68.016 67.2857 68.0106 66.4509C67.9833 62.4874 67.9978 58.522 67.9996 54.5567C67.9996 54.4333 68.0124 54.3117 68.0215 54.1629L68.0197 54.1647Z" fill="white"/>
<path d="M173.9 68.5542H154.736V73.3761H173.9V68.5542Z" fill="white"/>
</g>
<defs>
<clipPath id="clip0_1287_3651">
<rect width="119" height="38" fill="white" transform="translate(54.9 45)"/>
</clipPath>
</defs>
</svg>
