<svg width="228" height="128" viewBox="0 0 228 128" fill="none" xmlns="http://www.w3.org/2000/svg">
<g clip-path="url(#clip0_1317_3409)">
<path d="M158.665 57.0694C155.869 55.6007 152.666 55.3094 149.651 56.244C146.636 57.1786 144.162 59.2299 142.691 62.0216C141.22 64.8133 140.929 68.0055 141.865 71.0217C143.409 75.9921 147.949 79.33 153.164 79.33C154.35 79.33 155.523 79.1479 156.666 78.7959C162.89 76.866 166.385 70.2388 164.452 64.0182C163.516 61.0081 161.461 58.5381 158.665 57.0694V57.0694ZM147.08 69.4013C146.575 67.7809 146.733 66.0574 147.524 64.5523C148.314 63.0472 149.645 61.9427 151.274 61.439C152.879 60.9413 154.641 61.0991 156.125 61.882C157.632 62.6709 158.738 64 159.243 65.6265C159.747 67.2469 159.589 68.9644 158.793 70.4694C158.003 71.9745 156.672 73.079 155.049 73.5828C153.426 74.0865 151.706 73.9287 150.198 73.1337C148.691 72.3447 147.584 71.0156 147.08 69.3952V69.4013Z" fill="white"/>
<path d="M94.5261 55.7039C88.004 55.7039 82.7036 61.002 82.7036 67.5078C82.7036 74.0136 88.0101 79.3117 94.5261 79.3117C101.042 79.3117 106.349 74.0136 106.349 67.5078C106.349 61.002 101.042 55.7039 94.5261 55.7039V55.7039ZM100.896 67.5078C100.896 71.0156 98.0395 73.868 94.5261 73.868C91.0128 73.868 88.156 71.0156 88.156 67.5078C88.156 64 91.0128 61.1476 94.5261 61.1476C98.0395 61.1476 100.896 64 100.896 67.5078V67.5078Z" fill="white"/>
<path d="M123.842 55.7039C117.32 55.7039 112.02 61.002 112.02 67.5078V79.3117H117.478V67.5078C117.478 64 120.335 61.1476 123.848 61.1476C127.362 61.1476 130.219 64 130.219 67.5078V79.3117H135.677V67.5078C135.677 60.9959 130.371 55.7039 123.854 55.7039H123.842Z" fill="white"/>
<path d="M80.1749 55.9406C79.4212 55.7889 78.6371 55.71 77.8408 55.71C71.3187 55.71 66.0183 61.0081 66.0183 67.5139V79.3178H71.4767V67.5139C71.4767 64.1275 74.1452 61.354 77.4944 61.1719L80.181 55.9406H80.1749Z" fill="white"/>
<path d="M175.77 64.5219C175.77 62.4281 177.472 60.7288 179.569 60.7288C180.955 60.7288 182.231 61.4814 182.9 62.7012C183.009 62.9076 183.332 63.5509 183.514 64.0364H189.1C188.498 62.3553 187.866 60.9594 187.453 60.2069C185.872 57.3303 182.851 55.546 179.563 55.546C174.603 55.546 170.567 59.5757 170.567 64.5279C170.567 67.441 171.995 70.1902 174.378 71.8713C174.475 71.938 174.329 71.8713 177.119 73.4856L179.733 69.0007C178.572 68.327 177.624 67.7808 177.344 67.6109C176.354 66.8948 175.758 65.7478 175.758 64.5279L175.77 64.5219Z" fill="white"/>
<path d="M183.806 79.518C183.806 81.6118 182.104 83.3111 180.007 83.3111C178.621 83.3111 177.344 82.5585 176.676 81.3387C176.566 81.1324 176.244 80.489 176.062 80.0035H170.476C171.078 81.6846 171.71 83.0805 172.123 83.833C173.703 86.7096 176.724 88.4939 180.013 88.4939C184.973 88.4939 189.009 84.4642 189.009 79.512C189.009 76.5989 187.58 73.8497 185.198 72.1686C185.1 72.1019 185.246 72.1686 182.456 70.5543L179.843 75.0392C181.004 75.7129 181.952 76.2591 182.231 76.429C183.222 77.1451 183.818 78.2921 183.818 79.512L183.806 79.518Z" fill="white"/>
<path d="M43.5219 55.7039H38.1304V79.3178H43.5219V55.7039Z" fill="white"/>
<path d="M43.4917 39.5H38.1001V52.5966H43.4917V39.5Z" fill="white"/>
<path d="M55.9586 80.1735L48.397 72.6239C47.0294 71.2584 46.2756 69.4438 46.2756 67.5139C46.2756 65.584 47.0294 63.7694 48.397 62.4039L55.9586 54.8542L59.6299 58.5198L52.0684 66.0695C51.6854 66.4518 51.4727 66.9677 51.4727 67.5078C51.4727 68.048 51.6854 68.5638 52.0684 68.9522L59.6299 76.5019L55.9586 80.1675V80.1735Z" fill="white"/>
</g>
<defs>
<clipPath id="clip0_1317_3409">
<rect width="151" height="49" fill="white" transform="translate(38.1001 39.5)"/>
</clipPath>
</defs>
</svg>
