<svg width="228" height="128" viewBox="0 0 228 128" fill="none" xmlns="http://www.w3.org/2000/svg">
<g clip-path="url(#clip0_1317_3650)">
<path d="M102.681 65.3903C102.681 67.7764 102.685 70.1639 102.68 72.5499C102.677 74.0967 101.783 74.9782 100.196 74.9864C97.9979 74.9973 95.7988 74.9741 93.6012 75C93.0504 75.0068 92.8807 74.8367 92.9001 74.3048C92.9627 72.6384 92.6414 72.8792 94.3578 72.8656C96.116 72.8506 97.8755 72.8356 99.6336 72.8751C100.319 72.89 100.542 72.6438 100.493 72.0126C100.454 71.5201 100.467 71.0222 100.488 70.5271C100.509 70.0292 100.283 69.8591 99.7824 69.8632C97.9089 69.8809 96.0325 69.8183 94.1603 69.8823C92.213 69.9489 91.3826 68.7627 91.3882 67.1887C91.3966 64.8244 91.384 62.46 91.3924 60.0957C91.3993 58.2578 92.3313 57.3559 94.2076 57.3545C96.7989 57.3532 99.3916 57.3682 101.983 57.3423C102.53 57.3369 102.699 57.4851 102.694 58.0252C102.667 60.4793 102.683 62.9335 102.681 65.3876V65.3903ZM93.6429 63.6123C93.6429 64.7822 93.654 65.9521 93.6359 67.122C93.629 67.5342 93.7417 67.7492 94.2118 67.7465C96.1076 67.7342 98.0035 67.7342 99.8993 67.7465C100.321 67.7492 100.479 67.5655 100.479 67.1792C100.475 64.8176 100.474 62.4546 100.478 60.093C100.478 59.6958 100.305 59.5475 99.8882 59.5516C97.9923 59.5679 96.0965 59.5665 94.2007 59.5516C93.7806 59.5488 93.6304 59.6958 93.6359 60.1025C93.654 61.2724 93.6429 62.4424 93.6415 63.6123H93.6429Z" fill="white"/>
<path d="M174.467 57.356C176.666 57.356 178.866 57.3832 181.065 57.3465C182.495 57.322 183.776 58.1872 183.74 59.9325C183.676 62.9947 183.711 66.0597 183.733 69.1232C183.737 69.6728 183.584 69.8769 182.995 69.8565C181.31 69.798 181.554 70.0741 181.545 68.473C181.531 65.7699 181.529 63.0668 181.551 60.3638C181.555 59.7761 181.413 59.5122 180.737 59.5421C179.559 59.5952 178.375 59.5816 177.196 59.5462C176.642 59.5299 176.474 59.7176 176.478 60.2441C176.498 63.1947 176.47 66.1467 176.5 69.0974C176.507 69.715 176.325 69.9286 175.683 69.9109C173.922 69.8646 174.201 70.0551 174.191 68.4798C174.176 65.7998 174.189 63.1185 174.186 60.4372C174.186 59.5571 174.182 59.5557 173.254 59.5557C172.189 59.5557 171.122 59.5979 170.06 59.5407C169.364 59.5026 169.222 59.753 169.229 60.3828C169.262 63.2886 169.226 66.1943 169.258 69.1001C169.265 69.6987 169.09 69.8714 168.478 69.8592C166.984 69.8279 166.982 69.8565 166.982 68.39C166.982 65.0108 166.982 61.6316 166.982 58.2538C166.982 57.6562 167.3 57.3573 167.936 57.3573C170.113 57.3573 172.289 57.3573 174.465 57.3573L174.467 57.356Z" fill="white"/>
<path d="M133.067 61.4247C133.067 58.8577 133.083 56.2907 133.055 53.725C133.049 53.1632 133.223 52.9972 133.799 53.0013C136.853 53.0258 139.908 53.0476 142.962 53.0013C145.597 52.9632 147.26 53.9495 147.372 56.7655C147.413 57.8116 147.37 58.8863 147.169 59.9107C146.875 61.4016 145.762 62.275 144.206 62.3974C143.171 62.479 142.129 62.5062 141.092 62.5185C139.425 62.5375 137.759 62.5471 136.094 62.5117C135.499 62.4994 135.347 62.7117 135.354 63.2531C135.378 65.212 135.344 67.171 135.375 69.1286C135.383 69.689 135.204 69.8618 134.627 69.855C133.07 69.836 133.07 69.8604 133.07 68.3804C133.07 66.0609 133.07 63.7428 133.07 61.4234L133.067 61.4247ZM139.705 60.1977V60.195C140.932 60.195 142.16 60.2099 143.387 60.1895C144.374 60.1732 144.982 59.5814 145.022 58.6278C145.043 58.1326 145.032 57.6361 145.029 57.1409C145.021 55.8377 144.492 55.269 143.146 55.2514C140.762 55.2214 138.376 55.25 135.991 55.2337C135.49 55.2296 135.351 55.4445 135.357 55.888C135.371 57.1042 135.383 58.3217 135.353 59.5379C135.339 60.0889 135.57 60.2222 136.094 60.2086C137.297 60.1773 138.502 60.1991 139.706 60.1991L139.705 60.1977Z" fill="white"/>
<path d="M88.3727 61.5309C88.3727 64.0531 88.3574 66.5752 88.3852 69.096C88.3908 69.6646 88.2614 69.8904 87.623 69.8823C84.9858 69.8496 82.3472 69.8768 79.7086 69.8646C77.9978 69.8564 77.1604 69.0538 77.1451 67.3737C77.1229 64.8747 77.1215 62.3757 77.1451 59.8753C77.1618 58.2157 78.0854 57.3614 79.7935 57.3573C81.6907 57.3518 83.5893 57.3355 85.4865 57.3682C86.0526 57.3777 86.2126 57.1764 86.2015 56.6676C86.1792 55.7003 86.214 54.7304 86.1889 53.7632C86.1764 53.2898 86.36 53.1496 86.8385 53.1469C88.3727 53.1374 88.3713 53.1197 88.3713 54.6406C88.3713 56.9369 88.3713 59.2332 88.3713 61.5309H88.3727ZM79.3317 63.6C79.3317 64.7713 79.3484 65.9426 79.3233 67.1125C79.3136 67.5819 79.4902 67.7506 79.9673 67.7478C81.8187 67.7329 83.67 67.7342 85.5213 67.7478C85.9859 67.7519 86.1987 67.5914 86.1973 67.1234C86.1889 64.804 86.1876 62.4845 86.1987 60.1665C86.2015 59.7012 86.0109 59.5434 85.5352 59.5488C83.6839 59.5693 81.8326 59.5733 79.9812 59.5475C79.4443 59.5393 79.3108 59.742 79.3233 60.2236C79.3512 61.3486 79.3317 62.475 79.3317 63.6014V63.6Z" fill="white"/>
<path d="M105.7 63.6096C105.7 62.3703 105.691 61.1323 105.702 59.893C105.716 58.3204 106.69 57.3682 108.303 57.3587C110.178 57.3478 112.053 57.3464 113.928 57.3587C115.511 57.3695 116.443 58.2592 116.461 59.7788C116.478 61.1976 116.446 62.6179 116.476 64.0354C116.488 64.5673 116.305 64.7373 115.76 64.7319C113.446 64.7088 111.13 64.7414 108.815 64.7101C108.171 64.702 107.871 64.853 107.944 65.5332C107.999 66.046 107.985 66.5698 107.947 67.0853C107.91 67.5955 108.118 67.7519 108.625 67.7478C110.939 67.7315 113.255 67.7628 115.57 67.7274C116.243 67.7166 116.52 67.8567 116.483 68.5763C116.41 70.0401 116.646 69.8592 115.13 69.8646C112.907 69.8741 110.685 69.8714 108.463 69.8646C106.573 69.8592 105.705 69.0144 105.701 67.1887C105.698 65.9943 105.701 64.8013 105.701 63.6069L105.7 63.6096ZM111.105 59.557C110.248 59.557 109.391 59.5693 108.534 59.5516C108.139 59.5434 107.932 59.6441 107.95 60.078C107.976 60.731 107.975 61.3854 107.95 62.0383C107.935 62.4505 108.107 62.6015 108.516 62.5988C110.253 62.5907 111.989 62.592 113.727 62.5988C114.14 62.6002 114.308 62.4206 114.298 62.0234C114.284 61.3922 114.28 60.761 114.298 60.1311C114.312 59.6863 114.113 59.5393 113.672 59.5502C112.816 59.572 111.959 59.557 111.102 59.557H111.105Z" fill="white"/>
<path d="M63.2943 63.5865C63.2943 62.3037 63.286 61.0195 63.2971 59.7366C63.3096 58.3368 64.2235 57.3927 65.6672 57.3669C67.6563 57.3315 69.6481 57.3315 71.6371 57.3669C73.0976 57.3927 74.0364 58.3722 74.0448 59.7951C74.0545 61.214 74.0197 62.6329 74.0601 64.0504C74.0754 64.6081 73.864 64.7374 73.3396 64.7319C71.1183 64.7115 68.897 64.7238 66.6757 64.7238C65.8587 64.7238 65.4503 65.1319 65.4503 65.9481C65.4503 66.2188 65.4503 66.4882 65.4503 66.7589C65.4521 67.4137 65.7794 67.742 66.4322 67.7438C68.6536 67.7438 70.8749 67.7438 73.0962 67.7438C74.0448 67.7438 74.0545 67.7452 74.0434 68.6498C74.0267 69.9911 74.2687 69.8646 72.786 69.8687C70.4715 69.8742 68.1584 69.8782 65.8439 69.866C64.1303 69.8565 63.2985 69.0334 63.2915 67.3697C63.286 66.1086 63.2915 64.8476 63.2915 63.5879L63.2943 63.5865ZM68.648 59.5584C67.7689 59.5584 66.8871 59.5326 66.0094 59.5788C65.8188 59.5884 65.4975 59.84 65.485 59.9978C65.428 60.7147 65.4322 61.4398 65.4822 62.1567C65.4934 62.3118 65.7855 62.573 65.9524 62.5757C67.7342 62.607 69.5173 62.6084 71.2991 62.5744C71.466 62.5717 71.7525 62.2819 71.7664 62.1078C71.8221 61.4357 71.7692 60.7569 71.797 60.0822C71.8151 59.6509 71.6162 59.5448 71.217 59.553C70.3602 59.5707 69.5034 59.5584 68.648 59.5584V59.5584Z" fill="white"/>
<path d="M186.408 63.6096C186.408 62.3036 186.39 60.9977 186.414 59.6917C186.44 58.2824 187.368 57.3777 188.82 57.3614C190.787 57.3396 192.755 57.3423 194.722 57.3614C196.231 57.375 197.181 58.3191 197.189 59.7801C197.197 61.2208 197.174 62.6628 197.2 64.1034C197.209 64.5836 197.03 64.7197 196.556 64.7169C194.172 64.6993 191.788 64.7265 189.405 64.6979C188.78 64.6911 188.508 64.8639 188.568 65.5005C188.614 65.9916 188.61 66.4936 188.568 66.9847C188.519 67.5683 188.795 67.722 189.34 67.7179C191.631 67.703 193.922 67.7111 196.214 67.7125C197.189 67.7125 197.197 67.7152 197.189 68.677C197.178 69.9952 197.356 69.8374 196.023 69.8415C193.639 69.8483 191.257 69.8483 188.873 69.8415C187.307 69.836 186.432 68.9953 186.411 67.4608C186.393 66.178 186.407 64.8938 186.408 63.611V63.6096ZM191.88 59.5543C190.999 59.5543 190.12 59.5693 189.241 59.5475C188.81 59.5366 188.59 59.6659 188.601 60.1148C188.617 60.7446 188.614 61.3759 188.603 62.0071C188.596 62.4057 188.781 62.5798 189.187 62.5784C190.947 62.573 192.706 62.5744 194.466 62.5771C194.877 62.5771 195.043 62.3853 195.034 61.9921C195.021 61.3623 195.022 60.731 195.034 60.0998C195.043 59.6972 194.866 59.5407 194.45 59.5489C193.594 59.5679 192.737 59.5543 191.88 59.5543V59.5543Z" fill="white"/>
<path d="M61.6851 69.8129C61.3902 69.8428 61.2358 69.8714 61.08 69.8714C58.2579 69.8741 55.4357 69.8646 52.6135 69.8823C52.0808 69.885 51.8972 69.7367 51.8999 69.1912C51.9208 64.0136 51.918 58.8374 51.9027 53.6598C51.9013 53.1592 52.0502 53.0014 52.5704 53.0014C54.2089 53 54.2089 52.9796 54.2089 54.5413C54.2089 58.6156 54.2228 62.69 54.1964 66.7643C54.1922 67.4336 54.3758 67.6703 55.0935 67.6458C56.618 67.5941 58.1466 67.6173 59.6738 67.6431C59.9158 67.6472 60.2427 67.7533 60.379 67.9247C60.8269 68.4906 61.2066 69.1082 61.6865 69.8156L61.6851 69.8129Z" fill="white"/>
<path d="M156.854 59.5584C155.217 59.5584 153.695 59.5584 152.172 59.5584C151.652 59.5584 151.746 59.9393 151.746 60.2359C151.741 63.0505 151.749 65.8665 151.741 68.6811C151.736 69.9884 151.92 69.832 150.571 69.8415C149.551 69.8483 149.55 69.8415 149.55 68.8484C149.55 65.2897 149.565 61.7309 149.536 58.1735C149.53 57.5206 149.731 57.3274 150.401 57.341C152.414 57.3818 154.428 57.3519 156.442 57.3573C158.168 57.3614 159.103 58.2688 159.11 59.9352C159.11 60.0033 159.111 60.0699 159.11 60.1379C159.051 62.0275 159.516 61.6656 157.396 61.72C156.948 61.7323 156.838 61.531 156.851 61.1473C156.868 60.6549 156.855 60.1624 156.855 59.5584H156.854Z" fill="white"/>
<path d="M119.552 63.5919C119.552 61.7445 119.564 59.8958 119.543 58.0484C119.538 57.5423 119.669 57.3342 120.244 57.3437C122.328 57.3763 124.413 57.3478 126.497 57.36C128.071 57.3695 129.049 58.3259 129.078 59.8495C129.081 59.9624 129.078 60.0753 129.078 60.1869C129.078 61.7935 128.817 62.0111 127.18 61.6955C127.036 61.6683 126.857 61.4139 126.837 61.2493C126.787 60.8263 126.854 60.3909 126.798 59.9692C126.779 59.8196 126.543 59.5815 126.401 59.5788C124.989 59.5502 123.576 59.5625 122.162 59.5611C121.651 59.5611 121.724 59.927 121.724 60.2318C121.72 62.8002 121.722 65.3699 121.722 67.9383C121.722 68.4117 121.705 68.8851 121.726 69.3572C121.742 69.7435 121.567 69.8741 121.19 69.87C119.196 69.8537 119.581 70.0591 119.556 68.3913C119.532 66.7915 119.55 65.1917 119.552 63.5919V63.5919Z" fill="white"/>
<path d="M31.2085 64.4204C31.2085 62.7525 31.221 61.0847 31.2001 59.4169C31.1946 58.9748 31.342 58.8238 31.7982 58.8347C33.6635 58.8823 33.3004 58.5966 33.3171 60.2644C33.3408 62.6083 33.3394 64.9523 33.3116 67.2962C33.3046 67.8526 33.4743 68.0376 34.0543 68.0322C36.5788 68.0077 39.1034 68.039 41.6279 68.009C42.2399 68.0022 42.4889 68.1791 42.411 68.7736C42.3846 68.9735 42.3901 69.1803 42.4096 69.3816C42.4555 69.8632 42.2218 69.9952 41.7545 69.9938C38.4427 69.9802 35.1295 69.9775 31.8177 69.9952C31.3128 69.9979 31.1946 69.8115 31.2001 69.3572C31.2224 67.7125 31.2085 66.0664 31.2085 64.4217V64.4204Z" fill="white"/>
<path d="M48.0597 58.7503C48.0597 60.3719 48.043 61.9935 48.0695 63.6137C48.0778 64.117 47.9651 64.3483 47.3865 64.3319C45.8287 64.2898 46.0401 64.4557 46.0345 63.0437C46.0234 60.7025 46.0165 58.3599 46.0415 56.0187C46.0484 55.4215 45.8829 55.1997 45.2222 55.2093C42.6768 55.2474 40.1314 55.2093 37.5861 55.2365C37.0297 55.2419 36.8725 55.0746 36.8781 54.5468C36.892 53.1646 36.8683 53.1646 38.3191 53.1646C41.304 53.1646 44.2903 53.185 47.2752 53.1483C47.9415 53.1401 48.0889 53.351 48.075 53.9536C48.0361 55.5521 48.0625 57.1505 48.0625 58.7503H48.0597Z" fill="white"/>
<path d="M163.858 63.6613C163.858 65.5074 163.844 67.3534 163.867 69.1981C163.874 69.6987 163.703 69.8674 163.188 69.8524C161.388 69.8007 161.694 70.085 161.686 68.3968C161.668 64.9754 161.695 61.5541 161.668 58.1328C161.662 57.5111 161.844 57.3152 162.487 57.3437C164.046 57.4131 163.846 57.1138 163.857 58.6647C163.868 60.3298 163.86 61.9962 163.86 63.6613H163.858Z" fill="white"/>
<path d="M163.858 54.2461C163.851 55.5493 163.94 55.3507 162.711 55.3548C161.572 55.3589 161.682 55.5058 161.682 54.2053C161.682 52.9741 161.587 53.1741 162.892 53.1619C163.857 53.1523 163.857 53.1619 163.857 54.2474L163.858 54.2461Z" fill="white"/>
</g>
<defs>
<clipPath id="clip0_1317_3650">
<rect width="166" height="22" fill="white" transform="translate(31.2002 53)"/>
</clipPath>
</defs>
</svg>
