<svg width="162" height="32" viewBox="0 0 162 32" fill="none" xmlns="http://www.w3.org/2000/svg">
<path d="M7.88544 19.4766H0V21.0549H7.88544V19.4766Z" fill="white"/>
<path d="M7.88543 17.5244V10.556C7.88543 10.2009 7.95569 9.84924 8.09218 9.52113C8.22867 9.19302 8.42873 8.89489 8.68093 8.64377C9.19028 8.1366 9.8811 7.85168 10.6014 7.85168H11.2905C11.6472 7.85168 12.0004 7.92163 12.3299 8.05753C12.6594 8.19344 12.9588 8.39264 13.211 8.64377C13.4632 8.89489 13.6633 9.19302 13.7998 9.52113C13.9363 9.84924 14.0065 10.2009 14.0065 10.556V17.5244H21.8919V9.98323C21.8919 7.33597 20.836 4.79711 18.9563 2.92497C17.0766 1.05282 14.5271 0.000709783 11.8685 0H10.0262C7.36712 0.000236598 4.81707 1.05211 2.93685 2.92428C1.05664 4.79645 0.000237615 7.33558 0 9.98323V17.5244H7.88543Z" fill="white"/>
<path d="M21.5586 24.5847C21.6972 24.0671 21.7934 23.5393 21.8462 23.0063H13.5083C13.2574 23.3593 12.9249 23.6472 12.539 23.8456C12.1531 24.0441 11.7249 24.1473 11.2905 24.1466H10.5987C10.1649 24.1466 9.73731 24.0431 9.3519 23.8447C8.96649 23.6463 8.63446 23.3588 8.38365 23.0063H0.0492747C0.102277 23.5392 0.198166 24.067 0.336018 24.5847H21.5586Z" fill="white"/>
<path d="M21.8946 19.4766H14.0092V21.0549H21.8946V19.4766Z" fill="white"/>
<path d="M4.09866 30.0683C5.81646 31.3263 7.8938 32.0033 10.0262 32H11.8685C14.0009 32.0033 16.0782 31.3263 17.796 30.0683H4.09866Z" fill="white"/>
<path d="M20.8094 26.5368H1.08509C1.36979 27.093 1.70609 27.6214 2.08959 28.1152H19.8032C20.1876 27.6217 20.5245 27.0932 20.8094 26.5368Z" fill="white"/>
<path d="M40.0645 15.582V13.998C40.0645 10.092 38.1925 8.418 35.4025 8.418C32.6305 8.418 30.7585 10.092 30.7585 13.998V15.582C30.7585 19.488 32.6305 21.162 35.4025 21.162C38.1925 21.162 40.0645 19.488 40.0645 15.582ZM32.8465 13.998C32.8465 11.316 33.7465 10.236 35.4025 10.236C37.0585 10.236 37.9765 11.316 37.9765 13.998V15.582C37.9765 18.264 37.0585 19.344 35.4025 19.344C33.7465 19.344 32.8465 18.264 32.8465 15.582V13.998ZM48.3676 13.17C47.8096 12.288 47.0176 11.838 45.8656 11.838C44.8036 11.838 44.1916 12.288 43.8496 12.81V12H41.9596V21H43.8856V15.564C43.8856 14.268 44.5696 13.548 45.5416 13.548C46.1536 13.548 46.5496 13.836 46.8376 14.25L48.3676 13.17ZM54.513 12.63C54.009 12.108 53.289 11.838 52.353 11.838C50.175 11.838 48.771 13.278 48.771 15.87V17.094C48.771 19.452 49.959 21.162 52.353 21.162C53.343 21.162 54.027 20.874 54.513 20.37V21H56.421V8.58H54.513V12.63ZM52.605 19.506C51.219 19.506 50.679 18.408 50.679 17.004V15.96C50.679 14.394 51.309 13.512 52.605 13.512C53.847 13.512 54.513 14.376 54.513 15.852V17.004C54.513 18.408 54.045 19.506 52.605 19.506ZM63.829 18.624C63.469 19.182 63.037 19.506 61.975 19.506C60.553 19.506 60.013 18.408 60.013 17.004V16.968H65.395V15.978C65.395 13.314 64.225 11.838 61.759 11.838C59.401 11.838 58.105 13.224 58.105 15.87V17.094C58.105 19.488 59.473 21.162 62.047 21.162C63.631 21.162 64.639 20.73 65.269 19.632L63.829 18.624ZM61.759 13.512C62.857 13.512 63.397 14.178 63.469 15.492H60.031C60.121 14.268 60.643 13.512 61.759 13.512ZM73.6625 13.17C73.1045 12.288 72.3125 11.838 71.1605 11.838C70.0985 11.838 69.4865 12.288 69.1445 12.81V12H67.2545V21H69.1805V15.564C69.1805 14.268 69.8645 13.548 70.8365 13.548C71.4485 13.548 71.8445 13.836 72.1325 14.25L73.6625 13.17ZM74.5143 18.174C74.5143 20.244 75.4683 21 77.8083 21V19.308C76.6203 19.308 76.4403 18.696 76.4403 17.724V8.58H74.5143V18.174ZM78.6584 12L82.0964 21.108C81.6464 22.458 81.1424 22.656 79.8824 22.656V24.42C82.4024 24.42 83.0684 23.664 83.8424 21.36L87.0104 12H85.0304L82.9784 18.336L80.6924 12H78.6584ZM90.2007 18.516H87.7167V21H90.2007V18.516ZM99.5573 8.58V17.13L94.4453 8.58H92.6453V21H94.6613V12.558L99.7193 21H101.573V8.58H99.5573ZM109.321 18.624C108.961 19.182 108.529 19.506 107.467 19.506C106.045 19.506 105.505 18.408 105.505 17.004V16.968H110.887V15.978C110.887 13.314 109.717 11.838 107.251 11.838C104.893 11.838 103.597 13.224 103.597 15.87V17.094C103.597 19.488 104.965 21.162 107.539 21.162C109.123 21.162 110.131 20.73 110.761 19.632L109.321 18.624ZM107.251 13.512C108.349 13.512 108.889 14.178 108.961 15.492H105.523C105.613 14.268 106.135 13.512 107.251 13.512ZM112.027 13.656H113.179V18.138C113.179 20.262 113.953 21 116.113 21H116.995V19.272H116.257C115.249 19.272 115.087 18.822 115.087 17.778V13.656H116.995V12H115.087V10.02H113.179V12H112.027V13.656ZM124.001 14.88L126.197 21H127.781L130.337 12H128.321L126.809 17.706L124.667 12H123.191L121.175 17.67L119.663 12H117.665L120.203 21H121.805L124.001 14.88ZM138.669 15.924C138.669 13.278 137.283 11.838 134.853 11.838C132.423 11.838 131.019 13.278 131.019 15.924V17.058C131.019 19.542 132.333 21.162 134.853 21.162C137.499 21.162 138.669 19.452 138.669 17.058V15.924ZM134.853 19.506C133.395 19.506 132.927 18.408 132.927 17.004V15.96C132.927 14.412 133.557 13.512 134.853 13.512C136.131 13.512 136.761 14.394 136.761 15.96V17.004C136.761 18.408 136.221 19.506 134.853 19.506ZM146.752 13.17C146.194 12.288 145.402 11.838 144.25 11.838C143.188 11.838 142.576 12.288 142.234 12.81V12H140.344V21H142.27V15.564C142.27 14.268 142.954 13.548 143.926 13.548C144.538 13.548 144.934 13.836 145.222 14.25L146.752 13.17ZM152.536 12L149.53 15.51V8.58H147.604V21H149.53V18.048L150.142 17.364L153.112 21H155.434L151.456 15.87L154.894 12H152.536Z" fill="white"/>
</svg>
