<svg width="228" height="128" viewBox="0 0 228 128" fill="none" xmlns="http://www.w3.org/2000/svg">
<g clip-path="url(#clip0_1317_3568)">
<path d="M113.614 82.0928L113.498 82.0259L86.1191 66.2481V34.8752L86.2351 34.8082L113.611 19L113.727 19.067L141.039 34.79L140.972 66.5586L133.641 62.5312L133.629 39.2709L113.614 27.6971L107.553 31.2344L127.54 42.586L127.739 66.1416L119.953 70.723L99.4898 59.0639L99.5234 42.8661L106.381 38.8965L99.8621 35.5693L93.627 39.2922L93.6026 62.2907L121.076 77.7062L113.614 82.0989V82.0928ZM86.583 65.9833L113.614 81.5601L120.155 77.7123L93.1417 62.5586L93.1661 39.0274L99.8438 35.0396L107.346 38.8691L99.9842 43.1279L99.9537 58.793L119.95 70.1842L127.275 65.8737L127.083 42.8508L106.628 31.2374L113.611 27.1613L134.093 39.0061L134.105 62.2603L140.514 65.7793L140.578 35.0548L113.614 19.5327L86.58 35.1431V65.9833H86.583Z" fill="white"/>
<path d="M99.856 35.5632L99.7461 35.5084L92.2627 31.7397L92.4702 31.3288L99.8468 35.0396L106.86 31.1004L106.833 23.0487L107.297 23.0457L107.321 31.3714L99.856 35.5632Z" fill="white"/>
<path d="M113.843 19.2649H113.382V27.4293H113.843V19.2649Z" fill="white"/>
<path d="M113.581 50.8112L113.471 50.7473L99.6423 43.1978L99.8651 42.793L113.578 50.2816L133.751 38.9391L133.977 39.3409L113.581 50.8112Z" fill="white"/>
<path d="M113.578 58.9117L99.6362 50.7442L99.8712 50.3485L113.584 58.379L127.266 50.796L127.491 51.1978L113.578 58.9117Z" fill="white"/>
<path d="M127.331 58.7856L113.587 66.6941L113.817 67.0923L127.561 59.1838L127.331 58.7856Z" fill="white"/>
<path d="M120.481 78.0898L120.475 71.0061L119.953 70.7169L114.017 74.1385L113.785 73.7397L119.947 70.1872L120.936 70.7351L120.942 77.2922L140.63 65.9711L140.859 66.3699L120.481 78.0898Z" fill="white"/>
<path d="M133.959 70.2024L126.988 66.0928L133.76 62.1963L133.989 62.5951L127.904 66.0958L134.194 69.8066L133.959 70.2024Z" fill="white"/>
<path d="M127.566 65.9019L127.327 66.295L133.876 70.2539L134.114 69.8608L127.566 65.9019Z" fill="white"/>
<path d="M93.2663 62.214L86.2463 65.9104L86.4615 66.3169L93.4815 62.6205L93.2663 62.214Z" fill="white"/>
<path d="M113.581 42.7077L106.393 38.8904L113.407 34.6925L113.645 35.0882L107.33 38.8691L113.581 42.1841L120.274 38.5829L120.493 38.9878L113.581 42.7077Z" fill="white"/>
<path d="M89.5861 89.8433C89.3999 90.169 89.3053 90.3303 89.2168 90.4947C87.7366 93.2679 86.2625 96.0442 84.7701 98.8113C84.6694 98.997 84.4252 99.2466 84.2757 99.2284C84.0712 99.204 83.8179 98.994 83.7111 98.7961C82.1942 95.9985 80.6957 93.1918 79.1942 90.3882C79.1056 90.2238 79.008 90.0685 78.831 89.7702C78.4739 93.0335 77.778 96.1081 77.833 99.3075H76.4504C77.0456 95.2618 77.6377 91.2162 78.2358 87.1644C79.1789 86.9696 79.2125 86.9848 79.655 87.8159C81.2023 90.7048 82.7497 93.5937 84.3001 96.4825C84.3978 96.6652 84.5076 96.8448 84.645 97.0853C84.764 96.8844 84.8647 96.7352 84.9471 96.5769C86.5311 93.5997 88.1273 90.6256 89.6899 87.6363C89.9554 87.1279 90.2636 86.9818 90.7916 87.1675C91.3715 91.2253 91.9483 95.274 92.5251 99.3136H90.7916C90.3918 96.1812 89.9981 93.1005 89.5861 89.8433V89.8433Z" fill="white"/>
<path d="M118.366 87.1248H120.551C120.829 89.1035 121.815 90.8173 122.48 92.6438C122.984 94.0289 123.561 95.3866 124.147 96.86C124.26 96.5982 124.345 96.4216 124.412 96.242C125.297 93.895 126.176 91.5449 127.077 89.2039C127.147 89.0183 127.385 88.8934 127.543 88.7412C127.687 88.8934 127.888 89.0183 127.965 89.1979C128.95 91.5479 129.918 93.9041 130.888 96.2572C130.974 96.4673 131.068 96.6773 131.209 97.0061C132.457 93.6453 134.035 90.5312 135.064 87.0944H136.498C136.19 87.7641 135.891 88.3699 135.628 88.9939C134.203 92.3638 132.787 95.7367 131.365 99.1065C131.264 99.344 131.227 99.6027 130.846 99.6058C130.467 99.6088 130.415 99.3622 130.315 99.1187C129.362 96.8173 128.41 94.516 127.458 92.2176C127.388 92.0472 127.308 91.8767 127.18 91.5906C127.009 92.0259 126.878 92.3485 126.753 92.6773C125.941 94.8265 125.139 96.9817 124.311 99.1248C124.238 99.3105 124.04 99.5084 123.851 99.5753C123.497 99.7032 123.414 99.3835 123.316 99.1339C122.038 95.9528 120.768 92.7686 119.477 89.5906C119.148 88.7747 118.757 87.9863 118.366 87.1218V87.1248Z" fill="white"/>
<path d="M148.761 94.3729C149.166 94.516 149.459 94.6043 149.737 94.723C150.631 95.1065 151.159 95.7671 151.162 96.7565C151.162 97.758 150.772 98.6012 149.804 98.9604C149.081 99.2283 148.284 99.3531 147.509 99.4171C146.575 99.4932 145.632 99.4353 144.732 99.4353V90.1568C145.843 90.1568 147.058 90.0624 148.251 90.1811C149.835 90.3394 150.677 91.5814 150.287 92.9574C150.079 93.6941 149.536 94.0837 148.761 94.3729V94.3729ZM146.325 98.7869C146.942 98.7869 147.442 98.8326 147.933 98.7778C148.944 98.6591 149.459 98.0107 149.49 96.9087C149.52 95.7763 149.029 95.07 148.022 94.9056C147.573 94.8326 147.103 94.8661 146.646 94.8995C146.533 94.9087 146.346 95.0974 146.343 95.204C146.322 96.3668 146.331 97.5327 146.331 98.7869H146.325ZM146.359 94.2725C147.235 94.3364 148.052 94.312 148.516 93.4932C148.938 92.7473 148.934 91.9315 148.422 91.2161C147.9 90.4886 147.14 90.6043 146.359 90.7656V94.2725V94.2725Z" fill="white"/>
<path d="M118.574 99.3167H116.636C116.26 98.4278 115.921 97.5845 115.537 96.7596C115.47 96.6165 115.229 96.4765 115.064 96.4734C113.874 96.4521 112.683 96.4613 111.49 96.4826C111.346 96.4826 111.13 96.5739 111.078 96.6835C110.681 97.5206 110.315 98.376 109.903 99.3106H108.725C109.607 97.5328 110.483 95.7763 111.35 94.0138C111.942 92.8113 112.509 91.5967 113.12 90.4065C113.22 90.2116 113.468 89.9955 113.669 89.9772C113.822 89.962 114.072 90.2086 114.16 90.3943C115.323 92.787 116.462 95.1918 117.621 97.5845C117.902 98.1629 118.238 98.7139 118.57 99.3197L118.574 99.3167ZM111.533 95.7307H115.079C114.49 94.4795 113.935 93.2953 113.327 92.0046C112.699 93.3106 112.125 94.5008 111.533 95.7307V95.7307Z" fill="white"/>
<path d="M94.683 99.3532V90.1477H99.8774C99.7767 90.4186 99.679 90.6774 99.615 90.8448H96.3097V94.2025C97.2924 94.1538 98.2568 94.1081 99.2701 94.0594C99.206 94.3821 99.1511 94.6561 99.087 94.9757C98.1592 94.9209 97.2497 94.8692 96.3066 94.8144V98.7352C97.5152 98.6104 98.7024 98.4886 99.8835 98.3638C99.8957 98.3821 99.9171 98.3973 99.9171 98.4095C99.8133 99.3684 99.8133 99.3593 98.8276 99.3562C97.4267 99.3501 96.0228 99.3562 94.6799 99.3562L94.683 99.3532Z" fill="white"/>
<path d="M139.028 94.2085C140.02 94.1567 140.972 94.108 141.976 94.0563L141.808 94.9756C140.884 94.9208 139.974 94.8691 139.025 94.8112V98.7321C140.221 98.6073 141.408 98.4855 142.641 98.3576C142.593 98.6681 142.544 98.9786 142.489 99.3226H137.398V90.1537H142.583C142.489 90.4124 142.397 90.6712 142.333 90.8447H139.028V94.2085V94.2085Z" fill="white"/>
<path d="M108.997 90.1781C109.045 90.4886 109.097 90.7991 109.149 91.1248C108.014 90.997 106.921 90.8752 105.81 90.7504V99.3166H104.119V90.7626C103.054 90.8783 101.943 90.997 100.771 91.1218C100.814 90.8387 100.86 90.5282 100.912 90.1781H109H108.997Z" fill="white"/>
<path d="M76.2001 101.609H77.2683C78.1442 103.618 79.0048 105.588 79.9204 107.688C80.8146 105.606 81.6509 103.655 82.5298 101.609C82.5298 101.609 82.6794 101.588 82.8259 101.581C82.9571 101.578 83.0914 101.594 83.2898 101.603C83.1036 101.995 82.9297 102.349 82.7679 102.705C81.8676 104.693 80.9764 106.68 80.0669 108.665C79.9998 108.811 79.8319 108.96 79.6854 108.997C79.6061 109.015 79.4229 108.817 79.3619 108.683C78.309 106.349 77.2683 104.011 76.197 101.609H76.2001Z" fill="white"/>
<path d="M105.676 103.38C106.259 103.38 106.833 103.374 107.406 103.38C108.374 103.393 109.024 103.788 109.235 104.489C109.445 105.186 109.174 105.761 108.279 106.406C108.881 107.207 109.482 108.011 110.074 108.799C109.192 108.997 109.109 108.966 108.578 108.212C108.313 107.837 108.017 107.478 107.785 107.085C107.529 106.65 107.208 106.437 106.671 106.622V108.839H105.679V103.377L105.676 103.38ZM106.653 106.202C107.477 106.291 107.919 106.114 108.157 105.636C108.398 105.158 108.34 104.333 108.026 103.998C107.623 103.569 107.138 103.682 106.653 103.764V106.202Z" fill="white"/>
<path d="M124.36 107.728C124.281 108.583 123.811 108.982 123.033 108.954C122.196 108.921 121.327 108.948 120.539 108.72C118.845 108.224 117.875 106.674 118.033 104.976C118.201 103.192 119.477 101.795 121.229 101.554C121.812 101.475 122.416 101.499 123.005 101.554C123.878 101.639 123.93 101.721 124.153 102.662C123.323 102.069 122.437 101.804 121.439 101.971C120.176 102.184 119.266 103.015 119.163 104.282C119.102 105.027 119.175 105.828 119.392 106.54C119.993 108.525 122.581 109.292 124.363 107.721L124.36 107.728Z" fill="white"/>
<path d="M92.4062 103.426H92.9769V108.866L92.8151 108.973C91.4936 107.682 90.1752 106.391 88.7682 105.015V108.83H88.1548V103.256C88.9849 103.922 89.6136 104.638 90.2973 105.292C90.984 105.95 91.6554 106.623 92.4062 107.362V103.423V103.426Z" fill="white"/>
<path d="M143.139 108.845H142.474C142.672 108.464 142.858 108.12 143.029 107.767C143.685 106.428 144.329 105.085 144.998 103.752C145.089 103.572 145.278 103.438 145.422 103.286C145.55 103.432 145.718 103.563 145.8 103.731C146.621 105.411 147.43 107.1 148.26 108.823H147.238C146.939 108.26 146.78 107.496 146.328 107.234C145.852 106.96 145.098 107.155 144.467 107.167C143.359 107.189 143.652 108.279 143.142 108.845H143.139ZM145.217 104.507C144.836 105.298 144.503 105.989 144.152 106.72H146.249C145.907 105.986 145.59 105.307 145.214 104.507H145.217Z" fill="white"/>
<path d="M125.291 108.845H124.681C125.56 107.046 126.42 105.283 127.29 103.527C127.339 103.426 127.507 103.28 127.562 103.301C127.699 103.353 127.852 103.469 127.916 103.597C128.432 104.644 128.923 105.7 129.43 106.75C129.759 107.432 130.107 108.108 130.473 108.833H129.39C129.133 108.288 129.005 107.457 128.587 107.265C127.983 106.988 127.15 107.079 126.442 107.189C125.581 107.32 125.801 108.276 125.294 108.842L125.291 108.845ZM126.347 106.696H128.425C128.074 105.95 127.757 105.268 127.397 104.504C127.022 105.289 126.695 105.968 126.347 106.696Z" fill="white"/>
<path d="M99.4287 103.426H100.424C100.424 104.571 100.421 105.691 100.424 106.814C100.43 108.212 101.528 108.912 102.826 108.358C103.454 108.09 103.625 107.56 103.622 106.954C103.616 105.901 103.579 104.848 103.555 103.794C103.555 103.685 103.555 103.572 103.555 103.429H104.11C104.11 104.756 104.132 106.053 104.095 107.35C104.086 107.651 103.921 107.983 103.744 108.239C103.265 108.927 101.974 109.18 100.869 108.851C100.015 108.598 99.563 107.989 99.5355 106.994C99.5081 106.075 99.5172 105.155 99.4989 104.236C99.4959 103.989 99.4562 103.743 99.4287 103.423V103.426Z" fill="white"/>
<path d="M131.276 103.399C131.978 103.399 132.707 103.353 133.428 103.411C134.239 103.475 134.77 104.011 134.874 104.738C134.981 105.49 134.618 106.227 133.885 106.504C133.382 106.696 132.817 106.738 132.246 106.854V108.83H131.279V103.399H131.276ZM132.195 106.358C132.802 106.479 133.312 106.437 133.638 105.938C133.998 105.387 134.001 104.778 133.717 104.19C133.489 103.718 133.043 103.648 132.588 103.731C132.442 103.758 132.219 103.95 132.213 104.078C132.176 104.817 132.195 105.56 132.195 106.361V106.358Z" fill="white"/>
<path d="M111.866 108.498C112.558 108.431 113.221 108.367 113.932 108.297L113.904 108.86H110.871V103.423H113.886C113.901 103.764 113.758 103.88 113.404 103.84C112.897 103.785 112.387 103.785 111.85 103.761V105.81C112.427 105.785 112.973 105.761 113.569 105.734L113.474 106.275C112.931 106.239 112.418 106.208 111.866 106.172V108.498V108.498Z" fill="white"/>
<path d="M86.4305 106.276C85.8414 106.239 85.3287 106.206 84.7824 106.172V108.489C85.4874 108.425 86.1772 108.364 86.9188 108.297L86.8211 108.851H83.8271V103.414H86.7906C86.7479 103.859 86.7479 103.852 86.3755 103.834C85.8475 103.807 85.3226 103.785 84.7824 103.761V105.81C85.3623 105.782 85.9086 105.758 86.5007 105.731L86.4335 106.273L86.4305 106.276Z" fill="white"/>
<path d="M137.764 103.962L137.85 103.405H142.623L142.715 103.959C142.043 103.895 141.405 103.837 140.74 103.773V108.836H139.739V103.782C139.11 103.84 138.476 103.898 137.764 103.962V103.962Z" fill="white"/>
<path d="M95.7632 108.82V103.779C95.1253 103.84 94.4875 103.898 93.8008 103.962L93.8527 103.423H98.6565C98.6778 103.591 98.6961 103.752 98.7205 103.956C98.0461 103.895 97.4113 103.837 96.7673 103.779V108.82H95.7632V108.82Z" fill="white"/>
<path d="M149.078 108.854V103.429H150.079V108.486C150.781 108.419 151.471 108.352 152.2 108.282L152.109 108.854H149.078V108.854Z" fill="white"/>
<path d="M136.888 108.848H135.906V103.432H136.888V108.848Z" fill="white"/>
</g>
<defs>
<clipPath id="clip0_1317_3568">
<rect width="76" height="90" fill="white" transform="translate(76.2002 19)"/>
</clipPath>
</defs>
</svg>
