<svg width="228" height="128" viewBox="0 0 228 128" fill="none" xmlns="http://www.w3.org/2000/svg">
<g clip-path="url(#clip0_1317_3503)">
<path d="M32.9365 75L23.8706 58.0135V75H18.9V53.0035H26.6856L35.0605 68.5592L43.4389 53.0035H51.121V75H46.1153V58.0135L37.0775 75H32.9365V75Z" fill="white"/>
<path d="M66.8622 74.9982H61.7513V53H66.8622V74.9982Z" fill="white"/>
<path d="M76.8366 64.7405H92.2341C95.2228 64.7405 96.9276 63.4169 96.9276 61.1257C96.9276 58.8345 95.2228 57.4751 92.2341 57.4751H76.8366V53H92.5078C98.1729 53 101.998 55.792 101.998 61.0881C101.998 65.0249 99.7724 67.6416 96.2278 68.6397L102.594 74.9964H96.7171L90.8398 69.1405H81.9422V74.9964H76.8331L76.8366 64.7387V64.7405Z" fill="white"/>
<path d="M123.555 58.1906L113.579 74.9964H108.123L120.705 53H126.441L139.023 74.9982H133.497L123.557 58.1924L123.555 58.1906Z" fill="white"/>
<path d="M171.767 74.9982H167.249L150.946 59.693V74.9982H146.011V53H151.225L166.796 67.4538V53H171.767V74.9982Z" fill="white"/>
<path d="M194.432 58.1906L184.456 74.9964H179L191.582 53H197.316L209.9 74.9982H204.373L194.432 58.1924V58.1906Z" fill="white"/>
</g>
<defs>
<clipPath id="clip0_1317_3503">
<rect width="191" height="22" fill="white" transform="translate(18.9 53)"/>
</clipPath>
</defs>
</svg>
