<svg width="50" height="50" viewBox="0 0 50 50" fill="none" xmlns="http://www.w3.org/2000/svg">
<path d="M37.1056 6.98103L28.7444 19.0921C28.6254 19.2666 28.575 19.4771 28.6028 19.685C28.6306 19.8928 28.7345 20.0837 28.8954 20.2226C29.0564 20.3614 29.2634 20.4387 29.4782 20.4401C29.693 20.4415 29.901 20.367 30.0639 20.2304L38.2944 13.2656C38.3427 13.2235 38.4024 13.196 38.4664 13.1865C38.5304 13.1769 38.5958 13.1858 38.6547 13.2119C38.7137 13.2381 38.7635 13.2804 38.7982 13.3337C38.8328 13.387 38.8508 13.4491 38.85 13.5122V35.3171C38.85 35.3838 38.8289 35.449 38.7896 35.5036C38.7503 35.5583 38.6948 35.5998 38.6305 35.6226C38.5662 35.6454 38.4962 35.6483 38.4301 35.631C38.3641 35.6137 38.305 35.5769 38.2611 35.5257L13.3833 6.47154C12.9832 6.01056 12.4849 5.64012 11.9232 5.386C11.3615 5.13187 10.7497 5.00015 10.1306 5H9.26111C8.13099 5 7.04716 5.43799 6.24805 6.21761C5.44894 6.99723 5 8.05463 5 9.15718V39.8672C5 40.9698 5.44894 42.0272 6.24805 42.8068C7.04716 43.5864 8.13099 44.0244 9.26111 44.0244C9.98976 44.0246 10.7063 43.8426 11.3424 43.4958C11.9784 43.149 12.5128 42.6489 12.8944 42.0434L21.2556 29.9323C21.3746 29.7578 21.425 29.5472 21.3972 29.3394C21.3694 29.1316 21.2655 28.9406 21.1046 28.8018C20.9436 28.663 20.7366 28.5857 20.5218 28.5843C20.307 28.5829 20.099 28.6574 19.9361 28.794L11.7056 35.7588C11.6573 35.8009 11.5976 35.8284 11.5336 35.8379C11.4696 35.8474 11.4042 35.8386 11.3453 35.8124C11.2863 35.7863 11.2365 35.744 11.2018 35.6907C11.1672 35.6373 11.1492 35.5753 11.15 35.5122V13.7019C11.15 13.6351 11.1711 13.57 11.2104 13.5154C11.2497 13.4607 11.3052 13.4191 11.3695 13.3964C11.4339 13.3736 11.5038 13.3706 11.5699 13.388C11.6359 13.4053 11.695 13.442 11.7389 13.4932L36.6139 42.5528C37.014 43.0138 37.5123 43.3843 38.074 43.6384C38.6358 43.8925 39.2475 44.0242 39.8667 44.0244H40.7361C41.2959 44.0247 41.8503 43.9175 42.3676 43.7087C42.8849 43.5 43.355 43.1938 43.751 42.8077C44.1469 42.4217 44.4611 41.9633 44.6754 41.4587C44.8897 40.9542 45 40.4134 45 39.8672V9.15718C45 8.05463 44.5511 6.99723 43.7519 6.21761C42.9528 5.43799 41.869 5 40.7389 5C40.0102 4.99981 39.2937 5.18181 38.6576 5.52861C38.0216 5.87542 37.4872 6.37546 37.1056 6.98103Z" fill="white"/>
</svg>
