<svg width="228" height="128" viewBox="0 0 228 128" fill="none" xmlns="http://www.w3.org/2000/svg">
<g clip-path="url(#clip0_1317_3666)">
<path d="M88.9895 23.3305V68.9747H86.3401V18.5283H87.1388C92.2743 18.5283 97.4082 18.5493 102.544 18.5208C105.514 18.5043 107.736 19.7405 109.32 22.2443C119.297 38.0207 129.286 53.7895 139.273 69.5613C139.398 69.7593 139.536 69.9499 139.79 70.3189V24.3401H142.482V74.7296C142.384 74.7476 142.28 74.7836 142.177 74.7836C136.664 74.7836 131.151 74.8196 125.639 74.7656C123.002 74.7401 120.974 73.4904 119.561 71.2625C115.932 65.5392 112.305 59.8129 108.679 54.0865C102.269 43.9675 95.8617 33.847 89.4525 23.7281C89.3596 23.581 89.2547 23.443 89.1558 23.3005L88.988 23.329L88.9895 23.3305Z" fill="white"/>
<path d="M117.787 92.8793C117.414 97.4354 117.052 101.837 116.69 106.264H114.509C115.026 100.032 115.54 93.8439 116.053 87.657C116.155 87.6255 116.215 87.6015 116.278 87.5895C117.261 87.3975 117.784 87.783 118.233 88.7237C120.405 93.2708 122.673 97.773 124.908 102.29C124.942 102.361 124.984 102.428 125.059 102.563C125.735 101.133 126.357 99.7653 127.022 98.4196C128.745 94.9346 130.481 91.4571 132.237 87.9885C132.336 87.7935 132.646 87.645 132.883 87.5985C133.22 87.5325 133.58 87.582 133.984 87.582C134.512 93.8319 135.036 100.022 135.562 106.257H133.235C132.875 101.833 132.514 97.4144 132.141 92.8163C131.765 93.6054 131.462 94.255 131.145 94.8971C129.321 98.5786 127.49 102.257 125.675 105.943C125.524 106.251 125.387 106.431 124.998 106.425C124.611 106.419 124.415 106.296 124.244 105.948C122.182 101.741 120.103 97.542 118.029 93.3413C117.972 93.2273 117.913 93.1163 117.788 92.8763L117.787 92.8793Z" fill="white"/>
<path d="M87.7637 87.618C87.8806 87.603 87.9465 87.5865 88.0124 87.5865C88.7212 87.6 89.5904 87.372 90.0909 87.702C90.5524 88.0065 90.6348 88.9052 90.8551 89.5518C92.1693 93.3968 93.4746 97.2449 94.7843 101.091C94.8038 101.147 94.8367 101.199 94.8907 101.309C95.3627 99.8688 95.8093 98.4766 96.2768 97.0919C97.2928 94.0824 98.3238 91.079 99.3383 88.0696C99.4492 87.741 99.5766 87.5745 99.9767 87.57C101.622 87.5565 101.619 87.54 102.153 89.0957C103.527 93.1073 104.905 97.1174 106.291 101.157C107.848 96.6553 109.413 92.1307 110.979 87.6045H113.219C112.614 89.3552 112.022 91.073 111.424 92.7892C109.888 97.1924 108.349 101.594 106.814 105.999C106.707 106.308 106.677 106.621 106.197 106.63C105.721 106.639 105.67 106.348 105.562 106.029C103.919 101.169 102.272 96.3133 100.626 91.4556C100.591 91.352 100.542 91.253 100.476 91.0925C99.8643 92.9348 99.2844 94.7215 98.6759 96.4993C97.576 99.7143 96.4566 102.922 95.3537 106.135C95.2518 106.432 95.1484 106.633 94.7678 106.626C94.4201 106.62 94.2613 106.5 94.1504 106.179C92.042 100.07 89.9245 93.9654 87.8101 87.8595C87.7891 87.7995 87.7847 87.7335 87.7637 87.6195V87.618Z" fill="white"/>
<path d="M171.74 106.833C171.314 106.59 170.933 106.48 170.712 106.23C166.514 101.518 162.336 96.7873 158.153 92.0631C158.024 91.9176 157.886 91.7811 157.703 91.5875V106.263H155.331V87.6525C156.357 87.4394 157.114 87.6345 157.847 88.4851C161.517 92.7442 165.262 96.9373 168.981 101.151C169.078 101.261 169.182 101.366 169.363 101.56V87.636H171.74V106.834V106.833Z" fill="white"/>
<path d="M71.0431 87.6119H73.4408V106.576C72.9732 106.788 72.672 106.579 72.3663 106.231C68.1779 101.48 63.9806 96.7378 59.7847 91.9941C59.6843 91.88 59.5779 91.7705 59.3996 91.5785V106.251H57.0304V87.6464C57.9954 87.4679 58.7492 87.5759 59.479 88.4235C63.2058 92.7502 67.0106 97.0093 70.7884 101.294C70.8453 101.358 70.8963 101.43 71.0431 101.618V87.6119V87.6119Z" fill="white"/>
<path d="M135.107 18.5568H137.714V61.8261C136.804 60.3919 135.974 59.0927 135.162 57.783C135.078 57.648 135.089 57.441 135.089 57.267C135.086 44.4956 135.086 31.7257 135.087 18.9543C135.087 18.8448 135.098 18.7368 135.108 18.5568H135.107Z" fill="white"/>
<path d="M91.1055 31.5742C92.0166 33.0204 92.8363 34.3091 93.638 35.6083C93.7234 35.7448 93.7309 35.9459 93.7309 36.1169C93.7339 48.8868 93.7339 61.6566 93.7324 74.4265C93.7324 74.5135 93.7189 74.6005 93.7069 74.7356H91.1055V31.5742Z" fill="white"/>
<path d="M132.529 53.647C131.624 52.2233 130.819 50.9736 130.036 49.7119C129.938 49.5559 129.91 49.3338 129.91 49.1418C129.905 37.1791 129.907 25.2148 129.91 13.252C129.91 13.1875 129.926 13.1215 129.943 13H132.531V53.647H132.529Z" fill="white"/>
<path d="M98.8858 80.3554H96.2979V39.7775C97.2 41.2057 98.0286 42.5049 98.8379 43.8161C98.9218 43.9526 98.9113 44.1596 98.9113 44.3336C98.9143 56.1914 98.9143 68.0491 98.9113 79.9069C98.9113 80.0359 98.8963 80.1649 98.8843 80.3554H98.8858Z" fill="white"/>
<path d="M136.872 106.3C137.262 105.351 137.611 104.494 137.964 103.639C140.104 98.4496 142.256 93.2648 144.371 88.0666C144.622 87.447 144.898 87.1214 145.641 87.4005C148.208 93.6279 150.801 99.9168 153.431 106.299C152.636 106.299 151.95 106.333 151.273 106.276C151.085 106.261 150.847 106.003 150.76 105.802C150.188 104.479 149.638 103.145 149.11 101.804C148.961 101.423 148.773 101.257 148.34 101.261C146.187 101.284 144.032 101.282 141.877 101.261C141.45 101.257 141.251 101.411 141.101 101.798C140.581 103.142 140.014 104.47 139.493 105.814C139.352 106.177 139.166 106.332 138.766 106.308C138.174 106.273 137.578 106.299 136.872 106.299V106.3ZM145.118 91.7961C144.152 94.264 143.179 96.7499 142.192 99.2717H148.012C147.035 96.7469 146.077 94.273 145.118 91.7961V91.7961Z" fill="white"/>
<path d="M76.6865 106.254V87.6224H86.5423V89.7047H79.1186V95.8226H85.2896V97.9635H79.1186V104.197H87.5928V106.255H76.6865V106.254Z" fill="white"/>
<path d="M101.24 47.5786C102.16 49.0383 102.987 50.342 103.798 51.6547C103.871 51.7732 103.867 51.9533 103.867 52.1033C103.87 58.5527 103.87 65.0022 103.867 71.4531C103.867 71.5401 103.849 71.6271 103.834 71.7592H101.238V47.5786H101.24Z" fill="white"/>
<path d="M124.969 21.7313H127.589V45.8099C127.188 45.1933 126.901 44.6547 126.526 44.1896C125.254 42.6144 124.881 40.8621 124.929 38.8278C125.053 33.406 124.971 27.9812 124.971 22.5564V21.7313H124.969Z" fill="white"/>
<path d="M153.506 114.853C152.959 115.066 152.803 114.794 152.657 114.421C152.552 114.148 152.386 113.729 152.191 113.693C151.656 113.597 151.078 113.602 150.547 113.714C150.362 113.753 150.239 114.211 150.135 114.494C149.997 114.872 149.791 115.033 149.332 114.853C149.992 113.258 150.645 111.68 151.297 110.103C151.373 110.1 151.451 110.097 151.527 110.094C152.181 111.668 152.836 113.242 153.506 114.853V114.853ZM152.098 113.084C151.857 112.466 151.653 111.944 151.406 111.315C151.157 111.953 150.948 112.492 150.717 113.084H152.098Z" fill="white"/>
<path d="M80.3864 114.851C79.775 115.102 79.5982 114.734 79.5263 114.358C79.354 113.447 78.6676 113.701 78.0832 113.632C77.4778 113.561 77.1976 113.81 77.0492 114.361C76.9518 114.719 76.8155 115.12 76.228 114.833C76.3194 114.608 76.4064 114.388 76.4978 114.167C77.0522 112.82 77.6082 111.474 78.1641 110.127C78.242 110.111 78.3185 110.093 78.3964 110.076C79.0557 111.659 79.7166 113.24 80.3879 114.853L80.3864 114.851ZM77.5917 113.071H78.9658C78.7426 112.493 78.5433 111.973 78.2915 111.321C78.0368 111.958 77.8285 112.477 77.5917 113.071Z" fill="white"/>
<path d="M96.5166 115C96.3533 114.875 96.0521 114.754 96.0491 114.625C96.0161 113.168 96.0281 111.71 96.0281 110.175C96.6006 110.175 97.1056 110.15 97.6061 110.181C98.3479 110.226 98.8828 110.768 98.9083 111.447C98.9323 112.118 98.4288 112.685 97.6855 112.792C97.3813 112.835 97.0696 112.825 96.683 112.843V114.872C96.6275 114.914 96.5721 114.958 96.5181 115H96.5166ZM96.7055 112.462C97.2749 112.22 97.7349 112.079 98.1216 111.827C98.2295 111.757 98.2145 111.209 98.0961 111.134C97.708 110.886 97.2449 110.757 96.7055 110.54V112.462V112.462Z" fill="white"/>
<path d="M60.5684 110.921C59.3846 110.504 58.4645 110.67 57.8981 111.403C57.4185 112.022 57.4021 113.008 57.8591 113.65C58.3926 114.398 59.3501 114.599 60.7213 114.322C60.5834 114.496 60.4815 114.759 60.3017 114.831C59.2887 115.234 57.9505 114.811 57.3256 113.933C56.7172 113.078 56.7637 111.83 57.4365 111.018C58.1229 110.189 59.497 109.851 60.471 110.312C60.6194 110.382 60.6778 110.642 60.7782 110.814C60.7078 110.849 60.6374 110.885 60.5684 110.919V110.921Z" fill="white"/>
<path d="M133.115 110.685V114.823C132.616 115.057 132.474 114.878 132.48 114.433C132.492 113.455 132.483 112.478 132.483 111.5C132.483 111.261 132.483 111.024 132.483 110.726H131.026C130.983 110.664 130.938 110.601 130.894 110.54C131.032 110.418 131.167 110.196 131.308 110.192C132.306 110.162 133.305 110.163 134.303 110.189C134.455 110.193 134.602 110.376 134.75 110.478C134.719 110.549 134.687 110.618 134.656 110.688H133.114L133.115 110.685Z" fill="white"/>
<path d="M169.76 114.356C170.399 114.356 170.932 114.37 171.463 114.352C171.867 114.338 171.987 114.497 171.839 114.901H169.125C169.125 113.411 169.113 111.952 169.146 110.493C169.149 110.36 169.441 110.234 169.6 110.103C169.654 110.144 169.706 110.184 169.76 110.225V114.355V114.356Z" fill="white"/>
<path d="M115.308 114.902H114.721V110.219H115.308V114.902Z" fill="white"/>
</g>
<defs>
<clipPath id="clip0_1317_3666">
<rect width="115" height="102" fill="white" transform="translate(56.9 13)"/>
</clipPath>
</defs>
</svg>
