<svg width="228" height="128" viewBox="0 0 228 128" fill="none" xmlns="http://www.w3.org/2000/svg">
<g clip-path="url(#clip0_1287_3645)">
<path d="M34.8 56V72H51.1778V56H34.8ZM40.531 66.074H38.9155V58.6696H40.531V66.074ZM43.8544 69.2594H42.2389V58.6696H43.8544V69.2611V69.2594ZM47.1778 66.074H45.5937V58.6696H47.1778V66.074Z" fill="white"/>
<path d="M61.8097 66.8945V68.7903H60.1711V63.5704H61.846" fill="white"/>
<path d="M85.7781 58.8518L91.3952 68.9016H89.1444L87.5174 65.9176H81.3211L79.7386 68.9016H77.666L83.1049 58.8518H85.7798H85.7781ZM84.4184 60.0173H84.3953L81.8095 64.8198H87.0026L84.4168 60.0173H84.4184Z" fill="white"/>
<path d="M108.624 68.9032L101.372 60.4768V68.9032H99.6196V58.8518H102.085L109.154 67.1944V58.8518H110.885V68.9016H108.624V68.9032Z" fill="white"/>
<path d="M124.354 69.5641V60.2656H119.809V59.1097H130.766V60.2656H126.263V69.5641H124.354Z" fill="white"/>
<path d="M142.129 67.6409H150.302V68.6984H139.943V59.1259H149.992V60.1834H142.127V63.3431H147.225V64.4006H142.127V67.6409H142.129Z" fill="white"/>
<path d="M186.812 58.8518L192.8 68.9016H190.401L188.666 65.9176H182.059L180.371 68.9016H178.162L183.96 58.8518H186.812ZM185.363 60.0173H185.34L182.582 64.8198H188.12L185.363 60.0173Z" fill="white"/>
<path d="M68.308 60.5848C69.1628 60.5848 69.8575 61.2635 69.8575 62.0986C69.8575 62.9336 69.1628 63.6123 68.308 63.6123H61.8213V60.5848H68.308ZM68.308 58.9727H60.1711V65.2244H68.308C70.0671 65.2244 71.5077 63.8187 71.5077 62.0986C71.5077 60.3801 70.0687 58.9727 68.308 58.9727Z" fill="white"/>
<path d="M167.63 60.4639C168.485 60.4639 169.18 61.1426 169.18 61.9777C169.18 62.8127 168.485 63.4914 167.63 63.4914H161.144V60.4639H167.63ZM167.63 58.8518H159.493V65.1035H167.63C169.389 65.1035 170.83 63.6978 170.83 61.9777C170.83 60.2592 169.391 58.8518 167.63 58.8518Z" fill="white"/>
<path d="M166.051 65.1035L168.599 68.6985C168.599 68.6985 170.648 68.9258 170.587 68.6985C170.526 68.4712 168.045 65.0761 168.045 65.0761L160.989 65.0277V68.7001H159.495V64.3152" fill="white"/>
</g>
<defs>
<clipPath id="clip0_1287_3645">
<rect width="158" height="16" fill="white" transform="translate(34.8 56)"/>
</clipPath>
</defs>
</svg>
