<svg width="139" height="175" viewBox="0 0 139 175" fill="none" xmlns="http://www.w3.org/2000/svg">
<path d="M14.1904 123.54L14.1904 170.56H69.5004V123.54H14.1904Z" fill="url(#paint0_linear_389_3685)"/>
<path d="M69.5 41.0301L69.5 170.56H124.81V41.0301H69.5Z" fill="url(#paint1_linear_389_3685)"/>
<path d="M37.0596 102.95L37.0596 170.55H101.95V102.95H37.0596Z" fill="url(#paint2_linear_389_3685)"/>
<path d="M137.5 174.04H1.5C0.67 174.04 0 173.37 0 172.54C0 171.71 0.67 171.04 1.5 171.04H137.5C138.33 171.04 139 171.71 139 172.54C139 173.37 138.33 174.04 137.5 174.04Z" fill="white"/>
<path d="M101.94 170.56L101.94 0L54.4804 0L54.4804 170.56H101.94Z" fill="url(#paint3_linear_389_3685)"/>
<defs>
<linearGradient id="paint0_linear_389_3685" x1="41.8404" y1="123.55" x2="41.8404" y2="170.56" gradientUnits="userSpaceOnUse">
<stop stop-color="#0A0067"/>
<stop offset="0.27" stop-color="#0C107E"/>
<stop offset="0.83" stop-color="#123CBB"/>
<stop offset="1" stop-color="#144ACE"/>
</linearGradient>
<linearGradient id="paint1_linear_389_3685" x1="97.15" y1="41.0301" x2="97.15" y2="170.56" gradientUnits="userSpaceOnUse">
<stop stop-color="#326FBC"/>
<stop offset="0.18" stop-color="#4974BB"/>
<stop offset="0.56" stop-color="#8682BA"/>
<stop offset="1" stop-color="#D395BA"/>
</linearGradient>
<linearGradient id="paint2_linear_389_3685" x1="69.4996" y1="165.22" x2="69.4996" y2="100.86" gradientUnits="userSpaceOnUse">
<stop stop-color="white" stop-opacity="0.1"/>
<stop offset="0.23" stop-color="white" stop-opacity="0.36"/>
<stop offset="0.51" stop-color="white" stop-opacity="0.63"/>
<stop offset="0.73" stop-color="white" stop-opacity="0.83"/>
<stop offset="0.9" stop-color="white" stop-opacity="0.95"/>
<stop offset="1" stop-color="white"/>
</linearGradient>
<linearGradient id="paint3_linear_389_3685" x1="78.2104" y1="170.55" x2="78.2104" y2="0" gradientUnits="userSpaceOnUse">
<stop stop-color="white" stop-opacity="0"/>
<stop offset="0.09" stop-color="#FEFAFB" stop-opacity="0.05"/>
<stop offset="0.26" stop-color="#FCECF1" stop-opacity="0.18"/>
<stop offset="0.47" stop-color="#F9D7E2" stop-opacity="0.39"/>
<stop offset="0.74" stop-color="#F6BACC" stop-opacity="0.68"/>
<stop offset="1" stop-color="#F29AB5"/>
</linearGradient>
</defs>
</svg>
