<svg width="228" height="128" viewBox="0 0 228 128" fill="none" xmlns="http://www.w3.org/2000/svg">
<g clip-path="url(#clip0_1317_3530)">
<path d="M30.8 85.0341V73.4242H37.2643L36.9568 72.2589C36.3216 69.9653 37.6241 67.5792 39.8673 66.9297C42.1105 66.2803 44.4441 67.6121 45.0793 69.9057C45.2923 70.6743 45.2923 71.4882 45.0793 72.2589L44.7717 73.4242H51.236V85.0341H30.8V85.0341Z" fill="white"/>
<path d="M72.4639 56.8613C72.4639 65.0821 65.7323 71.5355 57.1394 71.5355H53.1194V62.7803C53.5455 62.883 53.9797 62.9344 54.4179 62.9344C57.7485 62.9344 60.4479 60.1743 60.4479 56.7688C60.4479 53.3633 57.7485 50.6032 54.4179 50.6032C53.9797 50.6032 53.5455 50.6545 53.1194 50.7573V42.0042H57.1394C65.7323 42.0042 72.4639 48.5294 72.4639 56.8613Z" fill="white"/>
<path d="M47.037 71.5313C47.0471 71.4018 47.0511 71.2724 47.0511 71.1449C47.0511 67.7395 44.3516 64.9793 41.021 64.9793C37.6904 64.9793 34.991 67.7395 34.991 71.1449C34.991 71.2724 34.991 71.4018 35.005 71.5313H30.8V42H51.236V53.5852L52.5445 52.9173C53.1254 52.6131 53.7666 52.4528 54.4179 52.4466C56.7495 52.4466 58.6389 54.3785 58.6389 56.7626C58.6389 59.1466 56.7495 61.0785 54.4179 61.0785C53.7666 61.0744 53.1234 60.912 52.5445 60.6079L51.236 59.9399V71.5252L47.037 71.5313Z" fill="white"/>
<path d="M87.1069 60.7456V42.0432H94.3269C95.7139 42.0432 96.8958 42.3124 97.8726 42.8509C98.8173 43.3565 99.5952 44.1354 100.11 45.089C100.638 46.0981 100.906 47.2306 100.884 48.3774C100.906 49.5242 100.634 50.6587 100.098 51.6657C99.5711 52.6173 98.7792 53.39 97.8244 53.8853C96.8314 54.4156 95.6335 54.6807 94.2285 54.6807H89.6275V51.5116H93.6033C94.2405 51.5362 94.8737 51.3985 95.4465 51.1129C95.9129 50.8683 96.2948 50.4819 96.538 50.0072C96.7872 49.5016 96.9118 48.9426 96.8998 48.3774C96.9118 47.8122 96.7872 47.2511 96.538 46.7476C96.2927 46.2769 95.9088 45.8967 95.4425 45.6604C94.8616 45.3809 94.2264 45.2473 93.5852 45.2719H90.9722V60.7456H87.1069V60.7456Z" fill="white"/>
<path d="M112.13 54.771V46.7146H115.937V60.7455H112.282V58.1971H112.14C111.84 59.0048 111.301 59.6974 110.598 60.1783C109.822 60.6941 108.91 60.9552 107.985 60.9284C107.135 60.9469 106.299 60.725 105.563 60.2893C104.861 59.8556 104.295 59.2247 103.933 58.4704C103.521 57.5908 103.318 56.6228 103.34 55.6486V46.7146H107.137V54.9539C107.137 55.776 107.354 56.4316 107.788 56.9187C108.232 57.4058 108.861 57.6689 109.513 57.6401C109.961 57.6422 110.403 57.5312 110.799 57.3154C111.205 57.0934 111.541 56.7605 111.768 56.3515C112.029 55.8685 112.154 55.3218 112.13 54.771V54.771Z" fill="white"/>
<path d="M118.896 60.7455V58.4252L125.613 49.9207V49.82H119.135V46.7146H130.202V49.2446L123.896 57.5435V57.6442H130.435V60.7496L118.896 60.7455Z" fill="white"/>
<path d="M133.285 60.7455V58.4252L140.001 49.9207V49.82H133.516V46.7146H144.586V49.2446L138.278 57.5435V57.6442H144.825V60.7496L133.285 60.7455V60.7455Z" fill="white"/>
<path d="M151.544 42.0391V60.7415H147.739V42.0391H151.544Z" fill="white"/>
<path d="M160.835 61.0189C159.424 61.0189 158.21 60.725 157.195 60.1372C156.188 59.5597 155.372 58.6883 154.849 57.636C153.755 55.2109 153.755 52.4199 154.849 49.9947C155.367 48.9363 156.174 48.0505 157.168 47.4463C158.236 46.8174 159.452 46.5009 160.684 46.5317C161.548 46.5235 162.405 46.6756 163.217 46.9756C163.986 47.2634 164.688 47.7176 165.271 48.3054C165.882 48.9343 166.35 49.6947 166.642 50.5291C166.989 51.532 167.156 52.5925 167.136 53.6571V54.7258H155.546V52.3151H163.55C163.56 51.7951 163.438 51.2813 163.195 50.8251C162.961 50.3996 162.622 50.0482 162.208 49.8077C161.761 49.5549 161.257 49.4275 160.746 49.4378C160.208 49.4296 159.679 49.5714 159.215 49.8488C158.781 50.1098 158.421 50.4859 158.173 50.936C157.92 51.3985 157.788 51.9184 157.79 52.4487V54.7402C157.773 55.363 157.904 55.9795 158.169 56.5406C158.407 57.0297 158.781 57.4367 159.245 57.71C159.749 57.9936 160.32 58.1354 160.897 58.121C161.291 58.1252 161.683 58.0635 162.059 57.9381C162.397 57.8251 162.704 57.6381 162.961 57.3894C163.215 57.1387 163.412 56.8345 163.534 56.4954L167.054 56.7215C166.887 57.56 166.509 58.3389 165.958 58.9822C165.377 59.6481 164.648 60.1619 163.832 60.4804C162.875 60.8545 161.858 61.0374 160.835 61.0189V61.0189Z" fill="white"/>
<path d="M90.4134 67.012L94.8355 81.2258H95.0043L99.4364 67.012H103.724L97.4163 85.7144H92.4315L86.116 67.012H90.4134V67.012Z" fill="white"/>
<path d="M110.54 85.9938C109.129 85.9938 107.915 85.6999 106.9 85.1121C105.895 84.5367 105.079 83.6673 104.556 82.6171C103.461 80.194 103.461 77.401 104.556 74.9779C105.075 73.9195 105.879 73.0337 106.874 72.4294C107.941 71.8005 109.157 71.484 110.389 71.5149C111.253 71.5067 112.11 71.6587 112.922 71.9588C113.692 72.2445 114.393 72.6987 114.976 73.2865C115.587 73.9174 116.055 74.6758 116.347 75.5123C116.693 76.5173 116.859 77.5757 116.839 78.6403V79.709H105.251V77.29H113.255C113.265 76.77 113.143 76.2562 112.9 75.8C112.668 75.3725 112.327 75.017 111.913 74.7724C111.466 74.5196 110.962 74.3922 110.451 74.4024C109.913 74.3922 109.384 74.534 108.92 74.8135C108.484 75.0745 108.126 75.4506 107.879 75.9007C107.625 76.3631 107.493 76.8831 107.495 77.4133V79.7049C107.479 80.3276 107.609 80.9442 107.875 81.5053C108.114 81.9944 108.488 82.4013 108.95 82.6747C109.456 82.9583 110.027 83.1001 110.604 83.0857C110.998 83.0898 111.39 83.0282 111.764 82.9028C112.102 82.7898 112.409 82.6027 112.666 82.3541C112.922 82.1054 113.117 81.7991 113.239 81.46L116.759 81.6964C116.592 82.5349 116.214 83.3138 115.663 83.9571C115.082 84.623 114.353 85.1368 113.539 85.4554C112.582 85.8294 111.563 86.0123 110.54 85.9938Z" fill="white"/>
<path d="M123.129 77.6085V85.7204H119.322V71.6895H122.94V74.1558H123.1C123.39 73.3563 123.927 72.676 124.628 72.2157C125.406 71.7183 126.31 71.4676 127.227 71.4984C128.099 71.4778 128.96 71.6977 129.719 72.1376C130.433 72.5671 131.006 73.2022 131.372 73.9605C131.786 74.8381 131.987 75.8041 131.963 76.7782V85.7204H128.166V77.4791C128.166 76.62 127.951 75.9479 127.522 75.4649C127.094 74.982 126.495 74.7395 125.729 74.7395C125.257 74.7292 124.791 74.8463 124.377 75.0786C123.985 75.3067 123.667 75.6479 123.464 76.061C123.235 76.5419 123.12 77.0721 123.129 77.6085Z" fill="white"/>
<path d="M142.264 71.6896V74.6121H134.001V71.6896H142.264ZM135.876 68.3273H139.681V81.4087C139.667 81.6964 139.721 81.9841 139.842 82.2452C139.94 82.4322 140.101 82.5781 140.294 82.6562C140.509 82.7384 140.738 82.7795 140.967 82.7754C141.148 82.7754 141.327 82.7569 141.504 82.724L141.906 82.6459L142.509 85.5417C142.308 85.6034 142.051 85.6753 141.705 85.7575C141.291 85.8479 140.869 85.8973 140.445 85.9075C139.625 85.961 138.801 85.8336 138.033 85.5335C137.374 85.2725 136.811 84.8059 136.425 84.1997C136.021 83.5112 135.826 82.7179 135.862 81.9163L135.876 68.3273Z" fill="white"/>
<path d="M153.538 79.7398V71.6833H157.343V85.7204H153.689V83.172H153.546C153.247 83.9797 152.708 84.6723 152.005 85.1532C151.229 85.6691 150.316 85.9301 149.392 85.9034C148.545 85.9198 147.711 85.6978 146.98 85.2621C146.276 84.8285 145.711 84.1975 145.349 83.4453C144.939 82.5657 144.736 81.5977 144.756 80.6235V71.6895H148.543V79.9289C148.543 80.7509 148.76 81.4066 149.197 81.8936C149.639 82.3807 150.27 82.6458 150.919 82.615C151.367 82.6171 151.81 82.5061 152.206 82.2903C152.612 82.0683 152.947 81.7354 153.174 81.3264C153.436 80.8414 153.562 80.2926 153.538 79.7398V79.7398Z" fill="white"/>
<path d="M160.38 85.7205V71.6895H164.069V74.1373H164.213C164.406 73.3543 164.849 72.6575 165.472 72.1602C166.061 71.7121 166.776 71.4758 167.51 71.4881C167.715 71.4881 167.92 71.5005 168.125 71.5251C168.32 71.5457 168.515 71.5786 168.706 71.6258V75.0786C168.463 75.0108 168.215 74.9614 167.964 74.9327C167.677 74.8916 167.387 74.871 167.098 74.869C166.577 74.8587 166.061 74.9861 165.602 75.2389C165.17 75.4773 164.812 75.8328 164.565 76.2665C164.306 76.7269 164.175 77.2509 164.185 77.7812V85.7205H160.38Z" fill="white"/>
<path d="M176.272 85.9938C174.861 85.9938 173.647 85.6999 172.632 85.1121C171.627 84.5367 170.811 83.6673 170.288 82.6171C169.192 80.194 169.192 77.401 170.288 74.9779C170.806 73.9195 171.61 73.0337 172.605 72.4294C173.673 71.8005 174.889 71.484 176.121 71.5149C176.985 71.5067 177.842 71.6587 178.654 71.9588C179.423 72.2445 180.125 72.6987 180.708 73.2865C181.319 73.9174 181.787 74.6758 182.079 75.5123C182.424 76.5173 182.591 77.5757 182.571 78.6403V79.709H170.983V77.29H178.995C179.005 76.77 178.881 76.2562 178.638 75.8C178.406 75.3725 178.065 75.017 177.651 74.7724C177.204 74.5196 176.7 74.3901 176.189 74.4024C175.651 74.3922 175.122 74.536 174.658 74.8135C174.222 75.0745 173.864 75.4506 173.617 75.9007C173.365 76.3631 173.233 76.8831 173.233 77.4133V79.7049C173.217 80.3276 173.347 80.9442 173.612 81.5053C173.852 81.9944 174.226 82.4013 174.688 82.6747C175.194 82.9583 175.765 83.1001 176.342 83.0857C176.736 83.0898 177.128 83.0282 177.502 82.9028C177.84 82.7898 178.147 82.6027 178.404 82.3541C178.66 82.1054 178.855 81.7991 178.977 81.46L182.497 81.6964C182.33 82.5349 181.952 83.3138 181.401 83.9571C180.82 84.623 180.091 85.1368 179.277 85.4554C178.318 85.8294 177.299 86.0123 176.272 85.9938V85.9938Z" fill="white"/>
<path d="M196.47 75.6911L192.987 75.9089C192.927 75.6068 192.796 75.3252 192.603 75.0868C192.394 74.8299 192.129 74.6285 191.831 74.4929C191.471 74.3367 191.083 74.2586 190.692 74.2688C190.169 74.2524 189.652 74.3839 189.2 74.6491C188.832 74.8443 188.599 75.2327 188.597 75.6582C188.597 75.9891 188.746 76.3014 188.999 76.507C189.26 76.7392 189.711 76.9242 190.348 77.0639L192.832 77.5757C194.165 77.8572 195.158 78.3094 195.815 78.928C196.474 79.559 196.834 80.453 196.798 81.3758C196.812 82.2513 196.535 83.1063 196.008 83.7968C195.439 84.5223 194.693 85.0813 193.845 85.4184C192.84 85.8212 191.767 86.0185 190.688 85.9979C188.87 85.9979 187.425 85.6095 186.35 84.8326C185.303 84.103 184.613 82.9459 184.46 81.6594L188.203 81.4539C188.292 81.9821 188.589 82.4486 189.025 82.7466C190.044 83.322 191.276 83.3385 192.31 82.7918C192.681 82.5883 192.919 82.1958 192.931 81.7642C192.929 81.4189 192.766 81.0963 192.493 80.8928C192.095 80.6194 191.644 80.4386 191.17 80.3667L188.794 79.8837C187.453 79.6103 186.458 79.1335 185.805 78.4574C185.148 77.7689 184.794 76.8358 184.826 75.874C184.806 75.0375 185.059 74.2175 185.546 73.5434C186.07 72.8569 186.774 72.3369 187.574 72.0369C188.555 71.6649 189.596 71.484 190.643 71.5066C192.376 71.5066 193.741 71.8807 194.74 72.6308C195.715 73.3543 196.344 74.4661 196.47 75.6911V75.6911Z" fill="white"/>
</g>
<defs>
<clipPath id="clip0_1317_3530">
<rect width="166" height="44" fill="white" transform="translate(30.8 42)"/>
</clipPath>
</defs>
</svg>
