<svg width="228" height="128" viewBox="0 0 228 128" fill="none" xmlns="http://www.w3.org/2000/svg">
<g clip-path="url(#clip0_1317_3602)">
<path fill-rule="evenodd" clip-rule="evenodd" d="M84.8595 70.094L82.5301 66.0348H79.1252V70.094H77.1188V57.8958H83.1622C83.8975 57.8889 84.6259 58.0924 85.258 58.4717C85.8902 58.8545 86.4056 59.396 86.756 60.0547C87.103 60.7134 87.2576 61.4514 87.2164 62.1895C87.1752 62.9275 86.9347 63.6517 86.5121 64.2587C86.0757 64.9071 85.4608 65.4106 84.7392 65.7141L87.2164 70.0905H84.8629L84.8595 70.094ZM83.1519 59.965H79.1218V64.0173H83.1588C83.4268 64.0173 83.6845 63.9621 83.9284 63.8552C84.1723 63.7483 84.3888 63.5966 84.5675 63.4C84.8423 63.1172 85.0382 62.7585 85.1103 62.3619C85.1825 61.9722 85.1412 61.5653 84.9969 61.1928C84.8423 60.8272 84.5915 60.5099 84.2617 60.2823C83.9284 60.0547 83.5505 59.934 83.1519 59.934V59.965V59.965ZM104.642 57.8958L98.5818 70.094H100.832L104.636 62.4516L108.429 70.094H110.679L104.642 57.8958V57.8958ZM130.146 57.8958H127.583L124.137 62.3964L120.708 57.8958H118.135L123.182 64.4001V70.094H125.188V64.3035L130.149 57.8958H130.146ZM140.429 57.8958H144.449C146.05 57.9027 147.579 58.5545 148.706 59.6995C149.84 60.8376 150.479 62.386 150.486 63.9966C150.479 65.6141 149.84 67.1556 148.706 68.3006C147.572 69.4456 146.043 70.0871 144.442 70.094H140.422V57.8958H140.429V57.8958ZM144.449 68.0247C145.517 68.0247 146.538 67.5936 147.29 66.8315C148.043 66.0693 148.472 65.0381 148.472 63.9656C148.455 62.893 148.036 61.8618 147.283 61.1066C146.531 60.3513 145.511 59.9133 144.452 59.903H142.422V68.0247H144.452H144.449ZM163.906 57.8958H161.899V70.094H163.906V57.8958ZM185.379 65.0036C185.386 65.6761 185.266 66.3452 185.008 66.9625C184.757 67.5798 184.376 68.1385 183.891 68.6041C183.187 69.318 182.29 69.7974 181.311 69.994C180.332 70.1905 179.322 70.0905 178.397 69.7008C177.477 69.318 176.69 68.6627 176.14 67.8247C175.59 66.9867 175.298 66.0072 175.298 65.0002V57.9027H177.305V65.0002C177.305 65.8106 177.621 66.5832 178.195 67.1522C178.762 67.7212 179.531 68.0454 180.332 68.0454C181.132 68.0454 181.902 67.7212 182.469 67.1522C183.036 66.5832 183.352 65.8037 183.352 65.0002V57.9027H185.375V65.0105H185.382L185.379 65.0036ZM198.785 70.0974V62.8033L202.829 66.8729L206.859 62.8033V70.0974H208.897V57.8958L202.829 63.9966L196.786 57.8958V70.094H198.785V70.0974Z" fill="white"/>
<path d="M62.2077 57.5164V75.6498L42.2151 87.2962L22.2123 75.6498V52.3571L42.222 40.6969L57.5866 49.6533L59.9092 48.3048L42.222 38L19.9 51.0017V76.9983L42.222 90L64.544 76.9983V56.1679L62.2043 57.5164H62.2077Z" fill="white"/>
<path d="M36.6252 75.6671H33.2822V64.3449H44.4312C45.4825 64.338 46.4926 63.9069 47.2382 63.1413C47.9838 62.386 48.396 61.3618 48.4029 60.2995C48.4098 59.7719 48.3067 59.2511 48.104 58.7649C47.9013 58.2786 47.6024 57.8406 47.2313 57.475C46.8671 57.1026 46.4308 56.8025 45.9532 56.5991C45.4757 56.3956 44.9569 56.2921 44.4312 56.299H33.2822V52.8572H44.4381C46.3896 52.8641 48.2655 53.6607 49.6398 55.0506C51.0244 56.4473 51.8009 58.3303 51.8146 60.3064C51.8215 61.817 51.368 63.2861 50.5125 64.5208C49.7188 65.6968 48.6022 66.6245 47.3 67.1763C46.0048 67.5902 44.6614 67.7936 43.3111 67.7867H36.6218V75.674L36.6252 75.6671Z" fill="white"/>
<path d="M51.7356 75.3843H47.836L44.8263 70.0904C46.0151 70.018 47.1901 69.7732 48.3136 69.3662L51.7356 75.3843V75.3843Z" fill="white"/>
<path d="M59.8749 53.7469L62.1803 55.0367L64.4856 53.7469V51.0086L62.1803 49.6602L59.8749 51.0086V53.7469Z" fill="white"/>
</g>
<defs>
<clipPath id="clip0_1317_3602">
<rect width="189" height="52" fill="white" transform="translate(19.9 38)"/>
</clipPath>
</defs>
</svg>
