<svg width="228" height="128" viewBox="0 0 228 128" fill="none" xmlns="http://www.w3.org/2000/svg">
<g clip-path="url(#clip0_1287_3649)">
<path d="M56.554 59.9292C56.3838 59.9597 56.2894 59.9923 56.195 59.9923C54.2668 59.9984 52.3366 60.0472 50.4084 59.9923C48.6586 59.9414 46.8822 58.4425 46.5827 56.7178C46.3243 55.233 46.2484 53.7402 46.4063 52.2433C46.4904 51.4297 46.5232 50.5918 46.7612 49.8189C47.1899 48.4359 48.2627 47.6284 49.6289 47.2298C50.673 46.9247 51.7663 46.9186 52.792 47.2542C54.152 47.7017 55.1427 48.6088 55.6125 49.9938C56.0617 51.3179 55.8915 52.6907 55.9243 54.0493C55.953 55.2147 55.9058 56.3639 55.4874 57.4784C55.4074 57.6899 55.4976 58.0113 55.6063 58.235C55.8832 58.8004 56.2156 59.3374 56.552 59.9312L56.554 59.9292ZM53.5017 53.488L53.4299 53.4819C53.4299 52.8738 53.4586 52.2636 53.4197 51.6575C53.393 51.2467 53.3438 50.8074 53.1715 50.4413C52.7407 49.5301 51.9961 49.1274 50.9479 49.2047C50.072 49.2698 49.2371 49.7294 49.1017 50.5694C48.9089 51.7551 48.8658 52.9673 48.8084 54.1714C48.7817 54.7063 48.8576 55.2493 48.9191 55.7842C49.0176 56.6425 49.3109 57.4093 50.2258 57.7021C50.6156 57.8262 51.0525 57.8343 51.4689 57.8384C52.3427 57.8465 53.2043 57.0533 53.2802 56.195C53.3602 55.292 53.4279 54.389 53.5017 53.4839V53.488Z" fill="white"/>
<path d="M82.6916 53.5409C82.6916 54.1999 82.7059 54.8589 82.6916 55.5178C82.6362 57.8527 81.3644 59.4777 79.108 59.9537C77.4034 60.3137 75.7582 59.9801 74.4495 58.6866C73.6352 57.8812 73.2639 56.8622 73.2188 55.7599C73.1593 54.3423 73.1593 52.9206 73.2126 51.503C73.2885 49.5037 74.3634 47.7139 76.6321 47.2054C78.4844 46.7905 80.1726 47.059 81.5408 48.4868C82.2977 49.2779 82.6075 50.2603 82.6834 51.3098C82.7367 52.0501 82.6936 52.7965 82.6936 53.5389L82.6916 53.5409ZM80.3695 53.9334C80.2998 52.7863 80.3182 51.9484 80.1747 51.141C80.0885 50.6589 79.8362 50.1383 79.4998 49.7803C78.7716 49.0054 77.787 49.0278 76.907 49.4142C76.0741 49.7783 75.7111 50.5816 75.6988 51.4826C75.6782 52.8514 75.6516 54.2223 75.707 55.589C75.7398 56.3802 75.9675 57.1286 76.7408 57.5985C77.2475 57.9076 77.7808 57.8507 78.3182 57.8466C79.1347 57.8385 79.91 57.2161 80.0413 56.4107C80.1931 55.4873 80.2895 54.5538 80.3695 53.9355V53.9334Z" fill="white"/>
<path d="M34.4453 59.9923C34.4453 59.7258 34.4453 59.5428 34.4453 59.3597C34.4453 55.471 34.4535 51.5823 34.4351 47.6915C34.433 47.1993 34.5787 47.0671 35.0669 47.0732C37.4751 47.0956 39.8833 47.0813 42.2935 47.0813C42.95 47.0813 42.9664 47.1017 42.9705 47.7769C42.9705 48.0983 42.9705 48.4196 42.9889 48.741C43.0135 49.1254 42.8843 49.2677 42.4597 49.2596C40.7879 49.2311 39.1141 49.2596 37.4402 49.2413C37.0894 49.2372 36.9253 49.343 36.9274 49.6908C36.9315 50.4677 36.9356 51.2467 36.9274 52.0236C36.9253 52.4121 37.1694 52.4487 37.473 52.4446C38.8207 52.4304 40.1705 52.4365 41.5182 52.4019C41.953 52.3897 42.1069 52.53 42.072 52.951C42.0453 53.2866 42.0453 53.6283 42.072 53.9639C42.1089 54.4419 41.9325 54.6269 41.43 54.6168C40.15 54.5903 38.8679 54.6066 37.5858 54.6066C37.3992 54.6066 37.2125 54.6066 36.9274 54.6066C36.9274 55.2025 36.9171 55.7679 36.9315 56.3334C36.9438 56.8174 36.8125 57.454 37.0689 57.7387C37.2864 57.9828 37.9633 57.8384 38.4392 57.8404C39.7889 57.8486 41.1387 57.8547 42.4884 57.8364C42.8617 57.8303 43.0197 57.9381 42.9951 58.3225C42.9705 58.7272 43.0341 59.1401 42.9746 59.5367C42.95 59.7055 42.71 59.9719 42.5664 59.9719C39.8874 59.9984 37.2084 59.9902 34.4453 59.9902V59.9923Z" fill="white"/>
<path d="M62.3059 51.6169C62.3059 52.9348 62.2956 54.2528 62.312 55.5727C62.3202 56.191 62.5438 56.732 62.9459 57.2263C63.7725 58.2391 66.1705 58.1598 66.7428 56.61C66.8802 56.2398 66.9602 55.829 66.9643 55.4365C66.9848 52.8514 66.9869 50.2644 66.9643 47.6793C66.9602 47.2075 67.112 47.0509 67.5715 47.0793C68.0474 47.1078 68.5274 47.0915 69.0054 47.0936C69.3213 47.0936 69.4628 47.2461 69.4628 47.5654C69.4587 50.2867 69.5592 53.0121 69.4279 55.7273C69.3233 57.869 68.271 59.4167 65.7807 59.9618C64.0905 60.332 62.4289 60.0187 61.1284 58.7252C60.4987 58.0988 60.0084 57.3503 59.9797 56.4392C59.9038 53.9131 59.871 51.383 59.8259 48.8549C59.8177 48.4156 59.791 47.9722 59.8402 47.539C59.8587 47.3804 60.0679 47.1241 60.2033 47.1159C60.8146 47.0773 61.432 47.0915 62.0433 47.1383C62.1418 47.1465 62.2936 47.4149 62.2956 47.5634C62.3161 48.9159 62.3079 50.2684 62.3079 51.6189L62.3059 51.6169Z" fill="white"/>
<path d="M103.559 59.9699H101.116C100.884 59.2906 100.669 58.6235 100.421 57.9686C100.376 57.8506 100.195 57.7062 100.076 57.7042C98.6934 57.6859 97.3088 57.6798 95.9263 57.7083C95.7724 57.7123 95.5529 57.9218 95.4852 58.0845C95.276 58.593 95.1488 59.134 94.9417 59.6425C94.8801 59.793 94.6688 59.972 94.517 59.9801C93.8217 60.0167 93.1222 59.9964 92.3345 59.9964C92.4042 59.6954 92.435 59.4411 92.5211 59.2072C93.2473 57.2364 93.9878 55.2697 94.7181 53.2989C95.4299 51.3728 96.1478 49.4488 96.8309 47.5125C96.9458 47.1871 97.1099 47.0814 97.4134 47.0834C97.5673 47.0834 97.7211 47.0834 97.875 47.0834C99.1632 47.0976 98.8904 46.9756 99.2986 48.0637C100.712 51.8426 102.092 55.6337 103.481 59.4228C103.537 59.5733 103.528 59.7442 103.559 59.9699ZM99.6309 55.4975C99.116 53.9822 98.6176 52.5118 98.1191 51.0393L97.9673 51.0474C97.875 51.2711 97.7683 51.4887 97.6904 51.7186C97.2904 52.9043 96.9068 54.0941 96.5006 55.2758C96.4042 55.5565 96.4945 55.6602 96.7591 55.6602C97.5591 55.6642 98.3591 55.6704 99.1591 55.6541C99.3129 55.652 99.4668 55.5544 99.6309 55.4975Z" fill="white"/>
<path d="M177.524 59.9862C176.681 59.9862 175.953 60.0024 175.227 59.9719C175.089 59.9658 174.895 59.7909 174.837 59.6506C174.644 59.1706 174.495 58.6743 174.341 58.1801C174.236 57.8405 174.07 57.6696 173.658 57.6798C172.445 57.7123 171.231 57.7286 170.023 57.6757C169.51 57.6533 169.342 57.8791 169.221 58.2818C169.081 58.7415 168.931 59.2011 168.753 59.6486C168.7 59.7828 168.544 59.9679 168.427 59.9719C167.682 60.0004 166.936 59.9862 166.101 59.9862C166.335 59.3069 166.527 58.713 166.745 58.1252C167.666 55.6256 168.597 53.13 169.52 50.6304C169.896 49.6135 170.267 48.5945 170.63 47.5715C170.751 47.2319 170.931 47.0569 171.336 47.0712C172.962 47.1241 172.624 46.8108 173.235 48.4237C174.06 50.6081 174.827 52.8128 175.635 55.0032C176.234 56.6262 176.86 58.2391 177.522 59.9841L177.524 59.9862ZM170.17 55.528C170.365 55.5869 170.507 55.6663 170.65 55.6663C171.45 55.6744 172.25 55.6724 173.053 55.6561C173.358 55.65 173.463 55.5036 173.352 55.1883C172.921 53.9639 172.513 52.7314 172.092 51.503C172.035 51.3382 171.955 51.1816 171.885 51.0209L171.756 51.0433C171.235 52.5178 170.716 53.9924 170.172 55.53L170.17 55.528Z" fill="white"/>
<path d="M134.493 59.9984C133.729 59.9984 133.032 60.0106 132.335 59.9862C132.209 59.9821 132.029 59.8458 131.98 59.7299C131.766 59.2052 131.563 58.6723 131.412 58.1252C131.329 57.8303 131.21 57.6879 130.901 57.6879C129.569 57.692 128.238 57.6757 126.907 57.7062C126.737 57.7103 126.497 57.9137 126.421 58.0805C126.181 58.6133 126.015 59.1767 125.795 59.7198C125.75 59.8316 125.606 59.976 125.504 59.9781C124.792 60.0004 124.078 59.9903 123.215 59.9903C123.401 59.4309 123.551 58.951 123.721 58.4791C124.515 56.2683 125.307 54.0575 126.117 51.8528C126.657 50.3884 127.215 48.9301 127.795 47.48C127.861 47.3173 128.111 47.1993 128.304 47.1241C128.452 47.0671 128.64 47.1119 128.81 47.1078C129.846 47.0895 130.035 47.3153 130.322 48.324C130.628 49.3959 131.067 50.4311 131.455 51.4786C132.458 54.1958 133.463 56.913 134.464 59.6303C134.497 59.7177 134.478 59.8235 134.488 59.9882L134.493 59.9984ZM129.032 51.0799L128.854 51.0535C128.741 51.3687 128.626 51.686 128.513 52.0013C128.136 53.0528 127.75 54.1022 127.385 55.1578C127.272 55.4832 127.332 55.707 127.777 55.6927C128.525 55.6683 129.278 55.6927 130.029 55.6846C130.486 55.6805 130.579 55.5463 130.437 55.1314C130.4 55.0215 130.351 54.9137 130.314 54.8039C129.887 53.5633 129.461 52.3226 129.034 51.0799H129.032Z" fill="white"/>
<path d="M137.471 53.4921C137.471 51.566 137.485 49.6379 137.461 47.7118C137.455 47.24 137.569 47.061 138.082 47.0732C139.551 47.1058 141.022 47.0407 142.486 47.0976C144.125 47.1607 145.555 47.6834 146.332 49.2698C146.927 50.484 146.946 51.7084 146.322 52.9267C145.549 54.4378 144.24 55.0459 142.597 55.0744C141.879 55.0866 141.163 55.0907 140.445 55.0703C140.07 55.0602 139.939 55.1822 139.945 55.5646C139.965 56.8317 139.939 58.1008 139.953 59.3679C139.959 59.8418 139.793 60.0533 139.29 60.0065C138.919 59.9699 138.54 60.0004 138.164 59.9984C137.471 59.9984 137.469 59.9984 137.469 59.3272C137.469 57.3828 137.469 55.4385 137.469 53.4961L137.471 53.4921ZM139.961 52.9165C140.835 52.9165 141.635 52.9206 142.435 52.9165C143.356 52.9124 144.01 52.4243 144.275 51.5558C144.513 50.7748 143.953 49.5586 143.161 49.4244C142.23 49.2657 141.268 49.284 140.318 49.2616C140.201 49.2596 139.982 49.4813 139.978 49.6033C139.951 50.6813 139.961 51.7592 139.961 52.9185V52.9165Z" fill="white"/>
<path d="M30.2832 48.4033C29.7601 48.9342 29.3786 49.3348 28.9806 49.7172C28.7755 49.9145 28.595 49.8881 28.3181 49.7274C27.8955 49.4833 27.3991 49.3572 26.9232 49.223C26.2565 49.0379 25.6042 49.1172 24.9437 49.3389C24.437 49.5077 23.957 50.0772 23.9775 50.783C23.996 51.446 24.3324 51.9606 24.9847 52.1294C25.5673 52.2799 26.1683 52.3897 26.7693 52.4446C27.6781 52.526 28.5273 52.7436 29.2965 53.2419C30.0842 53.7524 30.4411 54.5436 30.5334 55.3998C30.6237 56.2378 30.6196 57.0798 30.1806 57.9055C29.7273 58.7597 29.0627 59.3577 28.2134 59.6302C26.0206 60.3299 23.8504 60.2851 21.8134 59.0465C21.7416 59.0018 21.6678 58.957 21.6022 58.9042C21.0811 58.4933 21.0729 58.4079 21.5427 57.9259C21.8504 57.6106 22.1232 57.2181 22.4965 57.0188C22.9806 56.7605 23.2227 57.3706 23.6206 57.515C24.7898 57.9381 25.9755 58.0194 27.155 57.6838C27.9652 57.454 28.2483 56.8174 28.1929 56.1422C28.1252 55.3368 27.6883 54.9178 26.8145 54.7368C25.5878 54.4825 24.2975 54.5212 23.1427 53.8785C21.9181 53.191 21.2698 51.4053 21.6411 50.2867C21.8216 49.7437 21.9857 49.1742 22.2893 48.6983C23.0134 47.5756 24.1581 47.1424 25.4504 47.0712C26.4822 47.0142 27.5365 46.9654 28.5088 47.3905C29.116 47.6549 29.6657 48.0454 30.2852 48.4033H30.2832Z" fill="white"/>
<path d="M121.1 51.0433C120.324 51.0433 119.567 51.0636 118.815 51.0209C118.696 51.0148 118.556 50.7362 118.486 50.5613C117.83 48.8813 115.442 48.7572 114.599 50.0813C114.349 50.4738 114.168 50.9741 114.15 51.4318C114.093 52.8494 114.109 54.271 114.136 55.6907C114.156 56.8377 115.069 57.9116 116.314 57.8811C117.403 57.8526 118.125 57.4764 118.517 56.4574C118.573 56.311 118.837 56.1666 119.016 56.1544C119.611 56.1096 120.209 56.1137 120.806 56.13C120.897 56.132 121.071 56.3252 121.057 56.3984C120.731 57.9625 119.879 59.1523 118.345 59.7197C116.076 60.5577 113.51 59.9821 112.212 57.8038C111.853 57.2018 111.705 56.4127 111.666 55.6988C111.584 54.2486 111.629 52.7924 111.645 51.3382C111.668 49.3674 113.087 47.6447 115.038 47.2115C116.888 46.8027 118.577 47.059 119.961 48.4562C120.474 48.9728 120.843 49.8209 121.104 51.0413L121.1 51.0433Z" fill="white"/>
<path d="M159.418 49.223H155.998C155.998 48.5884 155.961 48.0006 156.025 47.423C156.039 47.2908 156.394 47.1037 156.595 47.0976C157.721 47.0671 158.849 47.0834 159.978 47.0834C161.84 47.0834 163.701 47.0834 165.563 47.0793C165.961 47.0793 166.216 47.1241 165.98 47.6203C165.787 48.0271 165.633 48.4583 165.526 48.8935C165.451 49.2047 165.276 49.2413 165.016 49.2393C164.195 49.2332 163.375 49.2576 162.556 49.2271C162.064 49.2088 161.898 49.3816 161.9 49.8698C161.914 53.0141 161.908 56.1605 161.908 59.3048C161.908 59.5041 161.908 59.7035 161.908 59.9882C161.145 59.9882 160.435 60.0106 159.729 59.9658C159.617 59.9597 159.44 59.6628 159.434 59.494C159.401 58.7353 159.42 57.9726 159.42 57.212C159.42 54.7775 159.42 52.3409 159.42 49.9064C159.42 49.7071 159.42 49.5057 159.42 49.223H159.418Z" fill="white"/>
<path d="M188.977 57.8445C188.977 58.4852 188.985 59.0405 188.975 59.5957C188.968 59.9781 188.687 59.9923 188.396 59.9923C186.757 59.9923 185.116 59.9943 183.477 59.9964C182.692 59.9964 181.906 59.9801 181.12 60.0025C180.73 60.0126 180.573 59.9048 180.575 59.492C180.587 55.5361 180.585 51.5782 180.575 47.6224C180.575 47.2258 180.724 47.0671 181.114 47.0773C181.557 47.0895 182.002 47.0976 182.445 47.0814C182.901 47.0651 183.075 47.2359 183.073 47.7058C183.055 50.8684 183.063 54.029 183.061 57.1917C183.061 57.8466 183.059 57.8466 183.729 57.8466C185.266 57.8466 186.804 57.8466 188.341 57.8466C188.527 57.8466 188.712 57.8466 188.977 57.8466V57.8445Z" fill="white"/>
<path d="M150.076 53.5572C150.076 51.6128 150.088 49.6684 150.068 47.7241C150.062 47.24 150.207 47.0386 150.71 47.0793C151.135 47.1139 151.563 47.1058 151.99 47.0834C152.415 47.061 152.573 47.24 152.566 47.6488C152.554 48.6637 152.562 49.6766 152.562 50.6915C152.562 53.5653 152.558 56.4391 152.556 59.313C152.556 59.9618 152.525 59.9882 151.855 59.9903C151.444 59.9903 151.034 59.9699 150.626 60.0004C150.189 60.0309 150.07 59.8479 150.072 59.4391C150.088 57.4784 150.078 55.5178 150.078 53.5551L150.076 53.5572Z" fill="white"/>
<path d="M86.5827 53.5592C86.5827 51.6169 86.5827 49.6745 86.5827 47.7342C86.5827 47.118 86.6258 47.0814 87.2596 47.0834C87.6699 47.0834 88.0781 47.0936 88.4883 47.0793C88.9006 47.0651 89.0606 47.2339 89.0586 47.6508C89.0442 50.4372 89.0442 53.2216 89.0422 56.008C89.0422 57.1388 89.036 58.2696 89.0586 59.4004C89.0668 59.8357 88.9047 60.0187 88.4617 59.9984C88.0186 59.978 87.5735 59.974 87.1324 59.9984C86.7017 60.0228 86.5724 59.8458 86.5745 59.433C86.5909 57.4744 86.5806 55.5158 86.5806 53.5572L86.5827 53.5592Z" fill="white"/>
<path d="M62.6669 71.1968C62.0125 71.1968 61.4751 71.1968 60.9356 71.1968C60.2546 71.1968 59.5715 71.2009 58.8905 71.1927C58.6464 71.1887 58.4084 71.1622 58.4146 70.8124C58.4207 70.4443 58.673 70.4768 58.913 70.4768C60.0905 70.4768 61.27 70.4768 62.4474 70.4768C62.6341 70.4768 62.8187 70.4768 63.0771 70.4768V68.0504H63.8628C63.8628 68.7114 63.8689 69.348 63.8628 69.9846C63.8587 70.3588 64.0453 70.4829 64.4043 70.4788C65.6166 70.4687 66.8289 70.4748 68.0412 70.4748C68.2259 70.4748 68.4125 70.4748 68.5848 70.4748C68.7612 71.0727 68.7284 71.148 68.1787 71.1561C67.1407 71.1724 66.1007 71.15 65.0628 71.1602C64.8782 71.1602 64.6956 71.2476 64.511 71.2944C64.5766 71.4754 64.6115 71.6748 64.71 71.8375C65.7828 73.5988 67.0833 75.1425 68.9807 76.0842C68.6402 76.735 68.4843 76.7858 67.9223 76.3953C66.5848 75.4679 65.512 74.2903 64.632 72.9357C64.4515 72.6571 64.2751 72.3744 64.0248 71.9778C63.953 72.2198 63.871 72.3703 63.8689 72.5229C63.8566 73.4178 63.871 74.3147 63.8607 75.2096C63.8566 75.5818 64.0166 75.7242 64.3859 75.714C64.9643 75.6998 65.5407 75.7099 66.1069 75.7099C66.2669 76.3364 66.1705 76.4543 65.5879 76.434C65.1633 76.4177 64.7325 76.4421 64.312 76.3994C63.9489 76.3628 63.8628 76.5296 63.8628 76.8306C63.8648 77.4041 63.8628 77.9777 63.8628 78.5411C63.1961 78.7404 63.0935 78.6733 63.0977 78.0631C63.0977 77.6584 63.1018 77.2516 63.112 76.8469C63.1223 76.4869 62.913 76.373 62.5951 76.377C62.1048 76.3852 61.6146 76.4279 61.1284 76.3994C60.9971 76.3913 60.8105 76.196 60.7674 76.0516C60.6915 75.7974 60.872 75.7018 61.1223 75.7099C61.4464 75.7201 61.7705 75.7099 62.0946 75.7099C62.4002 75.7099 62.7038 75.7099 63.0648 75.7099V72.1181C62.2176 73.4584 61.2269 74.6421 60.0659 75.6835C59.7643 75.954 59.4279 76.1858 59.1038 76.434C58.7202 76.7269 58.3982 76.6943 58.1233 76.1919C60.1048 75.0265 61.5633 73.369 62.6648 71.1927L62.6669 71.1968Z" fill="white"/>
<path d="M110.628 75.8015C110.657 75.4781 110.687 75.287 110.687 75.0978C110.685 73.2551 110.669 71.4125 110.673 69.5698C110.673 68.8803 110.696 68.8803 111.481 68.9901V69.5189C111.481 72.0226 111.487 74.5243 111.469 77.0279C111.469 77.2557 111.366 77.6076 111.208 77.6828C110.913 77.8211 110.685 77.6239 110.484 77.3188C109.069 75.1649 107.621 73.0334 106.179 70.8959C106.129 70.8226 106.037 70.7759 105.875 70.6437C105.875 70.9264 105.875 71.1033 105.875 71.2803C105.875 73.2592 105.871 75.2381 105.879 77.2171C105.879 77.5222 105.865 77.7418 105.457 77.7255C105.075 77.7093 104.956 77.5364 104.956 77.1866C104.964 74.6158 104.958 72.045 104.977 69.4742C104.977 69.2972 105.118 68.9759 105.206 68.9718C105.506 68.9576 105.828 68.7989 106.095 69.2098C107.477 71.3392 108.903 73.4382 110.318 75.5453C110.361 75.6083 110.439 75.649 110.628 75.8015Z" fill="white"/>
<path d="M195.395 59.8418C195.873 59.3902 196.333 58.9164 196.837 58.4974C196.999 58.3631 197.282 58.3204 197.508 58.3204C200.564 58.3103 203.619 58.3184 206.675 58.3082C207.075 58.3082 207.227 58.4404 207.196 58.8391C207.167 59.2031 207.19 59.5733 207.19 59.9719H195.485C195.455 59.9292 195.424 59.8865 195.393 59.8418H195.395Z" fill="white"/>
<path d="M113.629 77.6462C113.76 77.2211 113.865 76.8062 114.017 76.4096C114.923 74.0463 115.85 71.6911 116.749 69.3257C116.882 68.9738 117.061 68.8091 117.44 68.7867C117.836 68.7644 117.912 69.0267 118.015 69.2993C119.007 71.925 120.004 74.5487 120.989 77.1764C121.046 77.3289 121.028 77.6625 120.989 77.6727C120.698 77.7398 120.359 77.815 120.205 77.4347C119.988 76.8937 119.768 76.3507 119.588 75.7974C119.494 75.5046 119.34 75.3968 119.038 75.3988C117.912 75.411 116.786 75.4069 115.66 75.4049C115.414 75.4049 115.276 75.4537 115.194 75.7385C115.052 76.2307 114.759 76.6842 114.646 77.1805C114.509 77.7784 114.162 77.7764 113.629 77.6483V77.6462ZM117.403 70.1128C117.309 70.2308 117.268 70.2613 117.251 70.304C116.778 71.5284 116.302 72.7507 115.838 73.9792C115.625 74.5466 115.697 74.63 116.332 74.632C117.032 74.632 117.729 74.63 118.429 74.632C119.085 74.632 119.143 74.5487 118.907 73.9324C118.599 73.1229 118.302 72.3073 117.988 71.4999C117.816 71.0565 117.619 70.6253 117.401 70.1128H117.403Z" fill="white"/>
<path d="M194.168 47.0651C194.568 47.0651 194.925 47.0753 195.282 47.0631C195.674 47.0468 195.836 47.2176 195.832 47.6061C195.82 48.501 195.828 49.3959 195.828 50.2908C195.828 52.4182 195.824 54.5436 195.832 56.671C195.834 57.1429 195.697 57.4947 195.27 57.7652C194.997 57.9381 194.802 58.233 194.568 58.471C194.468 58.5727 194.359 58.6683 194.168 58.8472V47.0651Z" fill="white"/>
<path d="M91.2967 68.9657H92.0331C92.0331 69.2891 92.0331 69.6043 92.0331 69.9196C92.0331 70.7474 92.0475 71.5772 92.029 72.405C92.0208 72.7426 92.1952 72.8809 92.4824 72.8809C93.6598 72.887 94.8372 72.8646 96.0147 72.8727C96.4413 72.8748 96.5624 72.6938 96.5542 72.287C96.5295 71.1928 96.5459 70.0965 96.5459 68.9698H97.2988C97.309 69.1487 97.3254 69.3277 97.3254 69.5067C97.3254 72.0429 97.3254 74.5791 97.3254 77.1174C97.3254 77.7703 97.309 77.7825 96.5439 77.6482C96.5439 76.7554 96.5439 75.8503 96.5439 74.9432C96.5439 74.1188 96.1213 73.708 95.2762 73.7107C94.4044 73.7107 93.5326 73.7351 92.6629 73.6985C92.1542 73.6781 92.0106 73.8653 92.0249 74.3453C92.0536 75.3418 92.0249 76.3405 92.0372 77.3391C92.0413 77.6299 91.9285 77.7235 91.6454 77.7215C91.3747 77.7215 91.2372 77.6503 91.2393 77.3513C91.2475 74.628 91.2454 71.9067 91.2475 69.1833C91.2475 69.1203 91.2741 69.0552 91.2947 68.9657H91.2967Z" fill="white"/>
<path d="M48.9849 72.6835C49.7952 72.2462 50.5911 71.8578 51.3357 71.39C51.6331 71.2029 51.867 70.8591 52.0352 70.5398C52.2465 70.1351 52.4824 69.9927 52.907 70.2286C52.9603 71.4063 53.9634 71.7134 54.7901 72.1466C55.2742 72.4008 55.826 72.5249 56.347 72.7059C56.187 73.2571 55.9572 73.3893 55.4424 73.2205C54.4824 72.9052 53.5942 72.4679 52.8967 71.7195C52.6649 71.4713 52.4639 71.3757 52.187 71.6869C51.6947 72.2422 51.0649 72.59 50.3511 72.8015C50.2526 72.83 50.1726 72.9194 50.107 73.074H54.3162V76.6109H53.5593C53.5593 75.8828 53.5367 75.177 53.5675 74.4753C53.588 74.0055 53.4054 73.851 52.9398 73.8611C51.9326 73.8855 50.9234 73.8815 49.9162 73.8611C49.5265 73.853 49.3624 73.9648 49.3788 74.3777C49.4075 75.1018 49.387 75.8279 49.387 76.5946H48.6095C48.6095 75.5004 48.5849 74.4225 48.628 73.3445C48.6383 73.0964 48.8844 72.8564 48.9829 72.6835H48.9849Z" fill="white"/>
<path d="M28.8822 76.8713C29.6596 76.8713 30.3734 76.8631 31.0852 76.8753C31.3416 76.8794 31.6637 76.8184 31.6473 77.2577C31.6309 77.6767 31.3663 77.6075 31.077 77.6075C29.475 77.5994 27.8729 77.6116 26.2709 77.6157C26.0329 77.6157 25.7827 77.6462 25.5591 77.5872C25.4319 77.5547 25.2555 77.3675 25.2596 77.2557C25.2637 77.1377 25.4545 76.9384 25.5714 76.9323C26.1498 76.9059 26.7304 76.9201 27.3088 76.9425C27.7355 76.9587 27.9242 76.8164 27.9201 76.3628C27.9037 74.3351 27.9057 72.3073 27.9201 70.2816C27.9222 69.9318 27.7909 69.8484 27.4709 69.8565C26.8616 69.8748 26.2524 69.8606 25.6555 69.8606C25.5324 69.1833 25.596 69.0958 26.195 69.0938C27.6452 69.0897 29.0955 69.0938 30.5478 69.0938C30.8165 69.0938 31.1078 69.0409 31.1037 69.4782C31.0975 69.9073 30.8186 69.8585 30.5437 69.8585C30.0022 69.8585 29.4606 69.8585 28.8801 69.8585V76.8692L28.8822 76.8713Z" fill="white"/>
<path d="M36.0124 70.4809V68.0443H36.7735V70.4809C37.2699 70.4809 37.7089 70.4992 38.1458 70.4748C38.595 70.4504 38.7427 70.6232 38.5889 71.1053C38.1335 71.1053 37.6596 71.1175 37.1858 71.1012C36.876 71.091 36.7899 71.2131 36.7694 71.5161C36.7283 72.108 36.8514 72.5778 37.3458 72.9785C37.7458 73.3039 38.0801 73.7228 38.3899 74.1377C38.474 74.2516 38.3653 74.5059 38.3468 74.695C38.1848 74.636 37.9735 74.6238 37.8709 74.512C37.5407 74.1581 37.2514 73.7676 36.8207 73.4279C36.8083 73.5622 36.7858 73.6984 36.7837 73.8327C36.7796 75.236 36.7837 76.6374 36.7735 78.0407C36.7735 78.2909 36.9212 78.6407 36.4125 78.6468C35.9263 78.6529 36.0166 78.3356 36.0166 78.0631C36.0166 76.5255 36.0227 74.9879 36.0227 73.4503C36.0227 73.3222 35.9919 73.194 35.9694 73.0191C35.3601 74.1662 34.7796 75.2625 34.1827 76.3913C33.6822 76.015 33.6678 75.7181 33.9714 75.3438C34.8781 74.2211 35.3827 72.8951 35.8442 71.5548C35.9386 71.2781 35.8607 71.0931 35.5099 71.1073C35.1181 71.1256 34.7222 71.1561 34.3366 71.1154C34.1663 71.0971 34.0124 70.9161 33.8504 70.8104C34.0104 70.7005 34.1642 70.5073 34.3304 70.4951C34.8699 70.4544 35.4135 70.4809 36.0145 70.4809H36.0124Z" fill="white"/>
<path d="M82.2258 73.1818C82.0843 71.9859 82.5704 70.8673 83.3889 69.9114C83.9325 69.2748 84.7058 68.9005 85.553 68.7988C86.5971 68.6748 87.5755 68.866 88.4248 69.5432C88.6217 69.6998 88.7694 69.8178 88.5889 70.068C88.4207 70.3019 88.2525 70.3954 87.9468 70.2388C87.5058 70.011 87.0443 69.8056 86.5684 69.6693C85.5858 69.3887 84.7427 69.7527 84.0884 70.4442C82.8227 71.7805 82.8104 74.7499 84.0658 76.137C84.9581 77.1234 86.9253 77.2414 87.8155 76.4441C87.955 76.318 88.1786 76.198 88.3448 76.2184C88.4863 76.2346 88.6463 76.4421 88.7099 76.6007C88.7407 76.678 88.5971 76.8651 88.4904 76.9485C86.9355 78.1587 85.1222 78.1912 83.6125 76.9241C82.7776 76.2224 82.3591 75.236 82.2299 74.152C82.1971 73.8692 82.2258 73.5784 82.2258 73.1818Z" fill="white"/>
<path d="M197.42 55.5198C197.405 55.2493 197.389 55.0886 197.389 54.928C197.389 52.5321 197.389 50.1362 197.389 47.7424C197.389 47.0936 197.42 47.0671 198.09 47.0651C198.762 47.0624 199.098 47.3878 199.098 48.0413C199.098 49.8962 199.094 51.7531 199.102 53.608C199.102 53.8948 199.046 54.0941 198.786 54.2832C198.474 54.5049 198.242 54.8344 197.963 55.1029C197.824 55.2371 197.658 55.3429 197.422 55.5219L197.42 55.5198Z" fill="white"/>
<path d="M207.19 56.7442H198.56C199.161 56.1788 199.649 55.6785 200.187 55.2412C200.335 55.1212 200.636 55.17 200.868 55.168C202.691 55.1537 204.517 55.1436 206.341 55.1375C206.542 55.1375 206.755 55.1232 206.942 55.1781C207.044 55.2086 207.169 55.3693 207.178 55.4792C207.206 55.8819 207.188 56.2866 207.188 56.7462L207.19 56.7442Z" fill="white"/>
<path d="M22.1069 75.3804C21.6289 74.6503 21.6371 74.6584 22.234 74.0259C22.5622 73.6781 22.8597 73.3018 23.1694 72.9378L23.0833 72.7913C22.8966 72.8076 22.712 72.8422 22.5253 72.8381C22.314 72.834 22.0043 72.8686 21.914 72.7527C21.7725 72.5696 21.6638 72.2259 21.7458 72.0368C22.2586 70.8592 22.8453 69.7121 23.3704 68.5385C23.5099 68.2273 23.6802 68.2395 23.9243 68.3311C24.2279 68.445 24.2279 68.6687 24.111 68.9087C23.7376 69.6754 23.3561 70.4361 22.9807 71.2029C22.8638 71.4408 22.7592 71.6808 22.6422 71.931C23.3397 72.0795 23.8915 71.8374 24.1745 71.2985C24.2751 71.1052 24.3735 70.908 24.4843 70.7208C24.6156 70.4992 24.7489 70.4544 25.0238 70.5846C25.3171 70.7229 25.3376 70.8958 25.2104 71.093C24.6545 71.9656 24.0761 72.8259 23.5017 73.6882C23.3992 73.8428 23.2904 73.9913 23.1838 74.1438L23.2699 74.2496C23.8545 74.1215 24.4392 73.9933 25.0217 73.8611C25.2412 73.8103 25.512 73.6455 25.5407 74.0503C25.5633 74.3635 25.4627 74.5669 25.0812 74.6462C24.0822 74.8577 23.0956 75.1303 22.1048 75.3804H22.1069Z" fill="white"/>
<path d="M203.959 47.0936H207.147V50.2501H203.959V47.0936Z" fill="white"/>
<path d="M100.839 68.9636H101.627C101.643 69.1182 101.67 69.2463 101.67 69.3765C101.672 71.9778 101.674 74.5791 101.67 77.1784C101.67 77.6502 101.51 77.7967 101.053 77.699C100.934 77.6746 100.759 77.4997 100.759 77.394C100.751 74.6076 100.763 71.8232 100.774 69.0368C100.774 69.0246 100.794 69.0124 100.837 68.9636H100.839Z" fill="white"/>
<path d="M75.6906 73.2409C75.6906 75.6083 75.6906 77.9757 75.6906 80.3431C75.6906 80.4611 75.7213 80.5912 75.6824 80.695C75.6372 80.8089 75.5285 80.8984 75.4485 81C75.3726 80.8923 75.2824 80.7885 75.229 80.6706C75.1962 80.5994 75.2229 80.5038 75.2229 80.4204C75.2229 75.651 75.2229 70.8816 75.2229 66.1142C75.2229 66.0471 75.2003 65.9658 75.229 65.9129C75.2967 65.7888 75.389 65.677 75.4711 65.561C75.5449 65.6851 75.6372 65.8031 75.6865 65.9373C75.7193 66.0268 75.6926 66.1387 75.6926 66.2403C75.6926 68.5732 75.6926 70.908 75.6926 73.2409H75.6906Z" fill="white"/>
<path d="M51.1613 68.1847L51.6885 68.3799C51.707 68.5467 51.7254 68.7115 51.75 68.927H55.5408C55.7603 69.7081 55.3993 70.306 55.0608 70.8938C55.0198 70.9629 54.6629 70.9487 54.5521 70.8551C54.4475 70.7697 54.4249 70.5175 54.4598 70.3569C54.4988 70.1697 54.6382 70.005 54.7941 69.7162C53.5736 69.7162 52.5029 69.7121 51.4341 69.7243C51.3377 69.7243 51.2249 69.828 51.149 69.9094C50.6813 70.4118 50.2239 70.9223 49.7767 71.4145C49.0547 70.9792 49.0382 70.8877 49.5839 70.4016C50.1952 69.8545 50.6957 69.2382 50.9664 68.4552C50.9972 68.3657 51.0793 68.2945 51.1613 68.1847Z" fill="white"/>
<path d="M202.363 47.0651C202.363 48.3119 202.365 49.4752 202.359 50.6366C202.359 50.726 202.314 50.8379 202.253 50.901C201.861 51.3057 201.463 51.7043 201.055 52.0928C200.977 52.168 200.845 52.1904 200.657 52.2718C200.657 51.9097 200.657 51.6148 200.657 51.3179C200.657 50.0508 200.667 48.7837 200.65 47.5186C200.646 47.1627 200.767 47.0366 201.122 47.057C201.51 47.0793 201.902 47.0631 202.363 47.0631V47.0651Z" fill="white"/>
<path d="M207.192 53.5023H201.908C202.431 52.9775 202.905 52.4894 203.397 52.0175C203.483 51.9362 203.643 51.8935 203.768 51.8955C204.773 51.9098 205.779 51.9484 206.782 51.9606C207.087 51.9647 207.212 52.0603 207.194 52.3714C207.173 52.7375 207.19 53.1057 207.19 53.5023H207.192Z" fill="white"/>
<path d="M51.1652 74.3574H51.8237C51.8196 76.2509 51.276 77.6177 49.2145 78.0326C48.6852 78.1384 48.154 78.2401 47.6206 78.3336C47.0811 78.4272 46.8514 78.1384 46.7734 77.638C47.4237 77.5628 48.0575 77.5018 48.6893 77.4143C49.8319 77.2557 50.8801 76.5499 50.9622 75.3459C50.9827 75.0327 51.0873 74.7235 51.1652 74.3595V74.3574Z" fill="white"/>
<path d="M38.6627 78.1892C39.6596 77.6482 40.6688 77.2007 41.5612 76.5906C42.3037 76.0821 42.9109 75.3825 43.5776 74.7682C43.7437 74.6157 43.8463 74.4042 44.1683 74.5913C44.4494 74.754 44.4637 74.8882 44.2914 75.0936C42.915 76.7411 41.1488 77.8394 39.1612 78.6143C38.8945 78.718 38.8042 78.6204 38.6606 78.1892H38.6627Z" fill="white"/>
<path d="M44.0227 71.5141C43.4504 72.0774 42.9642 72.6469 42.3858 73.0984C41.6965 73.6374 40.9314 74.0788 40.195 74.5567C39.676 74.8923 39.5714 74.8598 39.2473 74.2415C39.6658 74.0157 40.0986 73.8062 40.5068 73.5581C41.4627 72.9764 42.4042 72.3724 43.0791 71.4551C43.4012 71.0178 43.6555 71.3839 44.0227 71.5161V71.5141Z" fill="white"/>
<path d="M43.5899 68.4125C42.6484 69.3928 41.5838 70.2084 40.4268 70.9141C40.2832 71.0016 40.1499 71.1012 40.0084 71.1907C39.5345 71.4856 39.432 71.451 39.1345 70.906C39.7848 70.4972 40.4576 70.1168 41.0832 69.6694C41.5632 69.3257 42.0145 68.9311 42.4186 68.504C42.794 68.1053 43.1386 68.0626 43.592 68.4125H43.5899Z" fill="white"/>
<path d="M25.7048 75.4923V76.2713C24.5028 76.6943 23.3007 77.1174 22.1048 77.5404C21.6946 76.855 21.6905 76.8428 22.4289 76.5865C23.4874 76.2204 24.5541 75.8767 25.7048 75.4943V75.4923Z" fill="white"/>
<path d="M51.7212 77.0136C51.8566 76.4991 52.1027 76.3953 52.5827 76.5906C53.4504 76.9445 54.3407 77.2435 55.2289 77.5384C55.5468 77.6441 55.5448 77.8577 55.4135 78.0367C55.315 78.1729 55.0443 78.3194 54.913 78.2767C53.9448 77.9533 52.9909 77.5892 52.0371 77.2272C51.9181 77.1824 51.8217 77.0828 51.7212 77.0136Z" fill="white"/>
<path d="M47.0667 73.2795C46.9355 73.1656 46.7529 73.0619 46.6565 72.9032C46.6093 72.828 46.6955 72.6307 46.7755 72.529C47.1919 72.0022 47.6124 71.4795 48.0596 70.9812C48.156 70.8734 48.4042 70.7921 48.5211 70.8429C48.6298 70.8897 48.755 71.1907 48.7037 71.268C48.2626 71.9188 47.7826 72.5453 47.3088 73.1737C47.2739 73.2205 47.1898 73.2286 47.0647 73.2795H47.0667Z" fill="white"/>
<path d="M48.2977 70.1026C47.7869 69.647 47.4033 69.3277 47.0525 68.9758C46.9582 68.8823 46.8884 68.5996 46.9397 68.5589C47.0731 68.449 47.3479 68.3168 47.4423 68.3779C47.8484 68.6463 48.2525 68.9473 48.5623 69.3134C48.6484 69.4172 48.4105 69.7894 48.2997 70.1005L48.2977 70.1026Z" fill="white"/>
</g>
<defs>
<clipPath id="clip0_1287_3649">
<rect width="186" height="34" fill="white" transform="translate(21.2002 47)"/>
</clipPath>
</defs>
</svg>
