<svg width="228" height="128" viewBox="0 0 228 128" fill="none" xmlns="http://www.w3.org/2000/svg">
<g clip-path="url(#clip0_1317_3512)">
<path d="M64.6536 64.1741C64.6463 64.1469 64.639 64.1197 64.6281 64.0943C64.5461 63.9238 64.3838 63.8114 64.1942 63.7932C63.9663 63.7733 63.7238 63.7533 63.4777 63.757C60.1047 63.7425 56.6844 63.7352 53.3097 63.7352L55.7473 59.8341C58.5806 55.6628 61.4174 51.4915 64.258 47.3202C64.5716 46.8631 64.4494 46.5657 64.1814 46.1722C62.7721 44.1028 61.4047 42.0008 59.9881 39.946C59.6325 39.4436 59.4174 38.7889 58.8486 38.4316L58.9379 38.3011L58.7993 38.1977C58.5204 37.9891 58.2159 38.0018 57.9479 38.0127C57.8914 38.0145 57.833 38.0181 57.7783 38.0181C46.8082 38.0145 35.8453 38.0091 24.8879 38C24.2443 38 23.8377 38.2104 23.4621 38.7418L23.402 38.8234C22.5979 40.0421 21.7684 41.2718 20.9643 42.4597C20.2022 43.5896 19.4146 44.7575 18.6489 45.9128C18.6179 45.96 18.5687 46.0126 18.5158 46.067C18.3408 46.2501 18.0509 46.5566 18.3426 46.9992L18.3973 47.0808H18.5814C19.6863 49.2372 21.2232 51.1143 22.5396 53.1437C23.0282 53.8945 23.4202 54.7306 24.1166 55.3345L24.113 55.4869C24.1057 55.9076 24.3391 56.2033 24.5469 56.4626C24.6162 56.5497 24.6818 56.6313 24.7384 56.7165C26.4649 59.3263 27.8797 61.421 29.1906 63.3072C29.5571 63.8331 29.5607 64.165 29.2052 64.6729C27.8506 66.6044 26.5433 68.5758 25.2799 70.48C22.9553 73.9785 20.6015 77.5332 18.2842 81.0462L18.1001 81.3255H18.3171C18.3408 81.4542 18.4155 81.5649 18.4684 81.6429L18.4848 81.6664C18.9424 82.3393 19.4019 83.0121 19.8613 83.6832C21.1339 85.5439 22.4484 87.47 23.7137 89.3707C24.0838 89.9293 24.5506 89.9746 25.0775 89.9746H34.6948C34.7514 89.9746 34.8097 89.9782 34.868 89.9819C34.93 89.9855 34.9938 89.9891 35.0595 89.9891C35.2801 89.9891 35.5208 89.951 35.7231 89.737L35.7815 89.6754L35.7742 89.6046C36.0312 89.4378 36.1352 89.1041 36.3029 88.861C38.0131 86.3728 39.7032 83.87 41.4079 81.3726C41.4097 81.369 41.4133 81.3654 41.4151 81.3617L41.4279 81.3799C43.1764 83.9371 44.9376 86.5305 46.6587 89.0914C47.0105 89.6064 47.3405 90.0018 48.1026 90.0018C50.5585 89.9728 53.0563 89.9764 55.4702 89.98C56.338 89.98 57.2059 89.9837 58.0737 89.9837H58.1102C58.349 89.9873 58.648 89.9837 58.8668 89.7171L58.9142 89.659L58.9106 89.6173C59.0637 89.5103 59.1567 89.3235 59.2661 89.1567C62.8213 83.8736 66.3802 78.5924 69.9409 73.3129C70.2508 72.8541 70.28 72.5022 69.961 72.0434C68.1852 69.4336 66.4276 66.8038 64.6554 64.1759L64.6536 64.1741ZM63.4777 64.1197C63.711 64.1197 63.9426 64.136 64.1614 64.156C64.2471 64.1632 64.2853 64.2249 64.2981 64.2503C64.3109 64.2757 64.3346 64.3446 64.2853 64.4171L63.2461 65.9478C62.1084 67.6236 60.9325 69.3574 59.7857 71.0695L59.7656 71.0985C59.3937 71.6535 59.0983 72.0924 58.9543 72.0924C58.8085 72.0924 58.504 71.6426 58.1503 71.1239C57.1749 69.6911 56.194 68.2221 55.2459 66.802C54.7464 66.053 54.245 65.304 53.7436 64.5568C53.7163 64.5151 53.6853 64.4734 53.6561 64.4335C53.5613 64.3029 53.492 64.2049 53.472 64.0997C56.792 64.0997 60.1576 64.107 63.4777 64.1215V64.1197ZM18.7838 46.3172C18.844 46.2538 18.906 46.1885 18.9552 46.1141C19.7209 44.957 20.5085 43.7909 21.2706 42.6628C22.0564 41.5003 22.8678 40.2979 23.6554 39.1045L23.7137 39.0229C24.0346 38.535 24.3427 38.3627 24.8897 38.3627C35.8471 38.3718 46.81 38.3772 57.7802 38.3809C57.8403 38.3809 57.9041 38.379 57.9661 38.3754C58.1357 38.3682 58.2907 38.3609 58.4274 38.4062L57.7364 39.4219C56.4784 41.2736 55.1766 43.1906 53.9168 45.0858L53.3133 45.9908C51.4737 48.7457 49.5721 51.5949 47.7435 54.4223C47.656 54.5565 47.3934 54.9628 47.222 54.9646C47.1072 54.9646 46.9321 54.7886 46.7024 54.4404C46.0789 53.4919 45.4244 52.5452 44.7899 51.6275C43.902 50.3435 42.9849 49.0159 42.1463 47.6738C41.6996 46.9665 41.2438 46.7162 40.4015 46.7162H18.6051C18.5504 46.582 18.6179 46.4895 18.7838 46.3154V46.3172ZM25.5843 70.6795C26.8478 68.7753 28.1532 66.8075 29.5042 64.8796C29.9472 64.2485 29.9436 63.7497 29.4896 63.1004C28.1787 61.2161 26.7658 59.1232 25.0428 56.517C24.979 56.4191 24.9043 56.3266 24.8332 56.2359C24.6873 56.0527 24.5487 55.8786 24.4977 55.6701C25.34 55.6682 26.1823 55.6664 27.0247 55.6646C29.6355 55.661 32.3356 55.6556 34.9902 55.6193H35.0303C35.5937 55.6193 35.8179 55.9095 36.1388 56.3828C37.8307 58.8765 39.5227 61.3703 41.2128 63.8603C41.2091 64.1505 41.0469 64.37 40.8627 64.6221C40.8062 64.7001 40.7479 64.778 40.6968 64.856C37.1033 70.2044 33.5061 75.5527 29.9071 80.8993L18.8367 80.8666C21.0737 77.477 23.3436 74.0511 25.5843 70.6777V70.6795ZM34.8881 89.6191C34.8243 89.6155 34.7587 89.6119 34.6967 89.6119H25.0793C24.6016 89.6119 24.2917 89.5829 24.0182 89.1712C22.7511 87.2669 21.4347 85.3426 20.1621 83.48C19.7027 82.809 19.2432 82.1362 18.7856 81.4651L18.7692 81.4415C18.7364 81.3926 18.7163 81.3581 18.6999 81.3291L30.0366 81.3636C31.6465 83.8029 33.2563 86.2422 34.868 88.6815C35.054 88.9644 35.2929 89.2183 35.384 89.5484C35.2582 89.6336 35.1051 89.6318 34.8863 89.6191H34.8881ZM58.112 89.6191H58.0737C57.2059 89.6191 56.338 89.6191 55.4702 89.6155C53.0544 89.6119 50.5548 89.6083 48.099 89.6373C47.5137 89.6373 47.2786 89.3543 46.9595 88.8864C45.2584 86.3583 43.5209 83.7956 41.7925 81.2674C42.8318 79.4901 43.9713 77.8234 45.1764 76.0624C45.8929 75.0159 46.6331 73.935 47.3497 72.8269C48.9832 75.239 50.5421 77.535 52.09 79.8365C54.0681 82.7782 56.0408 85.7217 58.0117 88.6688C58.1995 88.9499 58.4402 89.2056 58.5277 89.5393C58.4292 89.6137 58.298 89.6228 58.112 89.6173V89.6191Z" fill="white"/>
<path d="M103.87 67.0015V56.6856C103.867 54.8303 103.149 54.123 101.254 54.123H90.2858C88.9458 54.1194 88.6687 53.8673 88.645 52.6884C88.6213 51.5096 89.2612 51.2375 90.3132 51.2375C93.8083 51.272 97.307 51.2502 100.804 51.2502C103.971 51.2502 103.94 51.252 103.903 48.1036C103.894 47.3346 103.639 47.1877 102.941 47.1968C100.279 47.2331 97.6151 47.2113 94.9532 47.2113C92.2914 47.2113 89.7079 47.2041 87.0697 47.2095C85.3304 47.2167 84.592 47.9404 84.5811 49.6488C84.5701 51.6256 84.5811 53.6007 84.5811 55.5775C84.5884 57.4727 85.2556 58.1383 87.1645 58.1383C90.8601 58.1383 94.5558 58.1565 98.2514 58.1383C99.349 58.1329 99.8576 58.5827 99.8212 59.7035C99.7774 61.0456 99.8084 62.3913 99.8084 63.7352C99.7993 65.1643 99.5276 65.4273 98.0399 65.4273H87.6677C84.4808 65.4273 84.5118 65.4273 84.5592 68.5739C84.5701 69.3447 84.8381 69.4807 85.5309 69.4807C90.8182 69.4626 96.1055 69.4753 101.393 69.4626C103.121 69.4589 103.87 68.7117 103.87 67.0015V67.0015Z" fill="white"/>
<path d="M164.33 54.1086C161.985 54.0977 159.64 54.1086 157.296 54.1086C154.951 54.1086 152.608 54.0995 150.267 54.1177C148.446 54.1267 147.708 54.825 147.697 56.6078C147.673 60.0845 147.673 63.5612 147.697 67.0397C147.706 68.7445 148.452 69.459 150.198 69.4699C152.74 69.4808 155.274 69.4699 157.826 69.4699C160.931 69.4699 160.904 69.4699 160.849 66.3396C160.837 65.6015 160.596 65.4056 159.887 65.4201C157.743 65.4546 155.597 65.4455 153.451 65.4201C152.789 65.4129 151.832 65.6831 151.832 64.5804C151.837 63.5394 152.763 63.8205 153.381 63.8205C156.997 63.8006 160.612 63.8096 164.229 63.8096C166.171 63.806 166.857 63.1132 166.857 61.1527V56.6477C166.848 54.8576 166.118 54.1195 164.33 54.1086V54.1086ZM161.538 59.778H152.969C152.375 59.778 151.788 59.7127 151.81 58.9473C151.832 58.182 152.43 58.1457 153.015 58.1457H161.584C162.182 58.1457 162.78 58.2582 162.758 58.989C162.736 59.7199 162.138 59.778 161.538 59.778Z" fill="white"/>
<path d="M118.057 65.4128C115.792 65.449 113.526 65.4236 111.262 65.4236C110.666 65.4218 109.935 65.4799 109.902 64.6565C109.862 63.7188 110.638 63.8077 111.276 63.8077C115.007 63.8077 118.746 63.8186 122.482 63.8077C124.225 63.8023 124.916 63.0986 124.929 61.3503C124.938 59.7706 124.938 58.1891 124.929 56.6077C124.91 54.8231 124.199 54.1121 122.376 54.1121C120.031 54.0994 110.575 54.0922 108.195 54.1121C106.549 54.1284 105.796 54.8902 105.796 56.5224C105.787 59.9991 105.787 63.4776 105.796 66.9562C105.8 68.7371 106.516 69.4535 108.339 69.4626C110.843 69.4716 113.348 69.4626 115.851 69.4626C119.027 69.4626 119.005 69.4626 118.93 66.2833C118.916 65.6159 118.737 65.4019 118.057 65.4128V65.4128ZM111.038 58.1456H115.322V58.1492H119.725C120.27 58.151 120.814 58.2417 120.832 58.9327C120.852 59.7017 120.287 59.776 119.683 59.776H110.994C110.43 59.776 109.898 59.6908 109.884 59.0089C109.867 58.2653 110.429 58.1456 111.038 58.1456V58.1456Z" fill="white"/>
<path d="M205.319 69.4589C206.528 69.4426 207.738 69.4589 209.056 69.4589C208.845 68.8641 208.701 68.4179 208.533 67.9827C207.029 64.0834 205.541 60.1714 204.001 56.2848C203.674 55.4578 203.72 54.8194 204.256 54.094C205.417 52.5379 206.497 50.931 207.605 49.3405C208.068 48.6767 208.517 48.0039 209.064 47.2059C207.862 47.2059 206.87 47.2566 205.884 47.1895C205.127 47.1369 204.668 47.3927 204.243 48.0329C203.065 49.8175 201.816 51.5513 200.577 53.2924C199.765 54.4222 199.197 54.4186 198.389 53.2815C197.109 51.4751 195.838 49.6615 194.577 47.8406C194.319 47.4688 194.086 47.1787 193.55 47.1986C192.407 47.2403 191.262 47.2113 189.878 47.2113C191.565 49.6216 193.061 51.8451 194.67 54.0051C195.262 54.8085 195.319 55.4995 194.954 56.4063C193.355 60.4416 191.818 64.4987 190.234 68.5394C189.969 69.2123 189.951 69.5532 190.843 69.4789C191.636 69.4136 192.431 69.4136 193.224 69.4789C193.953 69.5333 194.259 69.2177 194.5 68.5721C195.59 65.6449 196.739 62.754 197.844 59.8413C198.152 59.0325 198.436 58.278 199.514 58.2798C200.591 58.2816 200.854 59.0977 201.155 59.8812C202.272 62.7957 203.394 65.7029 204.52 68.6047C204.668 68.982 204.693 69.4716 205.319 69.4589Z" fill="white"/>
<path d="M183.816 59.5929C183.776 61.8817 183.803 64.1723 183.803 66.4611C183.803 69.5316 183.803 69.4989 186.917 69.4862C187.741 69.4826 187.887 69.1979 187.887 68.4615C187.856 64.5133 187.878 60.565 187.869 56.6168C187.864 54.8141 187.154 54.1194 185.331 54.1194H178.305C175.962 54.1194 173.619 54.1122 171.271 54.1213C169.438 54.1303 168.731 54.8159 168.731 56.615V66.4448C168.731 69.5316 168.731 69.5025 171.83 69.4862C172.62 69.4808 172.833 69.2504 172.822 68.4797C172.78 65.5162 172.826 62.5546 172.793 59.5929C172.784 58.5973 173.183 58.142 174.191 58.142H182.409C183.399 58.142 183.832 58.5791 183.816 59.5929V59.5929Z" fill="white"/>
<path d="M142.699 54.0886C141.924 54.036 141.592 54.3389 141.335 55.0371C140.245 57.9969 139.091 60.935 137.97 63.8857C137.678 64.6511 137.352 65.4037 136.384 65.411C135.415 65.4182 135.075 64.6982 134.779 63.9166C133.649 60.9295 132.493 57.9498 131.341 54.97C131.173 54.5492 131.131 54.0559 130.444 54.085C129.266 54.1321 128.084 54.0977 126.761 54.0977C128.662 59.047 130.509 63.864 132.365 68.6791C132.593 69.2722 133.074 69.468 133.696 69.468C135.483 69.4572 137.27 69.468 139.058 69.468C139.731 69.4699 140.169 69.2014 140.416 68.5504C142.201 63.9093 143.983 59.2701 145.762 54.6309C145.806 54.4604 145.831 54.2845 145.841 54.1085C144.747 54.1085 143.716 54.1629 142.699 54.0886V54.0886Z" fill="white"/>
<path d="M207.437 76.864H202.684C203.28 76.1675 203.701 76.3181 204.073 76.3271C205.424 76.3036 206.775 76.2836 208.125 76.3271C208.832 76.3489 209.1 76.1403 209.1 75.3949C209.109 74.5988 208.744 74.4954 208.086 74.5099C206.697 74.5425 205.306 74.5208 203.915 74.5208C201.111 74.5208 201.142 74.519 201.18 77.3301C201.193 78.2822 201.592 78.5797 202.48 78.5543C203.751 78.5162 205.018 78.5307 206.294 78.5543C206.65 78.5597 207.273 78.3765 207.253 78.9061C207.231 79.3994 206.609 79.218 206.245 79.218C204.974 79.2398 203.707 79.2199 202.431 79.2307C201.835 79.2344 201.154 79.0131 201.173 80.0886C201.189 81.2058 201.942 80.8702 202.489 80.8829C203.878 80.9047 205.269 80.8829 206.659 80.8829C208.28 80.8829 209.087 80.0874 209.078 78.4962C209.064 77.0072 208.923 76.864 207.437 76.864Z" fill="white"/>
<path d="M108.996 74.5226H103.398C102.613 74.5244 102.257 74.9433 102.257 75.7141V79.7422C102.257 80.5293 102.644 80.892 103.433 80.892C104.585 80.8739 105.738 80.8557 106.886 80.892C107.495 80.9101 107.728 80.7197 107.728 80.0886C107.736 79.423 107.528 79.1582 106.844 79.2072C106.217 79.2489 105.575 79.2235 104.941 79.2072C104.645 79.1999 104.193 79.3214 104.166 78.8916C104.142 78.4273 104.605 78.5289 104.895 78.5289C105.57 78.518 106.244 78.5289 106.919 78.5289L107.747 78.5379C110.272 78.5379 110.491 78.2876 110.272 75.7486C110.206 74.9325 109.82 74.5226 108.996 74.5226V74.5226ZM107.976 76.8585H106.19V76.8621H104.523C104.332 76.8603 104.082 76.8712 104.057 76.6137C104.029 76.309 104.277 76.2111 104.521 76.2111C105.672 76.2002 106.824 76.2111 107.975 76.2111C108.188 76.2111 108.381 76.2963 108.388 76.5448C108.396 76.7932 108.181 76.8585 107.976 76.8585Z" fill="white"/>
<path d="M191.348 75.8157C191.353 74.9397 190.945 74.5117 190.033 74.5117H187.302C186.389 74.5117 185.475 74.5172 184.562 74.519C183.794 74.5135 183.348 74.8563 183.348 75.6434C183.337 77.0254 183.337 78.4074 183.348 79.7893C183.348 80.5003 183.712 80.892 184.441 80.892C185.634 80.892 186.826 80.863 188.015 80.9047C188.679 80.9265 188.803 80.6436 188.806 80.0523C188.81 79.4611 188.648 79.18 188 79.2181C187.289 79.258 186.571 79.2289 185.858 79.2181C185.59 79.2054 185.216 79.2235 185.236 78.8553C185.256 78.4872 185.627 78.5289 185.895 78.5289H188.874C191.375 78.5289 191.453 78.4473 191.348 75.9336V75.8157V75.8157ZM189.082 76.8513H187.298L187.302 76.8567H185.519C185.36 76.8549 185.185 76.8204 185.154 76.6264C185.147 76.5974 185.145 76.5684 185.147 76.5393C185.156 76.3616 185.308 76.2256 185.484 76.2347C186.711 76.2147 187.938 76.2147 189.165 76.2347C189.311 76.2727 189.428 76.3834 189.472 76.5266C189.503 76.7679 189.291 76.8513 189.082 76.8513V76.8513Z" fill="white"/>
<path d="M127.935 75.5745C127.928 74.8436 127.494 74.5117 126.786 74.5117H124.052C123.14 74.5099 122.227 74.5426 121.302 74.5027C120.327 74.461 119.918 74.9307 119.918 75.8466C119.918 77.2666 119.937 78.6885 119.918 80.1086C119.904 80.64 120.071 80.8395 120.648 80.9066C121.782 81.039 121.742 80.3879 121.742 79.6171C121.738 76.2075 121.749 76.2365 125.08 76.2855C125.935 76.2982 126.194 76.5974 126.148 77.399C126.095 78.3058 126.165 79.2126 126.128 80.1194C126.094 80.7869 126.434 80.9174 127.005 80.8902C127.497 80.8667 127.964 80.9283 127.95 80.192C127.92 78.6577 127.95 77.1125 127.935 75.5745V75.5745Z" fill="white"/>
<path d="M158.711 74.4864C158.018 74.4664 157.81 74.7421 157.836 75.3932C157.874 76.378 157.834 77.3646 157.846 78.3512C157.856 78.9352 157.62 79.2272 157.006 79.2145C156.133 79.1909 155.259 79.18 154.388 79.2145C153.646 79.2435 153.418 78.8862 153.436 78.2061C153.464 77.2213 153.414 76.2329 153.451 75.2481C153.471 74.5662 153.106 74.4773 152.559 74.4918C152.049 74.5118 151.613 74.4918 151.628 75.2172C151.659 76.7135 151.638 78.2133 151.638 79.7132C151.638 80.5638 152.087 80.9047 152.915 80.883C153.826 80.8648 154.738 80.883 155.65 80.883C156.561 80.883 157.473 80.8648 158.39 80.8794C159.23 80.9011 159.653 80.5293 159.653 79.6896C159.651 78.2297 159.622 76.7624 159.664 75.3116C159.688 74.568 159.307 74.5063 158.711 74.4864V74.4864Z" fill="white"/>
<path d="M91.8046 73.3092C91.0662 73.2585 90.6487 73.458 90.439 74.2433C90.0744 75.5745 89.584 76.8694 89.1628 78.1824C89.0425 78.5524 89.0279 79.0512 88.5064 79.0203C88.0616 78.9949 88.0671 78.5034 87.9595 78.1879C87.4891 76.8077 86.9932 75.4312 86.6085 74.0274C86.3314 73.0227 85.5638 73.2367 84.9931 73.3764C84.3022 73.5468 84.8455 74.0909 84.9439 74.4192C85.4471 76.1167 86.0579 77.7871 86.5283 79.4973C86.8255 80.5818 87.3013 81.2184 88.5575 80.8557C89.1482 80.7342 89.996 81.2674 90.3296 80.2264C90.9714 78.1534 91.6351 76.0895 92.3224 74.0347C92.5065 73.4761 92.337 73.3473 91.8046 73.3092Z" fill="white"/>
<path d="M141.064 74.5063C140.641 74.5408 140.229 74.4628 140.202 73.935C140.167 73.2821 139.727 73.3166 139.281 73.3257C138.73 73.3438 137.747 74.6133 137.747 75.3388C137.747 75.6398 137.603 76.0697 137.944 76.2021C138.685 76.4922 138.477 77.0817 138.491 77.5985C138.515 78.4255 138.526 79.2544 138.491 80.0814C138.464 80.6908 138.69 80.9737 139.325 80.8721C140.021 80.9973 140.218 80.6527 140.185 80.007C140.15 79.1002 140.189 78.1934 140.174 77.2866C140.165 76.6917 140.325 76.2546 141.031 76.3109C141.766 76.3707 141.859 75.9645 141.859 75.3623C141.855 74.7892 141.72 74.4501 141.064 74.5063V74.5063Z" fill="white"/>
<path d="M172.957 74.519C172.045 74.5118 171.134 74.4846 170.222 74.5317C169.549 74.568 169.28 75.0323 169.28 75.6725V77.9232C169.278 78.5942 169.316 79.2689 169.254 79.9363C169.203 80.6436 169.436 80.9084 170.184 80.9084C170.982 80.9175 171.125 80.5584 171.075 79.9C171.044 79.4666 171.044 79.0313 171.075 78.5979C171.134 77.8978 170.818 77.098 171.258 76.5231C171.639 76.028 172.363 76.3562 172.957 76.3091C173.551 76.2619 173.517 75.872 173.504 75.4676C173.491 75.0631 173.659 74.519 172.957 74.519V74.519Z" fill="white"/>
</g>
<defs>
<clipPath id="clip0_1317_3512">
<rect width="191" height="52" fill="white" transform="translate(18.1001 38)"/>
</clipPath>
</defs>
</svg>
