<svg width="228" height="128" viewBox="0 0 228 128" fill="none" xmlns="http://www.w3.org/2000/svg">
<g clip-path="url(#clip0_1317_3610)">
<path d="M144.818 51V53.8061H130.006V58.1995H141.236V60.9962H130.013V65.4151H144.77V68.197H127.061V67.213C127.061 62.0553 127.061 56.8977 127.059 51.7401C127.059 51.4934 127.028 51.248 127.013 51.0013C132.948 51.0013 138.884 51.0013 144.819 51.0013L144.818 51Z" fill="white"/>
<path d="M163.214 51C164.311 51.303 165.303 51.7669 166.006 52.6906C166.521 53.3677 166.87 54.1131 166.887 54.9577C166.903 55.8332 166.96 56.7301 166.805 57.5841C166.447 59.5616 164.649 60.9653 162.585 61.0083C162.34 61.0136 162.095 61.0083 161.699 61.0083C163.473 63.4604 165.158 65.7878 166.921 68.2252C165.697 68.2252 164.606 68.2413 163.519 68.2078C163.36 68.2024 163.178 67.9785 163.061 67.8176C161.513 65.7007 159.969 63.5824 158.443 61.4507C158.217 61.1343 157.986 60.9948 157.582 61.0002C155.778 61.0217 153.972 61.0096 152.079 61.0096V68.2011H149.183V51H163.215H163.214ZM152.094 58.1486C152.211 58.1754 152.268 58.1995 152.324 58.1995C155.719 58.2022 159.113 58.2156 162.505 58.1995C163.349 58.1955 163.957 57.5707 164.018 56.7341C164.044 56.3735 164.029 56.0102 164.027 55.6468C164.023 54.3893 163.45 53.8262 162.168 53.8262C159.029 53.8262 155.89 53.8262 152.752 53.8262H152.093V58.1486H152.094Z" fill="white"/>
<path d="M189.038 64.7608C188.681 65.9554 188.08 67.0239 186.911 67.5884C186.197 67.9329 185.357 68.1836 184.567 68.2037C181.645 68.2748 178.718 68.2466 175.794 68.2252C173.256 68.2064 171.366 66.3831 171.339 63.9122C171.309 61.0874 171.315 58.2612 171.334 55.4363C171.349 53.251 172.593 51.7012 174.738 51.1099C174.83 51.0845 174.916 51.0375 175.005 51.0013C178.464 51.0013 181.923 51.0013 185.382 51.0013C186.277 51.2735 187.206 51.5483 187.782 52.3032C188.281 52.9574 188.624 53.7243 189.038 54.4416V64.7608ZM180.238 53.8235C178.805 53.8235 177.371 53.8195 175.937 53.8235C174.883 53.8275 174.237 54.3692 174.228 55.3814C174.2 58.2076 174.2 61.0337 174.228 63.8599C174.237 64.8306 174.892 65.4178 175.893 65.4218C178.761 65.4352 181.627 65.4366 184.494 65.4218C185.545 65.4164 186.176 64.7836 186.18 63.7567C186.19 60.9881 186.191 58.2183 186.18 55.4498C186.176 54.4201 185.541 53.8275 184.48 53.8235C183.066 53.8168 181.653 53.8222 180.238 53.8222V53.8235Z" fill="white"/>
<path d="M122.649 51C122.649 51.783 122.678 52.5686 122.629 53.3489C122.613 53.6157 122.472 53.9442 122.272 54.1198C118.207 57.6927 114.125 61.2482 110.045 64.8064C109.859 64.9686 109.658 65.1148 109.464 65.269C109.49 65.3186 109.516 65.3682 109.544 65.4178H122.609V68.1903H104.927C104.927 67.3001 104.903 66.4273 104.946 65.5586C104.954 65.3776 105.186 65.1832 105.354 65.037C109.426 61.4721 113.506 57.9139 117.582 54.3531C117.737 54.2177 117.883 54.0755 118.141 53.8382H104.961V51H122.649V51Z" fill="white"/>
<path d="M96.8245 51C97.4422 51.2775 98.1122 51.4813 98.6705 51.8446C101.246 53.5205 101.214 58.0735 98.057 59.4222C97.955 59.4651 97.8626 59.5308 97.7358 59.6032C98.1425 59.8445 98.5271 60.0295 98.8607 60.2762C100.432 61.4413 100.846 63.2981 100.285 65.1912C99.743 67.0132 98.0749 68.2118 96.1573 68.2212C92.0904 68.2399 88.0221 68.2292 83.9553 68.2305C83.1575 68.2305 82.7591 67.8364 82.76 67.0481C82.76 61.9454 82.76 56.8441 82.7614 51.7414C82.7614 51.4934 82.7821 51.2467 82.7931 50.9987C87.4707 50.9987 92.1483 50.9987 96.8259 50.9987L96.8245 51ZM83.7209 60.0792C83.6906 60.2025 83.6644 60.2561 83.6644 60.3111C83.6602 62.5286 83.6671 64.7448 83.652 66.9623C83.6492 67.3752 83.8918 67.3645 84.1855 67.3645C88.1352 67.3618 92.0863 67.3832 96.0346 67.3376C96.6522 67.3309 97.3291 67.1298 97.8723 66.8335C99.3515 66.0251 99.9567 64.2849 99.4591 62.5849C99.0096 61.0498 97.6503 60.0604 95.9395 60.0564C92.0284 60.0483 88.1186 60.0537 84.2075 60.055C84.0531 60.055 83.8987 60.0711 83.7209 60.0805V60.0792ZM83.6892 59.1594C83.9939 59.1594 84.2282 59.1594 84.4626 59.1594C88.2344 59.1594 92.0063 59.1581 95.7782 59.1594C98.483 59.1594 100.198 56.958 99.4673 54.4147C99.0069 52.814 97.6407 51.8714 95.7244 51.8674C91.9126 51.8594 88.1021 51.8647 84.2903 51.8674C84.1 51.8674 83.9098 51.8862 83.6892 51.8969V59.1594Z" fill="white"/>
<path d="M55.3161 51V51.8661C55.0266 51.8661 54.7964 51.8661 54.5662 51.8661C50.6564 51.8661 46.7453 51.8594 42.8356 51.8688C40.9249 51.8741 39.5752 52.8207 39.112 54.4416C38.3937 56.954 40.106 59.1594 42.7763 59.1594C45.7238 59.1594 48.6712 59.1487 51.6187 59.1635C53.8245 59.1742 55.5974 60.4586 56.0523 62.4978C56.8795 66.1981 54.1567 68.2936 51.5305 68.2466C47.5628 68.1769 43.5925 68.2292 39.6235 68.2305C39.4318 68.2305 39.2388 68.2305 39.0045 68.2305V67.394C39.2374 67.3832 39.4635 67.3631 39.691 67.3631C43.6793 67.3604 47.669 67.3685 51.6573 67.3564C53.6259 67.3511 55.0762 66.0399 55.2803 64.1267C55.4912 62.1478 54.318 60.5015 52.4059 60.1194C52.1012 60.059 51.7814 60.055 51.4684 60.0537C48.6189 60.0483 45.7707 60.0497 42.9211 60.0497C40.4217 60.0497 38.908 58.9597 38.1883 56.6456C38.1718 56.596 38.1304 56.5518 38.1001 56.5049C38.1001 55.8546 38.1001 55.2044 38.1001 54.5555C38.3607 53.9857 38.5606 53.3784 38.8956 52.8528C39.5476 51.8245 40.6078 51.3338 41.7562 51H55.3161Z" fill="white"/>
<path d="M61.4482 51C61.4675 51.2266 61.502 51.4531 61.502 51.6797C61.5048 55.6321 61.502 59.5858 61.5048 63.5381C61.5048 65.9527 62.9344 67.3564 65.4048 67.3604C68.1345 67.3645 70.8641 67.3645 73.5937 67.3604C75.9718 67.3578 77.4414 65.942 77.4497 63.5998C77.4649 59.6273 77.4538 55.6562 77.4552 51.6837C77.4552 51.4558 77.4745 51.2279 77.4855 50.9987H78.3113C78.3141 55.4109 78.3486 59.8231 78.3086 64.2353C78.2893 66.3978 76.2751 68.1984 73.9494 68.2225C71.6706 68.2466 69.3931 68.2292 67.1143 68.2279C66.3092 68.2279 65.5027 68.252 64.699 68.2091C62.5222 68.0938 60.6473 66.2919 60.6266 64.1763C60.5852 59.7842 60.6197 55.3908 60.6238 50.9973H61.4496L61.4482 51Z" fill="white"/>
<path d="M186.915 76.9169C186.201 76.5938 185.749 76.1017 185.797 75.2531C186.099 75.1217 186.289 75.0801 186.362 75.5346C186.485 76.2935 187.399 76.7131 188.079 76.3189C188.288 76.1983 188.405 75.8725 188.411 75.6379C188.415 75.4354 188.197 75.182 187.994 75.064C187.756 74.9259 187.495 74.8951 187.209 74.8388C186.335 74.6699 185.907 74.2114 185.978 73.5088C186.044 72.8492 186.626 72.4416 187.475 72.4403C188.226 72.4403 188.744 72.7929 189.082 73.4458C189.184 73.663 188.797 73.9781 188.532 73.7086C188.318 73.2313 187.988 72.8894 187.381 72.939C186.972 72.9726 186.572 73.0986 186.55 73.5772C186.518 74.2462 187.096 74.2623 187.557 74.383C187.577 74.3883 188.055 74.4942 188.255 74.5894C188.936 74.9192 189.14 75.8752 188.669 76.457C188.197 77.0389 187.278 77.0791 186.914 76.9142L186.915 76.9169Z" fill="white"/>
<path d="M169.228 76.9169C168.471 76.6153 168.205 76.0401 168.22 75.2786C168.238 74.387 168.224 73.4941 168.224 72.6227C168.653 72.4551 168.774 72.5865 168.767 72.9538C168.752 73.7355 168.756 74.5157 168.767 75.2974C168.777 76.0616 169.123 76.4517 169.76 76.4437C170.405 76.4356 170.718 76.0642 170.726 75.2759C170.734 74.4943 170.704 73.4593 170.736 72.6803C170.741 72.5275 171.159 72.5476 171.218 72.5784C171.218 73.6926 171.282 74.812 171.181 75.9181C171.149 76.2707 170.641 77.1918 169.228 76.9169V76.9169Z" fill="white"/>
<path d="M159.177 76.7748C158.504 76.8776 158.071 76.6314 157.88 76.0361C157.563 75.0413 157.253 74.0438 156.798 73.0598C156.798 73.6362 156.798 74.2114 156.798 74.7879C156.798 75.3604 156.812 76.2345 156.783 76.807C156.777 76.9183 156.266 76.9276 156.264 76.8244C156.248 75.528 156.253 73.9312 156.253 72.6455C157.206 72.3827 157.298 72.431 157.57 73.293C157.884 74.2932 158.197 75.292 158.652 76.2855C158.652 75.8108 158.652 75.3349 158.652 74.8603C158.652 74.2302 158.667 73.5987 158.652 72.9686C158.644 72.612 158.765 72.4605 159.177 72.5919V76.7748V76.7748Z" fill="white"/>
<path d="M177.059 76.7547C176.624 76.9076 176.436 76.8231 176.464 76.4397C176.464 76.4209 176.464 76.4008 176.464 76.382C176.429 75.4042 175.866 74.9926 174.775 75.1472V76.7735C174.727 76.811 174.261 76.7748 174.213 76.8124C174.213 76.8124 174.235 76.6703 174.232 76.5576C174.204 75.2451 174.214 73.9312 174.214 72.5637C174.914 72.5637 175.562 72.5074 176.195 72.5771C177.036 72.671 177.465 73.6979 177.004 74.4098C176.923 74.5372 176.811 74.6458 176.713 74.7625C176.777 74.7625 176.65 74.7625 176.713 74.7625C177.15 74.7866 177.008 76.0991 177.059 76.7534V76.7547ZM174.793 74.5694C175.4 74.5225 176.061 74.8134 176.483 74.2356C176.629 74.0358 176.613 73.5545 176.461 73.3507C176.031 72.7729 175.373 73.1027 174.793 73.0249V74.5694Z" fill="white"/>
<path d="M180.149 72.5435C180.96 72.5435 181.741 72.5368 182.521 72.5529C182.614 72.5542 182.607 73.0047 182.508 73.0087C181.922 73.0329 181.336 73.0208 180.703 73.0208V74.4298C181.252 74.4298 181.795 74.4124 182.335 74.4419C182.483 74.45 182.487 74.9179 182.34 74.9259C181.812 74.9554 181.282 74.938 180.705 74.938V76.3497C181.261 76.3497 181.843 76.3323 182.422 76.3618C182.561 76.3685 182.563 76.8243 182.429 76.827C181.686 76.8471 180.942 76.8364 180.149 76.8364V72.5435V72.5435Z" fill="white"/>
<path d="M151.155 74.9366V76.3497C151.743 76.3497 152.326 76.343 152.909 76.3524C153.269 76.3578 153.269 76.3685 153.254 76.8082H150.604V72.5448C151.422 72.5448 152.22 72.5381 153.018 72.5556C153.108 72.5569 153.077 73.0087 152.971 73.0127C152.384 73.0355 151.796 73.0235 151.164 73.0235V74.4325C151.657 74.4325 152.144 74.4071 152.625 74.4446C152.826 74.4607 152.843 74.9138 152.653 74.9273C152.167 74.9594 151.679 74.938 151.157 74.938L151.155 74.9366Z" fill="white"/>
<path d="M144.1 72.6173C144.552 72.4457 144.705 72.5999 144.799 72.9444C145.116 74.1215 145.398 75.111 145.853 76.2975C146.074 75.5373 146.354 74.9608 146.573 74.202C146.694 73.7797 146.835 73.36 146.923 72.931C147.002 72.5462 147.2 72.4698 147.606 72.6159C147.217 73.9566 146.847 75.2973 146.417 76.6192C146.374 76.7506 145.961 76.8217 145.72 76.8203C145.562 76.8203 145.307 76.6675 145.265 76.5321C144.857 75.2383 144.484 73.9325 144.098 72.6173H144.1Z" fill="white"/>
<path d="M163.986 73.0222C163.986 74.1953 163.981 75.296 163.99 76.3967C163.993 76.7345 163.905 76.9222 163.457 76.7761V73.0516H162.255C162.212 73.002 162.158 72.5636 162.27 72.5596C163.111 72.5301 164.132 72.5341 164.975 72.5516C165.081 72.5543 165.085 72.9967 164.972 73.0101C164.684 73.0423 164.39 73.0208 163.987 73.0208L163.986 73.0222Z" fill="white"/>
<path d="M178.788 61.1397V58.103H181.595V61.1397H178.788V61.1397Z" fill="white"/>
</g>
<defs>
<clipPath id="clip0_1317_3610">
<rect width="151" height="26" fill="white" transform="translate(38.1001 51)"/>
</clipPath>
</defs>
</svg>
