<svg width="228" height="128" viewBox="0 0 228 128" fill="none" xmlns="http://www.w3.org/2000/svg">
<g clip-path="url(#clip0_1287_3643)">
<path d="M143.113 69.1335C142.314 66.335 141.521 63.5661 140.73 60.799L140.622 60.7868C139.826 63.5644 139.029 66.3437 138.242 69.0917C138.184 69.116 138.171 69.1248 138.157 69.1265C137.494 69.166 137.07 68.8651 136.885 68.2239C136.082 65.4254 135.283 62.6269 134.483 59.8267C134.445 59.6908 134.413 59.5514 134.369 59.3806H135.364C136.118 62.139 136.879 64.9183 137.639 67.6976L137.747 67.6889C138.068 66.5737 138.387 65.4568 138.707 64.3415C139.148 62.8029 139.596 61.2677 140.021 59.7256C140.102 59.4329 140.219 59.3405 140.51 59.3475C141.244 59.3649 141.244 59.3475 141.453 60.0846C142.135 62.4823 142.818 64.88 143.503 67.2777C143.543 67.4223 143.604 67.56 143.702 67.8231C144.083 66.4151 144.429 65.1414 144.773 63.8641C145.126 62.5555 145.502 61.2538 145.816 59.9347C145.927 59.4642 146.114 59.2708 146.573 59.351C146.693 59.3719 146.821 59.3545 146.998 59.3545C146.742 60.2588 146.502 61.1179 146.256 61.9735C145.628 64.1621 144.981 66.3454 144.382 68.5428C144.25 69.0237 144.06 69.2276 143.584 69.1387C143.449 69.1126 143.306 69.1352 143.117 69.1352L143.113 69.1335Z" fill="white"/>
<path d="M123.779 64.2614C123.775 61.2939 125.882 59.0896 128.721 59.0931C131.535 59.0966 133.65 61.2904 133.67 64.2265C133.69 67.1557 131.538 69.4001 128.714 69.3948C125.89 69.3896 123.784 67.1993 123.78 64.2614H123.779ZM132.66 64.2736C132.682 61.2939 130.207 59.3336 127.491 60.1822C125.757 60.7241 124.674 62.4561 124.767 64.5384C124.882 67.1348 127.043 68.8965 129.512 68.4086C131.403 68.0357 132.645 66.4029 132.66 64.2736Z" fill="white"/>
<path d="M77.6616 69.0725C76.8705 69.3182 76.4437 69.0202 76.0895 68.3215C75.4991 67.1557 74.7923 66.0544 74.1496 64.9183C74.0197 64.6883 73.873 64.5942 73.6149 64.6064C73.1982 64.6273 72.7799 64.6116 72.3194 64.6116V69.0986H71.4304V59.2795C72.812 59.358 74.18 59.3266 75.5109 59.5427C76.8705 59.7622 77.4474 60.7136 77.3901 62.1861C77.3445 63.371 76.5703 64.2231 75.3338 64.4531C75.2393 64.4705 75.1482 64.5019 74.9762 64.5489C75.8837 66.0771 76.771 67.5704 77.6633 69.0742L77.6616 69.0725ZM72.3261 63.7456C73.2691 63.6951 74.1682 63.7125 75.0487 63.5836C75.9309 63.4529 76.3948 62.8378 76.4033 62.0257C76.4134 61.1754 75.9917 60.5376 75.1347 60.4C74.2205 60.2536 73.2809 60.271 72.3261 60.2153V63.7439V63.7456Z" fill="white"/>
<path d="M109.321 64.6134V69.1056H108.452V59.4154C108.469 59.4015 108.491 59.3701 108.513 59.3701C109.732 59.3893 110.959 59.3405 112.17 59.452C113.868 59.6088 114.786 61.0848 114.309 62.7541C114.035 63.7125 113.372 64.23 112.453 64.4374C112.32 64.467 112.187 64.4931 111.977 64.5367C112.897 66.0823 113.784 67.5756 114.71 69.1334C114.344 69.1334 114.051 69.1596 113.765 69.1212C113.646 69.1056 113.509 68.9731 113.44 68.8546C112.676 67.5565 111.918 66.2531 111.174 64.9427C111.036 64.7005 110.888 64.5907 110.609 64.6064C110.205 64.6308 109.798 64.6134 109.319 64.6134H109.321ZM109.343 63.7438C110.275 63.695 111.176 63.7142 112.055 63.5835C112.956 63.4511 113.416 62.8308 113.418 61.9891C113.42 61.1527 112.976 60.5184 112.116 60.3895C111.212 60.2536 110.287 60.271 109.344 60.2187V63.7438H109.343Z" fill="white"/>
<path d="M117.333 64.6134V69.1039H116.448V59.4294C116.476 59.405 116.496 59.3701 116.518 59.3719C117.751 59.3928 118.998 59.3074 120.216 59.4642C122.078 59.703 122.723 61.0935 122.303 62.7925C122.068 63.7369 121.371 64.2353 120.469 64.4391C120.336 64.4688 120.201 64.4932 119.988 64.5367C120.908 66.0823 121.795 67.5757 122.684 69.0725C122.623 69.1073 122.603 69.1265 122.579 69.1317C121.872 69.2711 121.447 68.9993 121.105 68.3162C120.528 67.1609 119.823 66.0736 119.189 64.9497C119.052 64.7092 118.907 64.5925 118.625 64.6099C118.21 64.636 117.792 64.6169 117.333 64.6169V64.6134ZM117.353 63.6864C118.131 63.6864 118.883 63.7055 119.634 63.6759C119.906 63.6655 120.186 63.5714 120.442 63.4668C121.134 63.188 121.436 62.6931 121.425 61.9229C121.415 61.2242 121.056 60.6962 120.383 60.4592C119.389 60.1107 118.369 60.3198 117.353 60.2606V63.6846V63.6864Z" fill="white"/>
<path d="M106.989 69.1317C106.665 69.1317 106.387 69.1544 106.115 69.1195C106.013 69.1056 105.886 68.9749 105.839 68.8668C105.56 68.2361 105.294 67.5983 105.041 66.9553C104.945 66.7113 104.82 66.6033 104.547 66.6068C103.128 66.6225 101.709 66.6207 100.291 66.6068C100.036 66.6051 99.9129 66.6974 99.8201 66.9309C99.589 67.5199 99.3158 68.0932 99.1049 68.6908C98.9767 69.0515 98.7878 69.1979 98.4234 69.1404C98.2598 69.1143 98.0894 69.1352 97.8718 69.1352C97.9224 68.9836 97.9528 68.8634 98 68.7518C99.2652 65.7564 100.539 62.7645 101.79 59.7622C101.932 59.4207 102.124 59.3544 102.452 59.3405C102.802 59.3248 102.936 59.4799 103.061 59.7779C104.305 62.7506 105.564 65.7181 106.819 68.6874C106.873 68.8163 106.918 68.9487 106.989 69.1334V69.1317ZM102.485 60.569L102.367 60.5655C101.691 62.254 101.014 63.9425 100.321 65.6763H104.52C103.83 63.9425 103.158 62.2575 102.487 60.5707L102.485 60.569Z" fill="white"/>
<path d="M176.948 69.0794C176.892 69.1056 176.869 69.1247 176.845 69.1265C176.248 69.1706 175.831 68.9104 175.594 68.3458C175.393 67.8684 175.184 67.3944 174.998 66.91C174.914 66.6887 174.797 66.6051 174.563 66.6068C173.131 66.6173 171.697 66.619 170.265 66.6068C170.007 66.6051 169.889 66.7079 169.799 66.9361C169.573 67.5129 169.305 68.0723 169.101 68.656C168.964 69.0498 168.745 69.1979 168.355 69.1369C168.205 69.1143 168.048 69.1335 167.839 69.1335C167.903 68.9627 167.947 68.832 168.001 68.7048C169.256 65.7355 170.516 62.7698 171.761 59.797C171.893 59.4834 172.033 59.33 172.397 59.337C172.744 59.344 172.91 59.4573 173.045 59.7831C174.288 62.7576 175.548 65.7233 176.801 68.6926C176.855 68.8198 176.901 68.9522 176.95 69.0812L176.948 69.0794ZM174.499 65.6746C173.804 63.9338 173.129 62.2401 172.453 60.5463L172.345 60.5655C171.668 62.254 170.992 63.9425 170.299 65.6746H174.499Z" fill="white"/>
<path d="M204.378 69.1335C204.078 69.1335 203.837 69.1666 203.607 69.1213C203.462 69.0934 203.275 68.9801 203.216 68.8512C202.921 68.2117 202.652 67.56 202.394 66.9031C202.307 66.6783 202.183 66.6051 201.954 66.6068C200.522 66.6173 199.088 66.6033 197.656 66.6242C197.507 66.626 197.295 66.7724 197.229 66.91C196.951 67.4938 196.701 68.0914 196.477 68.6996C196.354 69.0324 196.185 69.191 195.832 69.137C195.655 69.1091 195.471 69.1317 195.247 69.1317C195.303 68.9714 195.338 68.8494 195.387 68.7344C196.652 65.7391 197.924 62.7454 199.179 59.7448C199.314 59.4224 199.483 59.3353 199.807 59.3388C200.125 59.3423 200.298 59.4172 200.434 59.7465C201.674 62.7228 202.936 65.6885 204.191 68.656C204.246 68.7867 204.297 68.9191 204.381 69.13L204.378 69.1335ZM199.857 60.5568L199.746 60.562C199.068 62.254 198.391 63.946 197.703 65.6641H201.893C201.2 63.9268 200.529 62.2418 199.856 60.5568H199.857Z" fill="white"/>
<path d="M68.6674 69.1143H67.7953V64.5524H62.534V69.1021H61.6467V59.3736H62.5205V63.587H67.7801V59.3823H68.6674V69.1125V69.1143Z" fill="white"/>
<path d="M79.438 59.3754H85.2138V60.2501H80.3506V63.5992H84.9017V64.5193H80.3438V68.2047H85.3706V69.1108H79.438V59.3754Z" fill="white"/>
<path d="M87.4473 59.3754H93.2247V60.2501H88.3599V63.5992H92.9127V64.5193H88.3548V68.2047H93.3816V69.1108H87.4473V59.3754Z" fill="white"/>
<path d="M147.776 67.966C148.047 67.7691 148.297 67.5878 148.57 67.3892C149.181 68.2082 149.981 68.541 150.94 68.4765C151.522 68.4365 152.032 68.2204 152.43 67.7673C153.056 67.0529 152.981 66.0056 152.227 65.4393C151.905 65.1971 151.516 65.0403 151.141 64.8869C150.595 64.6622 150.023 64.5036 149.481 64.2683C148.621 63.8954 148.052 63.2716 147.97 62.2592C147.877 61.1283 148.203 60.2031 149.174 59.5897C150.557 58.7149 152.629 59.0234 153.626 60.2902C153.385 60.4941 153.142 60.6979 152.865 60.9314C152.313 60.1996 151.591 59.9434 150.738 60.0062C149.593 60.0915 148.898 60.8513 148.948 61.9752C148.968 62.4283 149.14 62.8221 149.515 63.0294C150.09 63.3483 150.703 63.5975 151.305 63.8641C151.728 64.0523 152.178 64.183 152.583 64.406C154.189 65.2877 154.069 67.2237 153.246 68.2361C151.934 69.8531 149.002 69.7364 147.771 67.966H147.776Z" fill="white"/>
<path d="M167.227 60.5219C166.851 60.8095 166.616 60.9872 166.361 61.1806C165.528 60.2797 164.526 59.879 163.349 60.0271C162.365 60.1508 161.529 60.5951 160.888 61.3862C159.472 63.1322 159.648 65.9534 161.22 67.4728C162.418 68.6299 165.199 69.1492 166.657 67.0564C166.881 67.2219 167.105 67.3875 167.358 67.5757C166.869 68.3528 166.191 68.8338 165.381 69.1248C162.269 70.2417 158.985 67.8614 158.939 64.46C158.904 61.7748 160.356 59.7814 162.77 59.2203C163.801 58.9798 164.818 59.0582 165.769 59.527C166.262 59.7692 166.69 60.149 167.227 60.5219Z" fill="white"/>
<path d="M178.417 59.2847C179.736 59.3579 181.035 59.3196 182.295 59.5287C183.719 59.7657 184.291 60.6944 184.212 62.2139C184.149 63.4197 183.328 64.2805 182.019 64.4304C181.297 64.5123 180.563 64.4966 179.836 64.5227C179.672 64.528 179.509 64.5227 179.303 64.5227V69.1003H178.417V59.2812V59.2847ZM179.32 63.6846C180.269 63.6079 181.174 63.6131 182.046 63.4424C182.887 63.2768 183.243 62.7036 183.232 61.8915C183.22 61.1388 182.81 60.5481 182.003 60.4121C181.13 60.264 180.231 60.2745 179.32 60.2135V63.6846Z" fill="white"/>
<path d="M60.007 59.3771V60.2588H56.8492V69.1038H55.9367V60.2832H52.7654V59.3771H60.007Z" fill="white"/>
<path d="M192.68 69.1143H191.767V60.2867H188.593V59.3754H195.829V60.2519H192.68V69.1143Z" fill="white"/>
<path d="M205.82 59.3736H206.694V68.2186H211.102V69.1003H205.822V59.3753L205.82 59.3736Z" fill="white"/>
<path d="M187.029 69.1125H186.18V59.3823H187.029V69.1125Z" fill="white"/>
<path d="M44.6077 64.9741C44.5369 64.9479 44.4019 64.9688 44.3581 65.0229C43.8824 65.6031 43.7053 66.3175 44.5453 66.7898C44.7208 66.8891 44.9114 66.9623 45.1948 67.0965C43.2228 67.8771 41.3589 68.6142 39.4865 69.3548C38.3816 66.7689 37.0388 64.4339 35.3773 62.4265C39.0327 58.5982 41.9122 55.5836 41.9493 55.5523C42.1028 55.9705 42.1449 56.2615 42.3069 56.6379C42.4418 56.9498 42.6645 57.1641 43.0373 57.0648C43.4337 56.9602 43.6817 56.6344 43.68 56.2266C43.6783 55.1428 43.6732 54.0572 43.6682 52.9733C43.6682 52.8479 43.6479 52.7242 43.6361 52.5708C42.1702 52.5778 40.7415 52.583 39.3144 52.597C39.2385 52.597 39.1204 52.6684 39.0968 52.7329C38.8522 53.4491 38.9298 54.1809 39.8778 54.3168C40.0769 54.3447 40.2793 54.3447 40.5897 54.3656C40.0279 54.8814 37.356 57.6189 34.0784 60.9924C32.147 59.0425 29.8394 57.4795 27.0561 56.3957C27.8134 54.2419 28.5573 52.13 29.3282 49.9379C29.4969 50.1592 29.5914 50.3195 29.7196 50.445C29.9625 50.6802 30.2054 50.9294 30.4854 51.1106C30.7503 51.2814 31.0353 51.203 31.2394 50.9485C31.4166 50.729 31.624 50.5077 31.4587 50.1766C30.9291 49.1259 30.4011 48.0734 29.863 47C28.5995 47.2666 27.4187 47.7057 26.2734 48.2546C25.9141 48.4271 25.7724 48.8767 25.9157 49.3681C26.0203 49.7288 26.2683 49.8455 26.7305 49.7445C27.0662 49.6713 27.3985 49.5859 27.7747 49.4953C27.7544 49.6434 27.7544 49.7305 27.7274 49.8072C27.0763 51.6856 26.4184 53.5623 25.7757 55.4442C25.6745 55.7405 25.5075 55.7004 25.2849 55.6568C22.5016 55.1027 19.6997 54.6845 16.8624 54.559C16.3445 54.5364 16.218 54.6357 16.1269 55.155C16.0949 55.3379 16.0915 55.5314 16.1118 55.7161C16.1641 56.2197 16.3226 56.3242 16.8135 56.3591C18.6724 56.495 20.5347 56.617 22.3885 56.8139C23.2151 56.9027 24.0265 57.1589 24.9003 57.3523C24.8109 57.6119 24.7653 57.7618 24.7096 57.9082C22.591 63.4964 20.4689 69.0847 18.3502 74.6729C17.7986 76.1279 17.2386 77.5777 16.7089 79.0414C16.5571 79.4596 16.4289 79.9667 16.7679 80.3187C17.0901 80.655 17.5051 80.3849 17.8711 80.2542C17.8846 80.249 17.8964 80.242 17.9099 80.2368C24.4364 77.5533 30.9628 74.8698 37.4892 72.1881C37.7338 72.087 37.9818 71.9964 38.2635 71.8866C38.3394 72.1079 38.4102 72.2926 38.4659 72.4808C39.2014 75.011 39.6248 77.6021 39.8947 80.2228C39.9487 80.7491 40.2894 81.054 40.7668 80.9913C41.3791 80.9129 41.7671 80.5138 41.7013 80.0224C41.3201 77.156 40.8612 74.3035 40.1275 71.5068C40.0397 71.1757 40.1393 71.0572 40.4227 70.9387C42.1635 70.2068 43.8942 69.4541 45.63 68.7118C45.7548 68.6577 45.8881 68.6194 46.0163 68.5741C46.0163 69.0219 45.9994 69.4349 46.0213 69.8479C46.0399 70.1894 46.1748 70.4717 46.5577 70.5153C46.9643 70.5623 47.3067 70.3497 47.4467 69.9664C47.8161 68.9522 48.1856 67.9363 48.5516 66.9205C48.5938 66.8037 48.6191 66.68 48.6596 66.5319C47.2865 66.0022 45.9488 65.4829 44.6094 64.9741H44.6077ZM26.3358 58.058C28.0462 58.3978 30.477 60.2135 32.6581 62.4561C27.444 67.8283 21.3191 74.1571 19.6373 75.8195C21.8724 69.8949 24.1057 63.9721 26.3358 58.0598V58.058ZM21.4237 77.0445C23.8645 74.4882 29.3046 68.7867 33.9738 63.8954C35.8884 66.1276 37.4015 68.5445 37.7068 70.2731C32.2836 72.5279 26.8536 74.7862 21.4237 77.0445Z" fill="white"/>
</g>
<defs>
<clipPath id="clip0_1287_3643">
<rect width="195" height="34" fill="white" transform="translate(16.1001 47)"/>
</clipPath>
</defs>
</svg>
