<svg width="50" height="50" viewBox="0 0 50 50" fill="none" xmlns="http://www.w3.org/2000/svg">
<path d="M50.0001 8H41.6493L37.7871 20.3388H46.0335L50.0001 8Z" fill="#FEFEFE"/>
<path d="M35.0035 29.2691L30.8977 19.7253C29.9583 17.3052 27.5922 15.7373 24.9826 15.7373C22.373 15.7373 20.0418 17.3052 19.0675 19.6912L14.753 29.2691L8.21156 8H0L9.77732 39.1197C10.1601 40.2786 11.2387 41.0967 12.4913 41.0967H17.2234C18.4064 41.0967 19.4503 40.415 19.8678 39.3242L24.913 27.0877L30.0627 39.3242C30.515 40.3809 31.5588 41.0626 32.7071 41.0626H37.3695C38.6222 41.0626 39.7008 40.2786 40.0835 39.1197L44.7112 24.3609H36.5345L35.0035 29.2691Z" fill="#FEFEFE"/>
</svg>
