<svg width="228" height="128" viewBox="0 0 228 128" fill="none" xmlns="http://www.w3.org/2000/svg">
<g clip-path="url(#clip0_1317_3549)">
<path d="M50.4132 54.5C48.6586 54.5 46.9444 55.0564 45.4876 56.1014C44.0286 57.1442 42.8929 58.628 42.2208 60.3651C41.5487 62.1 41.3743 64.0113 41.7168 65.8548C42.0592 67.6982 42.9035 69.3901 44.1434 70.7201C45.3833 72.0479 46.9635 72.9526 48.6841 73.319C50.4047 73.6855 52.1869 73.4977 53.8076 72.7785C55.4282 72.0592 56.8127 70.8423 57.7868 69.2793C58.7609 67.7163 59.2819 65.8796 59.2819 64.0023C59.2819 61.4825 58.3483 59.0668 56.6851 57.2844C55.022 55.502 52.7676 54.5023 50.4153 54.5023L50.4132 54.5ZM50.4132 69.1142C49.4689 69.1142 48.5459 68.8133 47.7611 68.2524C46.9763 67.6914 46.3638 66.8907 46.0022 65.9565C45.6407 65.0224 45.5471 63.9932 45.73 63.0025C45.915 62.0095 46.368 61.098 47.0359 60.3832C47.7037 59.6685 48.5544 59.1799 49.4795 58.9831C50.4047 58.7863 51.366 58.8858 52.238 59.2749C53.11 59.6617 53.8565 60.3176 54.3797 61.159C54.905 62.0005 55.1836 62.9889 55.1836 64C55.1836 65.3571 54.6817 66.6577 53.7863 67.6168C52.8909 68.5758 51.6765 69.1142 50.4111 69.1142H50.4132Z" fill="white"/>
<path d="M70.4007 54.5C68.6461 54.5 66.932 55.0564 65.4751 56.1014C64.0161 57.1442 62.8804 58.628 62.2083 60.3651C61.5363 62.1 61.3619 64.0113 61.7043 65.8548C62.0467 67.6982 62.891 69.3901 64.131 70.7201C65.3709 72.0479 66.9511 72.9526 68.6717 73.319C70.3922 73.6855 72.1745 73.4977 73.7951 72.7785C75.4157 72.0592 76.8003 70.8423 77.7743 69.2793C78.7484 67.7163 79.2695 65.8796 79.2695 64.0023C79.2695 61.4825 78.3358 59.0668 76.6727 57.2844C75.0095 55.502 72.7551 54.5023 70.4029 54.5023L70.4007 54.5ZM70.4007 69.1142C69.4564 69.1142 68.5334 68.8133 67.7486 68.2524C66.9639 67.6914 66.3513 66.8907 65.9898 65.9565C65.6282 65.0224 65.5346 63.9932 65.7176 63.0025C65.9026 62.0095 66.3556 61.098 67.0234 60.3832C67.6912 59.6685 68.5419 59.1799 69.4671 58.9831C70.3922 58.7863 71.3536 58.8858 72.2255 59.2749C73.0975 59.6617 73.844 60.3176 74.3672 61.159C74.8925 62.0005 75.1711 62.9889 75.1711 64C75.1711 65.3571 74.6671 66.6577 73.7717 67.6168C72.8763 68.5758 71.6619 69.1142 70.3965 69.1142H70.4007Z" fill="white"/>
<path d="M40.8109 54.6561H36.4913L34.4985 61.6205H38.7542L40.8109 54.6561Z" fill="white"/>
<path d="M30.936 61.2835L33.0756 66.651L33.8519 63.9096H38.0863L35.6958 72.2424C35.5065 72.8939 34.9408 73.344 34.29 73.344H31.8782C31.2912 73.344 30.7468 72.9617 30.5149 72.3555L27.8735 65.4364L25.2533 72.3329C25.0427 72.9165 24.4982 73.3214 23.89 73.3214H21.4569C20.8061 73.3214 20.2404 72.8712 20.0511 72.2198L15 54.6561H19.2557L22.6097 66.651L24.8322 61.2383C25.3149 59.8902 26.5315 59.0148 27.8735 59.0148C29.2155 59.0148 30.4533 59.9128 30.9339 61.2835H30.936Z" fill="white"/>
<path d="M205.91 64.3121L206.639 63.1201C203.391 62.2696 202.613 61.1477 202.613 59.3902V59.3404C202.613 57.4631 204.24 55.9498 206.709 55.9498C208.56 55.9137 210.35 56.6397 211.716 57.981L212.505 56.9383C210.803 55.4726 209.2 54.7533 206.758 54.7533C203.644 54.7533 201.367 56.8094 201.367 59.4852V59.5372C201.367 61.9823 202.696 63.4164 205.91 64.3144V64.3121Z" fill="white"/>
<path d="M187.847 64.4818V71.6656L198.587 71.643V72.8689H187.011C186.958 72.8689 186.907 72.8576 186.856 72.8372C186.807 72.8169 186.762 72.783 186.724 72.7445C186.685 72.7038 186.656 72.6563 186.636 72.6043C186.615 72.5522 186.607 72.4957 186.607 72.4391V55.4002C186.607 55.3437 186.617 55.2871 186.636 55.2351C186.658 55.1831 186.688 55.1356 186.724 55.0949C186.762 55.0541 186.807 55.0225 186.856 55.0021C186.904 54.9818 186.958 54.9705 187.011 54.9705H198.478V56.1987H187.857V63.2422H197.407V64.4818H187.844H187.847Z" fill="white"/>
<path d="M157.91 71.9755C161.291 71.9755 163.459 69.7769 163.459 65.4544V54.9908H164.699V65.2983C164.699 70.4397 161.912 73.1766 157.863 73.1766C153.814 73.1766 151.028 70.4668 151.028 65.4522V54.9908H152.265V65.3255C152.265 69.5462 154.386 71.9755 157.912 71.9755H157.91Z" fill="white"/>
<path d="M89.6994 71.4665L83.1744 54.993H81.792L89.0103 72.7354C89.0826 72.9119 89.2443 73.0249 89.4229 73.0249H89.9291C90.1077 73.0249 90.2694 72.9119 90.3417 72.7354L97.5579 54.993H96.2478L89.6994 71.4642V71.4665Z" fill="white"/>
<path d="M102.322 64.4817H111.873V63.2558H102.322V56.2213H112.945V54.993H101.535C101.286 54.993 101.086 55.2079 101.086 55.4748V72.412C101.086 72.6789 101.288 72.8938 101.535 72.8938H113.064V71.6678H102.322V64.4817V64.4817Z" fill="white"/>
<path d="M117.99 54.993C118.126 54.993 118.256 55.0609 118.343 55.1763L129.711 70.5685V54.993H130.902V72.412C130.902 72.6789 130.7 72.8938 130.453 72.8938H130.191C130.055 72.8938 129.926 72.8259 129.838 72.7105L118.23 56.9903V72.896H117.039V55.4771C117.039 55.2102 117.241 54.9953 117.488 54.9953H117.99V54.993Z" fill="white"/>
<path d="M134.664 56.2213H140.474V72.896H141.712V56.2213H147.525V54.993H134.662V56.2213H134.664Z" fill="white"/>
<path fill-rule="evenodd" clip-rule="evenodd" d="M182.347 60.1344V60.0823C182.351 58.8383 181.896 57.644 181.083 56.7596C180.082 55.6852 178.44 54.993 176.392 54.993H169.839C169.59 54.993 169.39 55.2079 169.39 55.4748V72.896H170.626V65.4792H176.079L181.392 72.896H182.964L177.462 65.2508C180.269 64.8414 182.345 63.1269 182.345 60.1344H182.347ZM170.628 64.2782V56.2213H176.319C179.344 56.2213 181.107 57.7299 181.107 60.1344V60.1864C181.107 62.7695 179.035 64.2759 176.249 64.2759H170.628V64.2782Z" fill="white"/>
<path d="M207.592 64.7193L208.321 63.5295C211.605 64.4072 213.009 65.8503 213.002 68.2795V68.3316C213.002 71.2381 210.68 73.2444 207.447 73.2444C204.763 73.2444 202.702 72.3035 200.692 70.3741L201.507 69.3698C203.353 71.1951 205.054 72.0434 207.519 72.0434C209.984 72.0434 211.76 70.5279 211.76 68.4695V68.4175C211.76 66.6148 210.92 65.5268 207.594 64.7193H207.592Z" fill="white"/>
</g>
<defs>
<clipPath id="clip0_1317_3549">
<rect width="198" height="19" fill="white" transform="translate(15 54.5)"/>
</clipPath>
</defs>
</svg>
