<?xml version="1.0" standalone="no"?>
<!DOCTYPE svg PUBLIC "-//W3C//DTD SVG 20010904//EN"
 "http://www.w3.org/TR/2001/REC-SVG-20010904/DTD/svg10.dtd">
<svg version="1.0" xmlns="http://www.w3.org/2000/svg"
 width="700.000000pt" height="700.000000pt" viewBox="0 0 700.000000 700.000000"
 preserveAspectRatio="xMidYMid meet">
<metadata>
Created by potrace 1.14, written by Peter Selinger 2001-2017
</metadata>
<g transform="translate(0.000000,700.000000) scale(0.100000,-0.100000)"
fill="#000000" stroke="none">
<path d="M574 6981 c-219 -54 -400 -202 -499 -406 -82 -170 -75 108 -75 -3075
0 -3183 -7 -2905 75 -3075 78 -163 196 -279 360 -355 161 -76 -102 -70 3068
-70 2808 0 2845 0 2923 20 276 70 483 276 554 554 20 78 20 105 20 2923 0
3187 7 2908 -75 3078 -78 162 -188 272 -350 350 -170 82 110 75 -3082 74
-2676 0 -2852 -2 -2919 -18z m3316 -1165 c315 -72 573 -216 791 -443 197 -206
324 -447 391 -741 21 -93 22 -123 25 -744 l4 -648 -575 0 -575 0 -3 568 c-3
533 -4 570 -22 612 -79 184 -224 280 -426 280 -199 0 -352 -98 -423 -270 -22
-54 -22 -61 -25 -622 l-3 -568 -575 0 -575 0 3 648 c4 626 4 650 26 746 53
236 142 431 283 616 69 91 230 249 319 311 188 133 409 224 640 265 113 20
619 12 720 -10z m-840 -2971 l0 -115 -575 0 -575 0 0 115 0 115 575 0 575 0 0
-115z m2050 0 l0 -115 -575 0 -575 0 0 115 0 115 575 0 575 0 0 -115z m-1908
-440 c100 -89 238 -128 384 -106 93 14 167 48 232 106 l50 45 611 0 c610 0
611 0 611 -21 0 -11 -10 -63 -22 -115 l-21 -94 -1537 0 -1537 0 -16 73 c-10
39 -21 91 -26 115 l-9 42 615 0 615 0 50 -45z m1712 -487 c-19 -33 -116 -176
-133 -195 l-19 -23 -1254 0 -1253 0 -39 54 c-21 29 -56 81 -78 115 l-38 61
1410 0 c1126 0 1410 -3 1404 -12z m-514 -533 c-137 -86 -315 -158 -505 -201
-117 -28 -639 -28 -765 -1 -183 40 -370 114 -510 202 l-55 35 945 0 945 0 -55
-35z"/>
</g>
</svg>
